<?xml version="1.0" encoding="UTF-8" standalone="no"?>
<!DOCTYPE svg PUBLIC "-//W3C//DTD SVG 1.1//EN" "http://www.w3.org/Graphics/SVG/1.1/DTD/svg11.dtd">
<!-- Generated by Microsoft Visio, SVG Export reference-architecture-003-nva.svg Hybrid Connection -->
<svg xmlns="http://www.w3.org/2000/svg" xmlns:xlink="http://www.w3.org/1999/xlink" xmlns:ev="http://www.w3.org/2001/xml-events"
		xmlns:v="http://schemas.microsoft.com/visio/2003/SVGExtensions/" width="16.5in" height="21.5in" viewBox="0 0 1188 1548"
		xml:space="preserve" color-interpolation-filters="sRGB" class="st23">
	<v:documentProperties v:langID="1033" v:viewMarkup="false">
		<v:userDefs>
			<v:ud v:nameU="msvNoAutoConnect" v:val="VT0(1):26"/>
		</v:userDefs>
	</v:documentProperties>

	<style type="text/css">
	<![CDATA[
		.st1 {fill:#f2f2f2;stroke:#d8d8d8;stroke-width:0.25}
		.st2 {fill:none;stroke:#0078d7;stroke-dasharray:0.01,3;stroke-width:1}
		.st3 {fill:#0078d7;stroke:none;stroke-width:0.25}
		.st4 {fill:none;stroke:none;stroke-width:0.25}
		.st5 {fill:#ffffff;font-family:Segoe UI Semibold;font-size:0.499992em}
		.st6 {fill:#ffffff;stroke:none;stroke-width:0.25}
		.st7 {fill:#0070c0;font-family:Segoe UI;font-size:0.666664em}
		.st8 {fill:none;stroke:none;stroke-linecap:round;stroke-linejoin:round;stroke-width:0.75}
		.st9 {fill:#0070c0;stroke:none;stroke-linecap:butt;stroke-width:0.75}
		.st10 {fill:#000000;font-family:Segoe UI;font-size:0.666664em}
		.st11 {marker-end:url(#mrkr4-64);stroke:#5b9bd5;stroke-linecap:round;stroke-linejoin:round;stroke-width:1}
		.st12 {fill:#5b9bd5;fill-opacity:1;stroke:#5b9bd5;stroke-opacity:1;stroke-width:0.35714285714286}
		.st13 {marker-end:url(#mrkr4-101);stroke:#5b9bd5;stroke-width:2.25}
		.st14 {fill:#5b9bd5;fill-opacity:1;stroke:#5b9bd5;stroke-opacity:1;stroke-width:0.55555555555556}
		.st15 {font-size:1em}
		.st16 {stroke:#5b9bd5;stroke-width:2.25}
		.st17 {fill:#ffffff;stroke:#0078d7;stroke-width:0.75}
		.st18 {fill:#0078d7;font-family:Segoe UI;font-size:0.75em}
		.st19 {fill:#00188f;stroke:none;stroke-linecap:butt;stroke-width:0.75}
		.st20 {marker-end:url(#mrkr4-101);marker-start:url(#mrkr4-157);stroke:#5b9bd5;stroke-width:2.25}
		.st21 {fill:none;stroke:#7f7f7f;stroke-dasharray:2.25,2.25;stroke-width:0.75}
		.st22 {fill:#0078d7;font-family:Segoe UI;font-size:0.666664em}
		.st23 {fill:none;fill-rule:evenodd;font-size:12px;overflow:visible;stroke-linecap:square;stroke-miterlimit:3}
	]]>
	</style>

	<defs id="Markers">
		<g id="lend4">
			<path d="M 2 1 L 0 0 L 2 -1 L 2 1 " style="stroke:none"/>
		</g>
		<marker id="mrkr4-64" class="st12" v:arrowType="4" v:arrowSize="1" v:setback="5.6" refX="-5.6" orient="auto"
				markerUnits="strokeWidth" overflow="visible">
			<use xlink:href="#lend4" transform="scale(-2.8,-2.8) "/>
		</marker>
		<marker id="mrkr4-101" class="st14" v:arrowType="4" v:arrowSize="1" v:setback="3.6" refX="-3.6" orient="auto"
				markerUnits="strokeWidth" overflow="visible">
			<use xlink:href="#lend4" transform="scale(-1.8,-1.8) "/>
		</marker>
		<marker id="mrkr4-157" class="st14" v:arrowType="4" v:arrowSize="1" v:setback="3.44" refX="3.44" orient="auto"
				markerUnits="strokeWidth" overflow="visible">
			<use xlink:href="#lend4" transform="scale(1.8) "/>
		</marker>
	</defs>
	<g v:mID="7" v:index="3" v:groupContext="foregroundPage">
		<title>NVA</title>
		<v:pageProperties v:drawingScale="1" v:pageScale="1" v:drawingUnits="19" v:shadowOffsetX="9" v:shadowOffsetY="-9"/>
		<v:layer v:name="000-All" v:index="0"/>
		<g id="shape164-1" v:mID="164" v:groupContext="shape" transform="translate(124.681,-788.732)">
			<title>Sheet.164</title>
			<rect x="0" y="1436.26" width="78.3218" height="111.739" class="st1"/>
		</g>
		<g id="shape165-3" v:mID="165" v:groupContext="shape" transform="translate(223.09,-788.732)">
			<title>Sheet.165</title>
			<rect x="0" y="1436.26" width="50.625" height="111.739" class="st1"/>
		</g>
		<g id="shape166-5" v:mID="166" v:groupContext="shape" transform="translate(213.341,-717.732)">
			<title>Virtual Network Box</title>
			<path d="M0 1548 L535.5 1548 L535.5 1351 L0 1351 L0 1548 Z" class="st2"/>
		</g>
		<g id="shape167-7" v:mID="167" v:groupContext="shape" transform="translate(298.841,-726.082)">
			<title>Sheet.167</title>
			<rect x="0" y="1497.85" width="117" height="50.15" class="st1"/>
		</g>
		<g id="group168-9" transform="translate(390.181,-733.242)" v:mID="168" v:groupContext="group">
			<title>Sheet.168</title>
			<g id="group169-10" transform="translate(3.08463,-0.700182)" v:mID="169" v:groupContext="group">
				<title>Sheet.169</title>
				<g id="shape170-11" v:mID="170" v:groupContext="shape" v:layerMember="0">
					<title>Lock, protected.1135</title>
					<path d="M14.31 1536.02 L13.31 1536.02 L13.31 1534.16 C13.31 1530.24 10.81 1528.23 7.9 1528.23 L7.42 1528.23
								 C4.45 1528.23 2.01 1530.19 2.01 1534.16 L2.01 1536.02 L1.01 1536.02 C0.58 1536.02 0 1536.6 0 1537.03
								 L0 1546.99 C-0 1547.42 0.58 1548 1.01 1548 L14.31 1548 C14.74 1548 15.32 1547.42 15.32 1546.99 L15.32
								 1537.03 C15.32 1536.6 14.74 1536.02 14.31 1536.02 ZM8.43 1541.9 L8.43 1546.04 L6.94 1546.04 L6.94
								 1541.9 C6.36 1541.64 5.94 1541.06 5.94 1540.37 C5.94 1539.41 6.73 1538.62 7.69 1538.62 C8.64 1538.62
								 9.44 1539.41 9.44 1540.37 C9.38 1541 9.01 1541.59 8.43 1541.9 ZM11.45 1536.02 L3.87 1536.02 L3.87
								 1534.16 C3.87 1531.67 5.2 1529.98 7.42 1529.98 L7.9 1529.98 C10.18 1529.98 11.45 1531.67 11.45 1534.16
								 L11.45 1536.02 Z" class="st3"/>
				</g>
				<g id="shape171-13" v:mID="171" v:groupContext="shape" v:layerMember="0" transform="translate(2.28102,-0.389869)">
					<title>Sheet.171</title>
					<rect x="0" y="1537.63" width="10.7581" height="10.3682" class="st3"/>
				</g>
			</g>
			<g id="shape172-15" v:mID="172" v:groupContext="shape">
				<title>Sheet.172</title>
				<desc>NSG</desc>
				<v:textBlock v:margins="rect(0,0,0,0)"/>
				<v:textRect cx="10.7447" cy="1541.68" width="21.49" height="12.6408"/>
				<rect x="0" y="1535.36" width="21.4894" height="12.6408" class="st4"/>
				<text x="4.72" y="1543.48" class="st5" v:langID="1033"><v:paragraph v:horizAlign="1"/><v:tabList/>NSG</text>			</g>
		</g>
		<g id="group173-18" transform="translate(722.516,-713.039)" v:mID="173" v:groupContext="group">
			<title>Sheet.173</title>
			<g id="shape174-19" v:mID="174" v:groupContext="shape">
				<title>Sheet.174</title>
				<rect x="0" y="1538.61" width="17.325" height="9.3862" class="st6"/>
			</g>
			<g id="group175-21" v:mID="175" v:groupContext="group">
				<title>Virtual Network</title>
				<g id="shape176-22" v:mID="176" v:groupContext="shape" transform="translate(12.0617,0)">
					<title>Sheet.176</title>
					<path d="M5.26 1543.31 L4.21 1542.25 L0.57 1538.61 L0 1539.23 L4.08 1543.31 L0 1547.39 L0.57 1548 L4.21 1544.36
								 L5.26 1543.31 Z" class="st3"/>
				</g>
				<g id="shape177-24" v:mID="177" v:groupContext="shape">
					<title>Sheet.177</title>
					<path d="M0 1543.31 L1.05 1542.25 L4.69 1538.61 L5.26 1539.23 L1.18 1543.31 L5.26 1547.39 L4.69 1548 L1.05 1544.36
								 L0 1543.31 Z" class="st3"/>
				</g>
				<g id="shape178-26" v:mID="178" v:groupContext="shape" transform="translate(4.4738,-3.64044)">
					<title>Sheet.178</title>
					<path d="M2.11 1546.95 C2.11 1547.52 1.62 1548 1.05 1548 C0.44 1548 0 1547.52 0 1546.95 C0 1546.38 0.48 1545.89
								 1.05 1545.89 C1.62 1545.89 2.11 1546.33 2.11 1546.95 Z" class="st3"/>
				</g>
				<g id="shape179-28" v:mID="179" v:groupContext="shape" transform="translate(7.63177,-3.64044)">
					<title>Sheet.179</title>
					<ellipse cx="1.05266" cy="1546.95" rx="1.05266" ry="1.05266" class="st3"/>
				</g>
				<g id="shape180-30" v:mID="180" v:groupContext="shape" transform="translate(10.7897,-3.64044)">
					<title>Sheet.180</title>
					<ellipse cx="1.05266" cy="1546.95" rx="1.05266" ry="1.05266" class="st3"/>
				</g>
			</g>
		</g>
		<g id="shape181-32" v:mID="181" v:groupContext="shape" transform="translate(644.618,-717.732)">
			<title>Sheet.181</title>
			<desc>Virtual network</desc>
			<v:textBlock v:margins="rect(4,4,4,4)"/>
			<v:textRect cx="45.7234" cy="1540.75" width="91.45" height="14.5"/>
			<rect x="0" y="1533.5" width="91.4468" height="14.5" class="st4"/>
			<text x="18.84" y="1543.15" class="st7" v:langID="1033"><v:paragraph v:horizAlign="1"/><v:tabList/>Virtual network</text>		</g>
		<g id="group182-35" transform="translate(305.448,-743.129)" v:mID="182" v:groupContext="group">
			<title>Virtual machine</title>
			<g id="shape183-36" v:mID="183" v:groupContext="shape" transform="translate(10.6837,-11.7195)">
				<title>Sheet.183</title>
				<path d="M0 1548 L12.32 1548 L12.32 1539.74 L0 1539.74 L0 1548 ZM8.87 1545.59 L6.56 1546.93 L6.56 1544.26 L8.87 1542.92
							 L8.87 1545.59 ZM6.35 1541.21 L8.66 1542.55 L6.36 1543.88 L4.04 1542.54 L6.35 1541.21 ZM3.81 1542.91
							 L6.13 1544.24 L6.13 1546.93 L3.81 1545.59 L3.81 1542.91 Z" class="st3"/>
			</g>
			<g id="shape184-38" v:mID="184" v:groupContext="shape">
				<title>Sheet.184</title>
				<path d="M31.19 1521.89 L1.44 1521.89 C0.65 1521.89 0 1522.54 0 1523.33 L0 1546.56 C0 1547.36 0.65 1548 1.44 1548
							 L31.19 1548 C31.99 1548 32.63 1547.36 32.63 1546.56 L32.63 1523.33 C32.63 1522.54 31.99 1521.89 31.19
							 1521.89 ZM16.21 1543.51 L15.3 1546.2 C15.29 1546.23 15.28 1546.25 15.27 1546.27 C15.26 1546.29 15.24
							 1546.3 15.21 1546.31 C15.18 1546.31 15.14 1546.32 15.1 1546.32 C15.05 1546.33 14.98 1546.33 14.9 1546.33
							 C14.84 1546.33 14.79 1546.33 14.74 1546.33 C14.7 1546.32 14.66 1546.32 14.63 1546.32 C14.6 1546.32 14.57
							 1546.31 14.55 1546.3 C14.53 1546.3 14.52 1546.29 14.5 1546.28 C14.49 1546.27 14.48 1546.26 14.47 1546.25
							 C14.47 1546.23 14.46 1546.22 14.45 1546.2 L13.55 1543.5 C13.53 1543.45 13.52 1543.4 13.51 1543.37 C13.51
							 1543.33 13.52 1543.31 13.54 1543.29 C13.56 1543.28 13.59 1543.27 13.64 1543.26 C13.68 1543.26 13.75
							 1543.26 13.83 1543.26 C13.91 1543.26 13.96 1543.26 14 1543.26 C14.04 1543.26 14.08 1543.27 14.1 1543.28
							 C14.12 1543.28 14.13 1543.3 14.14 1543.31 C14.15 1543.33 14.16 1543.35 14.17 1543.37 L14.91 1545.72
							 L14.91 1545.72 L15.64 1543.38 C15.64 1543.36 15.65 1543.33 15.66 1543.32 C15.67 1543.3 15.68 1543.29
							 15.71 1543.28 C15.73 1543.27 15.76 1543.26 15.8 1543.26 C15.85 1543.26 15.9 1543.26 15.98 1543.26 C16.05
							 1543.26 16.11 1543.26 16.15 1543.26 C16.19 1543.27 16.21 1543.28 16.23 1543.3 C16.24 1543.32 16.25 1543.34
							 16.24 1543.37 C16.24 1543.41 16.23 1543.45 16.21 1543.51 ZM20.18 1546.23 C20.18 1546.24 20.18 1546.26
							 20.17 1546.27 C20.16 1546.28 20.14 1546.29 20.12 1546.3 C20.1 1546.31 20.07 1546.32 20.03 1546.32 C19.99
							 1546.32 19.94 1546.33 19.89 1546.33 C19.83 1546.33 19.78 1546.32 19.74 1546.32 C19.71 1546.32 19.68
							 1546.31 19.66 1546.3 C19.63 1546.29 19.62 1546.28 19.61 1546.27 C19.6 1546.26 19.59 1546.24 19.59 1546.23
							 L19.59 1543.75 L19.59 1543.75 L18.71 1546.23 C18.7 1546.25 18.69 1546.26 18.68 1546.28 C18.66 1546.29
							 18.64 1546.3 18.62 1546.31 C18.6 1546.32 18.56 1546.32 18.53 1546.32 C18.49 1546.33 18.44 1546.33 18.39
							 1546.33 C18.34 1546.33 18.29 1546.33 18.25 1546.32 C18.22 1546.32 18.18 1546.31 18.16 1546.3 C18.14
							 1546.29 18.12 1546.28 18.1 1546.27 C18.09 1546.26 18.08 1546.24 18.07 1546.23 L17.22 1543.75 L17.22
							 1543.75 L17.22 1546.23 C17.22 1546.24 17.21 1546.26 17.21 1546.27 C17.2 1546.28 17.18 1546.29 17.16
							 1546.3 C17.13 1546.31 17.1 1546.32 17.07 1546.32 C17.03 1546.32 16.98 1546.33 16.92 1546.33 C16.87 1546.33
							 16.82 1546.32 16.78 1546.32 C16.75 1546.32 16.72 1546.31 16.69 1546.3 C16.67 1546.29 16.65 1546.28 16.65
							 1546.27 C16.64 1546.26 16.63 1546.24 16.63 1546.23 L16.63 1543.52 C16.63 1543.44 16.65 1543.38 16.7
							 1543.33 C16.74 1543.29 16.79 1543.27 16.87 1543.27 L17.27 1543.27 C17.34 1543.27 17.4 1543.28 17.46
							 1543.29 C17.51 1543.3 17.55 1543.32 17.59 1543.35 C17.63 1543.38 17.66 1543.41 17.68 1543.46 C17.71
							 1543.5 17.73 1543.56 17.75 1543.62 L18.41 1545.43 L18.42 1545.43 L19.1 1543.63 C19.12 1543.56 19.14
							 1543.51 19.17 1543.46 C19.19 1543.41 19.22 1543.38 19.25 1543.35 C19.28 1543.32 19.32 1543.3 19.36 1543.29
							 C19.41 1543.28 19.46 1543.27 19.52 1543.27 L19.93 1543.27 C19.98 1543.27 20.01 1543.28 20.04 1543.29
							 C20.07 1543.3 20.1 1543.31 20.12 1543.34 C20.14 1543.36 20.15 1543.38 20.16 1543.41 C20.17 1543.44 20.18
							 1543.48 20.18 1543.52 L20.18 1546.23 L20.18 1546.23 ZM24.01 1536.5 C24.01 1536.94 23.67 1537.28 23.23
							 1537.28 L18.75 1537.28 C18.32 1539.04 18.52 1539.25 21.55 1539.25 L21.55 1539.97 L18.02 1539.97 L15.45
							 1539.97 L12.14 1539.97 L12.14 1539.25 C14.86 1539.25 15.31 1539.04 14.88 1537.28 L10.46 1537.28 C10.03
							 1537.28 9.68 1536.94 9.68 1536.5 L9.68 1527.8 C9.68 1527.37 10.03 1527.01 10.46 1527.01 L23.23 1527.01
							 C23.67 1527.01 24.01 1527.37 24.01 1527.8 L24.01 1536.5 L24.01 1536.5 Z" class="st3"/>
			</g>
		</g>
		<g id="shape185-40" v:mID="185" v:groupContext="shape" transform="translate(299.688,-725.082)">
			<title>Sheet.185</title>
			<desc>Jumpbox</desc>
			<v:textBlock v:margins="rect(4,2,4,2)"/>
			<v:textRect cx="22.0769" cy="1538" width="44.16" height="20"/>
			<rect x="0" y="1528" width="44.1538" height="20" class="st8"/>
			<text x="6.06" y="1540.4" class="st7" v:langID="1033"><v:paragraph v:horizAlign="1"/><v:tabList/>Jumpbox</text>		</g>
		<g id="shape186-43" v:mID="186" v:groupContext="shape" transform="translate(298.841,-788.732)">
			<title>Sheet.186</title>
			<rect x="0" y="1436.26" width="117" height="111.739" class="st1"/>
		</g>
		<g id="group187-45" transform="translate(311.209,-838.278)" v:mID="187" v:groupContext="group" v:layerMember="0">
			<title>Computer.178</title>
			<desc>NVA</desc>
			<g id="shape188-46" v:mID="188" v:groupContext="shape" v:layerMember="0" transform="translate(5.02136,-2.27374E-13)">
				<title>Sheet.188</title>
				<path d="M15.51 1541.2 L14.74 1541.2 L7.04 1541.2 L6.64 1541.2 C7.71 1545.28 6.28 1545.86 0 1545.86 L0 1548 L7.98
							 1548 L13.81 1548 L21.34 1548 L21.34 1545.86 C15.06 1545.86 14.44 1545.28 15.51 1541.2 Z" class="st9"/>
			</g>
			<g id="shape189-48" v:mID="189" v:groupContext="shape" v:layerMember="0" transform="translate(0,-6.79783)">
				<title>Sheet.189</title>
				<path d="M30.66 1522.17 L1.77 1522.17 C0.79 1522.17 0 1523.12 0 1524.18 L0 1546 C0 1547.06 0.79 1548 1.77 1548 L30.66
							 1548 C31.64 1548 32.63 1547.06 32.63 1546 L32.63 1524.18 C32.63 1523.11 31.64 1522.17 30.66 1522.17
							 ZM30.12 1524.89 L30.12 1545.28 L2.51 1545.28 L2.51 1524.89 L30.2 1524.84 L30.12 1524.89 Z" class="st9"/>
			</g>
			<g id="shape187-50" v:mID="187" v:groupContext="groupContent" v:layerMember="0">
				<v:textBlock v:margins="rect(0,0,0,0)"/>
				<v:textRect cx="16.3163" cy="1528.96" width="32.64" height="27.1938"/>
				<text x="8.26" y="1531.36" class="st10" v:langID="1033"><v:paragraph v:horizAlign="1"/><v:tabList/>NVA</text>			</g>
		</g>
		<g id="group190-52" transform="translate(365.209,-838.278)" v:mID="190" v:groupContext="group" v:layerMember="0">
			<title>Computer.175</title>
			<desc>NVA</desc>
			<g id="shape191-53" v:mID="191" v:groupContext="shape" v:layerMember="0" transform="translate(5.02136,-2.27374E-13)">
				<title>Sheet.191</title>
				<path d="M15.51 1541.2 L14.74 1541.2 L7.04 1541.2 L6.64 1541.2 C7.71 1545.28 6.28 1545.86 0 1545.86 L0 1548 L7.98
							 1548 L13.81 1548 L21.34 1548 L21.34 1545.86 C15.06 1545.86 14.44 1545.28 15.51 1541.2 Z" class="st9"/>
			</g>
			<g id="shape192-55" v:mID="192" v:groupContext="shape" v:layerMember="0" transform="translate(0,-6.79783)">
				<title>Sheet.192</title>
				<path d="M30.66 1522.17 L1.77 1522.17 C0.79 1522.17 0 1523.12 0 1524.18 L0 1546 C0 1547.06 0.79 1548 1.77 1548 L30.66
							 1548 C31.64 1548 32.63 1547.06 32.63 1546 L32.63 1524.18 C32.63 1523.11 31.64 1522.17 30.66 1522.17
							 ZM30.12 1524.89 L30.12 1545.28 L2.51 1545.28 L2.51 1524.89 L30.2 1524.84 L30.12 1524.89 Z" class="st9"/>
			</g>
			<g id="shape190-57" v:mID="190" v:groupContext="groupContent" v:layerMember="0">
				<v:textBlock v:margins="rect(0,0,0,0)"/>
				<v:textRect cx="16.3163" cy="1528.96" width="32.64" height="27.1938"/>
				<text x="8.26" y="1531.36" class="st10" v:langID="1033"><v:paragraph v:horizAlign="1"/><v:tabList/>NVA</text>			</g>
		</g>
		<g id="shape193-59" v:mID="193" v:groupContext="shape" transform="translate(420.341,-846.232)">
			<title>Sheet.193</title>
			<path d="M0 1548 L6.53 1548" class="st11"/>
		</g>
		<g id="group194-65" transform="translate(340.466,-794.232)" v:mID="194" v:groupContext="group">
			<title>Azure load balancer.199</title>
			<g id="group195-66" transform="translate(0.498462,-0.443077)" v:mID="195" v:groupContext="group">
				<title>Sheet.195</title>
				<g id="shape196-67" v:mID="196" v:groupContext="shape">
					<title>Sheet.196</title>
					<path d="M27.03 1532.27 L15.73 1520.97 C15.23 1520.47 14.62 1520.2 13.9 1520.2 C13.24 1520.2 12.57 1520.47 12.07
								 1520.97 L0.78 1532.27 C0.28 1532.77 0 1533.38 0 1534.1 C0 1534.76 0.28 1535.43 0.78 1535.93 L12.07
								 1547.22 C12.57 1547.72 13.18 1548 13.9 1548 C14.57 1548 15.23 1547.72 15.73 1547.22 L27.03 1535.93
								 C27.53 1535.43 27.8 1534.82 27.8 1534.1 C27.75 1533.38 27.47 1532.71 27.03 1532.27 ZM21.66 1537.53
								 L21.66 1534.98 L17.78 1534.98 C17.39 1536.31 16.34 1537.37 15.01 1537.75 L15.01 1540.36 C15.56 1540.74
								 16.39 1541.63 16.39 1542.57 C16.39 1543.96 15.29 1545.06 13.9 1545.06 C12.52 1545.06 11.41 1543.96
								 11.41 1542.57 C11.41 1541.58 12.24 1540.74 12.79 1540.36 L12.79 1537.81 C11.46 1537.42 10.41 1536.37
								 10.02 1535.04 L6.15 1535.04 L6.15 1537.64 L2.49 1533.99 L6.15 1530.33 L6.15 1532.88 L10.02 1532.88
								 C10.41 1531.55 11.46 1530.5 12.79 1530.11 L12.79 1526.4 L10.25 1526.4 L13.9 1522.74 L17.56 1526.4
								 L15.01 1526.4 L15.01 1530.11 C16.34 1530.5 17.39 1531.55 17.78 1532.88 L21.66 1532.88 L21.66 1530.28
								 L25.31 1533.93 L21.66 1537.53 Z" class="st3"/>
				</g>
				<g id="shape197-69" v:mID="197" v:groupContext="shape" transform="translate(10.9662,-11.1877)">
					<title>Sheet.197</title>
					<path d="M2.94 1542.13 C1.33 1542.13 0 1543.46 0 1545.06 C-0 1546.67 1.33 1548 2.94 1548 C4.54 1548 5.87 1546.67
								 5.87 1545.06 C5.87 1543.46 4.54 1542.13 2.94 1542.13 Z" class="st3"/>
				</g>
			</g>
		</g>
		<g id="shape198-71" v:mID="198" v:groupContext="shape" transform="translate(-491.613,-571.094) rotate(-33.1492)">
			<title>Sheet.198</title>
			<path d="M0 1548 L22.28 1548" class="st11"/>
		</g>
		<g id="shape199-76" v:mID="199" v:groupContext="shape" transform="translate(-455.111,2044.15) rotate(-148.45)">
			<title>Sheet.199</title>
			<path d="M0 1548 L23.54 1548" class="st11"/>
		</g>
		<g id="group200-81" transform="translate(298.841,-877.496)" v:mID="200" v:groupContext="group">
			<title>Sheet.200</title>
			<g id="group201-82" transform="translate(3.08463,-0.700182)" v:mID="201" v:groupContext="group">
				<title>Sheet.201</title>
				<g id="shape202-83" v:mID="202" v:groupContext="shape" v:layerMember="0">
					<title>Lock, protected.1135</title>
					<path d="M14.31 1536.02 L13.31 1536.02 L13.31 1534.16 C13.31 1530.24 10.81 1528.23 7.9 1528.23 L7.42 1528.23
								 C4.45 1528.23 2.01 1530.19 2.01 1534.16 L2.01 1536.02 L1.01 1536.02 C0.58 1536.02 0 1536.6 0 1537.03
								 L0 1546.99 C0 1547.42 0.58 1548 1.01 1548 L14.31 1548 C14.74 1548 15.32 1547.42 15.32 1546.99 L15.32
								 1537.03 C15.32 1536.6 14.74 1536.02 14.31 1536.02 ZM8.43 1541.9 L8.43 1546.04 L6.94 1546.04 L6.94
								 1541.9 C6.36 1541.64 5.94 1541.06 5.94 1540.37 C5.94 1539.41 6.73 1538.62 7.69 1538.62 C8.64 1538.62
								 9.44 1539.41 9.44 1540.37 C9.38 1541 9.01 1541.59 8.43 1541.9 ZM11.45 1536.02 L3.87 1536.02 L3.87
								 1534.16 C3.87 1531.67 5.2 1529.98 7.42 1529.98 L7.9 1529.98 C10.18 1529.98 11.45 1531.67 11.45 1534.16
								 L11.45 1536.02 Z" class="st3"/>
				</g>
				<g id="shape203-85" v:mID="203" v:groupContext="shape" v:layerMember="0" transform="translate(2.28102,-0.389869)">
					<title>Sheet.203</title>
					<rect x="0" y="1537.63" width="10.7581" height="10.3682" class="st3"/>
				</g>
			</g>
			<g id="shape204-87" v:mID="204" v:groupContext="shape">
				<title>Sheet.204</title>
				<desc>NSG</desc>
				<v:textBlock v:margins="rect(0,0,0,0)"/>
				<v:textRect cx="10.7447" cy="1541.68" width="21.49" height="12.6408"/>
				<rect x="0" y="1535.36" width="21.4894" height="12.6408" class="st4"/>
				<text x="4.72" y="1543.48" class="st5" v:langID="1033"><v:paragraph v:horizAlign="1"/><v:tabList/>NSG</text>			</g>
		</g>
		<g id="shape205-90" v:mID="205" v:groupContext="shape" transform="translate(314.061,-899.757)">
			<title>Sheet.205</title>
			<desc>DMZ</desc>
			<v:textBlock v:margins="rect(4,4,4,4)"/>
			<v:textRect cx="45.9388" cy="1540.75" width="91.88" height="14.5"/>
			<rect x="0" y="1533.5" width="91.8777" height="14.5" class="st4"/>
			<text x="37.26" y="1543.15" class="st10" v:langID="1033"><v:paragraph v:horizAlign="1"/><v:tabList/>DMZ</text>		</g>
		<g id="shape206-93" v:mID="206" v:groupContext="shape" transform="translate(202.464,-899.282)">
			<title>Sheet.206</title>
			<desc>Gateway subnet</desc>
			<v:textBlock v:margins="rect(4,4,4,4)"/>
			<v:textRect cx="45.9388" cy="1540.75" width="91.88" height="14.5"/>
			<rect x="0" y="1533.5" width="91.8777" height="14.5" class="st4"/>
			<text x="17.73" y="1543.15" class="st10" v:langID="1033"><v:paragraph v:horizAlign="1"/><v:tabList/>Gateway subnet</text>		</g>
		<g id="shape207-96" v:mID="207" v:groupContext="shape" transform="translate(253.693,-756.362) rotate(0.195799)">
			<title>Sheet.207</title>
			<path d="M0 1548 L47.26 1548" class="st13"/>
		</g>
		<g id="shape208-102" v:mID="208" v:groupContext="shape" transform="translate(334.693,-743.129)">
			<title>Sheet.208</title>
			<desc>Management subnet</desc>
			<v:textBlock v:margins="rect(4,4,4,4)"/>
			<v:textRect cx="36.2024" cy="1535.4" width="72.41" height="25.2"/>
			<rect x="0" y="1522.8" width="72.4048" height="25.2" class="st4"/>
			<text x="12.67" y="1533" class="st10" v:langID="1033"><v:paragraph v:horizAlign="1"/><v:tabList/>Management <tspan
						x="24.18" dy="1.2em" class="st15">subnet</tspan></text>		</g>
		<g id="shape209-106" v:mID="209" v:groupContext="shape" transform="translate(-1299.6,791.629) rotate(-90)">
			<title>Sheet.209</title>
			<path d="M0 1548 L74.53 1548" class="st16"/>
		</g>
		<g id="shape210-109" v:mID="210" v:groupContext="shape" transform="translate(280.841,-808.632)">
			<title>Sheet.210</title>
			<path d="M0 1548 L51.53 1548" class="st13"/>
		</g>
		<g id="shape211-114" v:mID="211" v:groupContext="shape" transform="translate(-1267.16,739.368) rotate(-90)">
			<title>Sheet.211</title>
			<path d="M0 1548 L72.27 1548" class="st16"/>
		</g>
		<g id="shape212-117" v:mID="212" v:groupContext="shape" transform="translate(280.261,2215.07) rotate(180)">
			<title>Sheet.212</title>
			<path d="M0 1548 L14.86 1548" class="st16"/>
		</g>
		<g id="shape213-120" v:mID="213" v:groupContext="shape" transform="translate(231.403,-872.759)">
			<title>Sheet.213</title>
			<desc>UDR</desc>
			<v:textBlock v:margins="rect(4,4,4,4)"/>
			<v:textRect cx="17" cy="1537.76" width="34.01" height="20.4732"/>
			<rect x="0" y="1527.53" width="34" height="20.4732" class="st17"/>
			<text x="8.06" y="1540.46" class="st18" v:langID="1033"><v:paragraph v:horizAlign="1"/><v:tabList/>UDR</text>		</g>
		<g id="shape214-123" v:mID="214" v:groupContext="shape" transform="translate(-1299.6,689.958) rotate(-90)">
			<title>Sheet.214</title>
			<path d="M0 1548 L7.85 1548" class="st13"/>
		</g>
		<g id="shape215-128" v:mID="215" v:groupContext="shape" v:layerMember="0" transform="translate(235.133,-831.333)">
			<title>Gateway.1001</title>
			<path d="M13.27 1521.46 C5.94 1521.46 0 1527.4 0 1534.73 C0 1542.06 5.94 1548 13.27 1548 C20.6 1548 26.54 1542.06 26.54
						 1534.73 C26.54 1527.4 20.6 1521.46 13.27 1521.46 ZM12.06 1527.49 L12.06 1523.27 L14.48 1523.27 L14.48 1527.49
						 L15.68 1527.49 L13.27 1532.37 L10.86 1527.49 L12.06 1527.49 ZM6.63 1537.14 L1.76 1534.73 L6.63 1532.32 L6.63
						 1533.52 L10.86 1533.52 L10.86 1535.94 L6.63 1535.94 L6.63 1537.14 ZM14.48 1541.37 L14.48 1545.59 L12.06
						 1545.59 L12.06 1541.37 L10.86 1541.37 L13.27 1536.49 L15.68 1541.37 L14.48 1541.37 ZM19.9 1537.14 L19.9
						 1535.94 L15.68 1535.94 L15.68 1533.52 L19.9 1533.52 L19.9 1532.32 L24.78 1534.73 L19.9 1537.14 Z"
					class="st19"/>
		</g>
		<g id="shape216-130" v:mID="216" v:groupContext="shape" v:layerMember="0" transform="translate(164.517,-831.333)">
			<title>Gateway.234</title>
			<path d="M13.27 1521.46 C5.94 1521.46 0 1527.4 0 1534.73 C0 1542.06 5.94 1548 13.27 1548 C20.6 1548 26.54 1542.06 26.54
						 1534.73 C26.54 1527.4 20.6 1521.46 13.27 1521.46 ZM12.06 1527.49 L12.06 1523.27 L14.48 1523.27 L14.48 1527.49
						 L15.68 1527.49 L13.27 1532.37 L10.86 1527.49 L12.06 1527.49 ZM6.63 1537.14 L1.76 1534.73 L6.63 1532.32 L6.63
						 1533.52 L10.86 1533.52 L10.86 1535.94 L6.63 1535.94 L6.63 1537.14 ZM14.48 1541.37 L14.48 1545.59 L12.06
						 1545.59 L12.06 1541.37 L10.86 1541.37 L13.27 1536.49 L15.68 1541.37 L14.48 1541.37 ZM19.9 1537.14 L19.9
						 1535.94 L15.68 1535.94 L15.68 1533.52 L19.9 1533.52 L19.9 1532.32 L24.78 1534.73 L19.9 1537.14 Z"
					class="st19"/>
		</g>
		<g id="shape217-132" v:mID="217" v:groupContext="shape" transform="translate(117.903,-899.757)">
			<title>Sheet.217</title>
			<desc>On-premises network</desc>
			<v:textBlock v:margins="rect(4,4,4,4)"/>
			<v:textRect cx="45.9388" cy="1540.75" width="91.88" height="14.5"/>
			<rect x="0" y="1533.5" width="91.8777" height="14.5" class="st4"/>
			<text x="7.91" y="1543.15" class="st10" v:langID="1033"><v:paragraph v:horizAlign="1"/><v:tabList/>On-premises network</text>		</g>
		<g id="group218-135" transform="translate(131.33,-804.116)" v:mID="218" v:groupContext="group">
			<title>Sheet.218</title>
			<g id="group219-136" transform="translate(0,-57.2455)" v:mID="219" v:groupContext="group" v:layerMember="0">
				<title>Computer.224</title>
				<g id="shape220-137" v:mID="220" v:groupContext="shape" v:layerMember="0" transform="translate(3.65086,0)">
					<title>Sheet.220</title>
					<path d="M11.28 1543.06 L10.71 1543.06 L5.12 1543.06 L4.83 1543.06 C5.6 1546.02 4.56 1546.45 0 1546.45 L0 1548
								 L5.8 1548 L10.04 1548 L15.51 1548 L15.51 1546.45 C10.95 1546.45 10.5 1546.02 11.28 1543.06 Z"
							class="st9"/>
				</g>
				<g id="shape221-139" v:mID="221" v:groupContext="shape" v:layerMember="0" transform="translate(0,-4.94247)">
					<title>Sheet.221</title>
					<path d="M22.29 1529.22 L1.29 1529.22 C0.58 1529.22 0 1529.91 0 1530.68 L0 1546.55 C0 1547.32 0.58 1548 1.29
								 1548 L22.29 1548 C23 1548 23.73 1547.32 23.73 1546.55 L23.73 1530.68 C23.73 1529.91 23 1529.22 22.29
								 1529.22 ZM21.9 1531.19 L21.9 1546.02 L1.83 1546.02 L1.83 1531.19 L21.96 1531.16 L21.9 1531.19 Z"
							class="st9"/>
				</g>
			</g>
			<g id="group222-141" transform="translate(0,-28.6227)" v:mID="222" v:groupContext="group" v:layerMember="0">
				<title>Computer.227</title>
				<g id="shape223-142" v:mID="223" v:groupContext="shape" v:layerMember="0" transform="translate(3.65086,0)">
					<title>Sheet.223</title>
					<path d="M11.28 1543.06 L10.71 1543.06 L5.12 1543.06 L4.83 1543.06 C5.6 1546.02 4.56 1546.45 0 1546.45 L0 1548
								 L5.8 1548 L10.04 1548 L15.51 1548 L15.51 1546.45 C10.95 1546.45 10.5 1546.02 11.28 1543.06 Z"
							class="st9"/>
				</g>
				<g id="shape224-144" v:mID="224" v:groupContext="shape" v:layerMember="0" transform="translate(0,-4.94247)">
					<title>Sheet.224</title>
					<path d="M22.29 1529.22 L1.29 1529.22 C0.58 1529.22 0 1529.91 0 1530.68 L0 1546.55 C0 1547.32 0.58 1548 1.29
								 1548 L22.29 1548 C23 1548 23.73 1547.32 23.73 1546.55 L23.73 1530.68 C23.73 1529.91 23 1529.22 22.29
								 1529.22 ZM21.9 1531.19 L21.9 1546.02 L1.83 1546.02 L1.83 1531.19 L21.96 1531.16 L21.9 1531.19 Z"
							class="st9"/>
				</g>
			</g>
			<g id="group225-146" v:mID="225" v:groupContext="group" v:layerMember="0">
				<title>Computer.230</title>
				<g id="shape226-147" v:mID="226" v:groupContext="shape" v:layerMember="0" transform="translate(3.65086,0)">
					<title>Sheet.226</title>
					<path d="M11.28 1543.06 L10.71 1543.06 L5.12 1543.06 L4.83 1543.06 C5.6 1546.02 4.56 1546.45 0 1546.45 L0 1548
								 L5.8 1548 L10.04 1548 L15.51 1548 L15.51 1546.45 C10.95 1546.45 10.5 1546.02 11.28 1543.06 Z"
							class="st9"/>
				</g>
				<g id="shape227-149" v:mID="227" v:groupContext="shape" v:layerMember="0" transform="translate(0,-4.94247)">
					<title>Sheet.227</title>
					<path d="M22.29 1529.22 L1.29 1529.22 C0.58 1529.22 0 1529.91 0 1530.68 L0 1546.55 C0 1547.32 0.58 1548 1.29
								 1548 L22.29 1548 C23 1548 23.73 1547.32 23.73 1546.55 L23.73 1530.68 C23.73 1529.91 23 1529.22 22.29
								 1529.22 ZM21.9 1531.19 L21.9 1546.02 L1.83 1546.02 L1.83 1531.19 L21.96 1531.16 L21.9 1531.19 Z"
							class="st9"/>
				</g>
			</g>
		</g>
		<g id="shape228-151" v:mID="228" v:groupContext="shape" transform="translate(191.357,-844.602)">
			<title>Sheet.228</title>
			<path d="M7.74 1548 L8.1 1548 L35.37 1548" class="st20"/>
		</g>
		<g id="shape229-159" v:mID="229" v:groupContext="shape" transform="translate(434.535,-899.663)">
			<title>Sheet.229</title>
			<desc>Web tier</desc>
			<v:textBlock v:margins="rect(4,4,4,4)"/>
			<v:textRect cx="45.9388" cy="1540.75" width="91.88" height="14.5"/>
			<rect x="0" y="1533.5" width="91.8777" height="14.5" class="st4"/>
			<text x="30.86" y="1543.15" class="st10" v:langID="1033"><v:paragraph v:horizAlign="1"/><v:tabList/>Web tier</text>		</g>
		<g id="shape230-162" v:mID="230" v:groupContext="shape" transform="translate(538.817,-899.663)">
			<title>Sheet.230</title>
			<desc>Business tier</desc>
			<v:textBlock v:margins="rect(4,4,4,4)"/>
			<v:textRect cx="51.0125" cy="1540.75" width="102.03" height="14.5"/>
			<rect x="0" y="1533.5" width="102.025" height="14.5" class="st4"/>
			<text x="29.14" y="1543.15" class="st10" v:langID="1033"><v:paragraph v:horizAlign="1"/><v:tabList/>Business tier</text>		</g>
		<g id="shape231-165" v:mID="231" v:groupContext="shape" transform="translate(646.839,-899.282)">
			<title>Sheet.231</title>
			<desc>Data tier</desc>
			<v:textBlock v:margins="rect(4,4,4,4)"/>
			<v:textRect cx="48.0027" cy="1540.75" width="96.01" height="14.5"/>
			<rect x="0" y="1533.5" width="96.0054" height="14.5" class="st4"/>
			<text x="32.87" y="1543.15" class="st10" v:langID="1033"><v:paragraph v:horizAlign="1"/><v:tabList/>Data tier</text>		</g>
		<g id="group232-168" transform="translate(432.471,-788.732)" v:mID="232" v:groupContext="group">
			<title>Sheet.232</title>
			<g id="shape233-169" v:mID="233" v:groupContext="shape" transform="translate(2.56522,0)">
				<title>Sheet.233</title>
				<rect x="0" y="1436.26" width="92.8125" height="111.739" class="st1"/>
			</g>
			<g id="group234-171" transform="translate(63.3729,-10.9463)" v:mID="234" v:groupContext="group">
				<title>Sheet.234</title>
				<g id="group235-172" transform="translate(-12.9337,-64.4985)" v:mID="235" v:groupContext="group">
					<title>Virtual machine</title>
					<g id="shape236-173" v:mID="236" v:groupContext="shape" transform="translate(10.6837,-11.7195)">
						<title>Sheet.236</title>
						<path d="M0 1548 L12.32 1548 L12.32 1539.74 L0 1539.74 L0 1548 ZM8.87 1545.59 L6.56 1546.93 L6.56 1544.26
									 L8.87 1542.92 L8.87 1545.59 ZM6.35 1541.21 L8.66 1542.55 L6.36 1543.88 L4.04 1542.54 L6.35 1541.21
									 ZM3.81 1542.91 L6.13 1544.24 L6.13 1546.93 L3.81 1545.59 L3.81 1542.91 Z" class="st3"/>
					</g>
					<g id="shape237-175" v:mID="237" v:groupContext="shape">
						<title>Sheet.237</title>
						<path d="M31.19 1521.89 L1.44 1521.89 C0.65 1521.89 0 1522.54 0 1523.33 L0 1546.56 C0 1547.36 0.65 1548 1.44
									 1548 L31.19 1548 C31.99 1548 32.63 1547.36 32.63 1546.56 L32.63 1523.33 C32.63 1522.54 31.99
									 1521.89 31.19 1521.89 ZM16.21 1543.51 L15.3 1546.2 C15.29 1546.23 15.28 1546.25 15.27 1546.27
									 C15.26 1546.29 15.24 1546.3 15.21 1546.31 C15.18 1546.31 15.14 1546.32 15.1 1546.32 C15.05 1546.33
									 14.98 1546.33 14.9 1546.33 C14.84 1546.33 14.79 1546.33 14.74 1546.33 C14.7 1546.32 14.66 1546.32
									 14.63 1546.32 C14.6 1546.32 14.57 1546.31 14.55 1546.3 C14.53 1546.3 14.52 1546.29 14.5 1546.28
									 C14.49 1546.27 14.48 1546.26 14.47 1546.25 C14.47 1546.23 14.46 1546.22 14.45 1546.2 L13.55
									 1543.5 C13.53 1543.45 13.52 1543.4 13.51 1543.37 C13.51 1543.33 13.52 1543.31 13.54 1543.29
									 C13.56 1543.28 13.59 1543.27 13.64 1543.26 C13.68 1543.26 13.75 1543.26 13.83 1543.26 C13.91
									 1543.26 13.96 1543.26 14 1543.26 C14.04 1543.26 14.08 1543.27 14.1 1543.28 C14.12 1543.28 14.13
									 1543.3 14.14 1543.31 C14.15 1543.33 14.16 1543.35 14.17 1543.37 L14.91 1545.72 L14.91 1545.72
									 L15.64 1543.38 C15.64 1543.36 15.65 1543.33 15.66 1543.32 C15.67 1543.3 15.68 1543.29 15.71
									 1543.28 C15.73 1543.27 15.76 1543.26 15.8 1543.26 C15.85 1543.26 15.9 1543.26 15.98 1543.26
									 C16.05 1543.26 16.11 1543.26 16.15 1543.26 C16.19 1543.27 16.21 1543.28 16.23 1543.3 C16.24
									 1543.32 16.25 1543.34 16.24 1543.37 C16.24 1543.41 16.23 1543.45 16.21 1543.51 ZM20.18 1546.23
									 C20.18 1546.24 20.18 1546.26 20.17 1546.27 C20.16 1546.28 20.14 1546.29 20.12 1546.3 C20.1 1546.31
									 20.07 1546.32 20.03 1546.32 C19.99 1546.32 19.94 1546.33 19.89 1546.33 C19.83 1546.33 19.78
									 1546.32 19.74 1546.32 C19.71 1546.32 19.68 1546.31 19.66 1546.3 C19.63 1546.29 19.62 1546.28
									 19.61 1546.27 C19.6 1546.26 19.59 1546.24 19.59 1546.23 L19.59 1543.75 L19.59 1543.75 L18.71
									 1546.23 C18.7 1546.25 18.69 1546.26 18.68 1546.28 C18.66 1546.29 18.64 1546.3 18.62 1546.31
									 C18.6 1546.32 18.56 1546.32 18.53 1546.32 C18.49 1546.33 18.44 1546.33 18.39 1546.33 C18.34
									 1546.33 18.29 1546.33 18.25 1546.32 C18.22 1546.32 18.18 1546.31 18.16 1546.3 C18.14 1546.29
									 18.12 1546.28 18.1 1546.27 C18.09 1546.26 18.08 1546.24 18.07 1546.23 L17.22 1543.75 L17.22
									 1543.75 L17.22 1546.23 C17.22 1546.24 17.21 1546.26 17.21 1546.27 C17.2 1546.28 17.18 1546.29
									 17.16 1546.3 C17.13 1546.31 17.1 1546.32 17.07 1546.32 C17.03 1546.32 16.98 1546.33 16.92 1546.33
									 C16.87 1546.33 16.82 1546.32 16.78 1546.32 C16.75 1546.32 16.72 1546.31 16.69 1546.3 C16.67
									 1546.29 16.65 1546.28 16.65 1546.27 C16.64 1546.26 16.63 1546.24 16.63 1546.23 L16.63 1543.52
									 C16.63 1543.44 16.65 1543.38 16.7 1543.33 C16.74 1543.29 16.79 1543.27 16.87 1543.27 L17.27
									 1543.27 C17.34 1543.27 17.4 1543.28 17.46 1543.29 C17.51 1543.3 17.55 1543.32 17.59 1543.35
									 C17.63 1543.38 17.66 1543.41 17.68 1543.46 C17.71 1543.5 17.73 1543.56 17.75 1543.62 L18.41
									 1545.43 L18.42 1545.43 L19.1 1543.63 C19.12 1543.56 19.14 1543.51 19.17 1543.46 C19.19 1543.41
									 19.22 1543.38 19.25 1543.35 C19.28 1543.32 19.32 1543.3 19.36 1543.29 C19.41 1543.28 19.46 1543.27
									 19.52 1543.27 L19.93 1543.27 C19.98 1543.27 20.01 1543.28 20.04 1543.29 C20.07 1543.3 20.1 1543.31
									 20.12 1543.34 C20.14 1543.36 20.15 1543.38 20.16 1543.41 C20.17 1543.44 20.18 1543.48 20.18
									 1543.52 L20.18 1546.23 L20.18 1546.23 ZM24.01 1536.5 C24.01 1536.94 23.67 1537.28 23.23 1537.28
									 L18.75 1537.28 C18.32 1539.04 18.52 1539.25 21.55 1539.25 L21.55 1539.97 L18.02 1539.97 L15.45
									 1539.97 L12.14 1539.97 L12.14 1539.25 C14.86 1539.25 15.31 1539.04 14.88 1537.28 L10.46 1537.28
									 C10.03 1537.28 9.68 1536.94 9.68 1536.5 L9.68 1527.8 C9.68 1527.37 10.03 1527.01 10.46 1527.01
									 L23.23 1527.01 C23.67 1527.01 24.01 1527.37 24.01 1527.8 L24.01 1536.5 L24.01 1536.5 Z"
								class="st3"/>
					</g>
				</g>
				<g id="group238-177" transform="translate(-12.9337,-32.2492)" v:mID="238" v:groupContext="group">
					<title>Virtual machine.76</title>
					<g id="shape239-178" v:mID="239" v:groupContext="shape" transform="translate(10.6837,-11.7195)">
						<title>Sheet.239</title>
						<path d="M0 1548 L12.32 1548 L12.32 1539.74 L0 1539.74 L0 1548 ZM8.87 1545.59 L6.56 1546.93 L6.56 1544.26
									 L8.87 1542.92 L8.87 1545.59 ZM6.35 1541.21 L8.66 1542.55 L6.36 1543.88 L4.04 1542.54 L6.35 1541.21
									 ZM3.81 1542.91 L6.13 1544.24 L6.13 1546.93 L3.81 1545.59 L3.81 1542.91 Z" class="st3"/>
					</g>
					<g id="shape240-180" v:mID="240" v:groupContext="shape">
						<title>Sheet.240</title>
						<path d="M31.19 1521.89 L1.44 1521.89 C0.65 1521.89 0 1522.54 0 1523.33 L0 1546.56 C0 1547.36 0.65 1548 1.44
									 1548 L31.19 1548 C31.99 1548 32.63 1547.36 32.63 1546.56 L32.63 1523.33 C32.63 1522.54 31.99
									 1521.89 31.19 1521.89 ZM16.21 1543.51 L15.3 1546.2 C15.29 1546.23 15.28 1546.25 15.27 1546.27
									 C15.26 1546.29 15.24 1546.3 15.21 1546.31 C15.18 1546.31 15.14 1546.32 15.1 1546.32 C15.05 1546.33
									 14.98 1546.33 14.9 1546.33 C14.84 1546.33 14.79 1546.33 14.74 1546.33 C14.7 1546.32 14.66 1546.32
									 14.63 1546.32 C14.6 1546.32 14.57 1546.31 14.55 1546.3 C14.53 1546.3 14.52 1546.29 14.5 1546.28
									 C14.49 1546.27 14.48 1546.26 14.47 1546.25 C14.47 1546.23 14.46 1546.22 14.45 1546.2 L13.55
									 1543.5 C13.53 1543.45 13.52 1543.4 13.51 1543.37 C13.51 1543.33 13.52 1543.31 13.54 1543.29
									 C13.56 1543.28 13.59 1543.27 13.64 1543.26 C13.68 1543.26 13.75 1543.26 13.83 1543.26 C13.91
									 1543.26 13.96 1543.26 14 1543.26 C14.04 1543.26 14.08 1543.27 14.1 1543.28 C14.12 1543.28 14.13
									 1543.3 14.14 1543.31 C14.15 1543.33 14.16 1543.35 14.17 1543.37 L14.91 1545.72 L14.91 1545.72
									 L15.64 1543.38 C15.64 1543.36 15.65 1543.33 15.66 1543.32 C15.67 1543.3 15.68 1543.29 15.71
									 1543.28 C15.73 1543.27 15.76 1543.26 15.8 1543.26 C15.85 1543.26 15.9 1543.26 15.98 1543.26
									 C16.05 1543.26 16.11 1543.26 16.15 1543.26 C16.19 1543.27 16.21 1543.28 16.23 1543.3 C16.24
									 1543.32 16.25 1543.34 16.24 1543.37 C16.24 1543.41 16.23 1543.45 16.21 1543.51 ZM20.18 1546.23
									 C20.18 1546.24 20.18 1546.26 20.17 1546.27 C20.16 1546.28 20.14 1546.29 20.12 1546.3 C20.1 1546.31
									 20.07 1546.32 20.03 1546.32 C19.99 1546.32 19.94 1546.33 19.89 1546.33 C19.83 1546.33 19.78
									 1546.32 19.74 1546.32 C19.71 1546.32 19.68 1546.31 19.66 1546.3 C19.63 1546.29 19.62 1546.28
									 19.61 1546.27 C19.6 1546.26 19.59 1546.24 19.59 1546.23 L19.59 1543.75 L19.59 1543.75 L18.71
									 1546.23 C18.7 1546.25 18.69 1546.26 18.68 1546.28 C18.66 1546.29 18.64 1546.3 18.62 1546.31
									 C18.6 1546.32 18.56 1546.32 18.53 1546.32 C18.49 1546.33 18.44 1546.33 18.39 1546.33 C18.34
									 1546.33 18.29 1546.33 18.25 1546.32 C18.22 1546.32 18.18 1546.31 18.16 1546.3 C18.14 1546.29
									 18.12 1546.28 18.1 1546.27 C18.09 1546.26 18.08 1546.24 18.07 1546.23 L17.22 1543.75 L17.22
									 1543.75 L17.22 1546.23 C17.22 1546.24 17.21 1546.26 17.21 1546.27 C17.2 1546.28 17.18 1546.29
									 17.16 1546.3 C17.13 1546.31 17.1 1546.32 17.07 1546.32 C17.03 1546.32 16.98 1546.33 16.92 1546.33
									 C16.87 1546.33 16.82 1546.32 16.78 1546.32 C16.75 1546.32 16.72 1546.31 16.69 1546.3 C16.67
									 1546.29 16.65 1546.28 16.65 1546.27 C16.64 1546.26 16.63 1546.24 16.63 1546.23 L16.63 1543.52
									 C16.63 1543.44 16.65 1543.38 16.7 1543.33 C16.74 1543.29 16.79 1543.27 16.87 1543.27 L17.27
									 1543.27 C17.34 1543.27 17.4 1543.28 17.46 1543.29 C17.51 1543.3 17.55 1543.32 17.59 1543.35
									 C17.63 1543.38 17.66 1543.41 17.68 1543.46 C17.71 1543.5 17.73 1543.56 17.75 1543.62 L18.41
									 1545.43 L18.42 1545.43 L19.1 1543.63 C19.12 1543.56 19.14 1543.51 19.17 1543.46 C19.19 1543.41
									 19.22 1543.38 19.25 1543.35 C19.28 1543.32 19.32 1543.3 19.36 1543.29 C19.41 1543.28 19.46 1543.27
									 19.52 1543.27 L19.93 1543.27 C19.98 1543.27 20.01 1543.28 20.04 1543.29 C20.07 1543.3 20.1 1543.31
									 20.12 1543.34 C20.14 1543.36 20.15 1543.38 20.16 1543.41 C20.17 1543.44 20.18 1543.48 20.18
									 1543.52 L20.18 1546.23 L20.18 1546.23 ZM24.01 1536.5 C24.01 1536.94 23.67 1537.28 23.23 1537.28
									 L18.75 1537.28 C18.32 1539.04 18.52 1539.25 21.55 1539.25 L21.55 1539.97 L18.02 1539.97 L15.45
									 1539.97 L12.14 1539.97 L12.14 1539.25 C14.86 1539.25 15.31 1539.04 14.88 1537.28 L10.46 1537.28
									 C10.03 1537.28 9.68 1536.94 9.68 1536.5 L9.68 1527.8 C9.68 1527.37 10.03 1527.01 10.46 1527.01
									 L23.23 1527.01 C23.67 1527.01 24.01 1527.37 24.01 1527.8 L24.01 1536.5 L24.01 1536.5 Z"
								class="st3"/>
					</g>
				</g>
				<g id="group241-182" transform="translate(-12.9337,-2.27374E-13)" v:mID="241" v:groupContext="group">
					<title>Virtual machine.79</title>
					<g id="shape242-183" v:mID="242" v:groupContext="shape" transform="translate(10.6837,-11.7195)">
						<title>Sheet.242</title>
						<path d="M0 1548 L12.32 1548 L12.32 1539.74 L0 1539.74 L0 1548 ZM8.87 1545.59 L6.56 1546.93 L6.56 1544.26
									 L8.87 1542.92 L8.87 1545.59 ZM6.35 1541.21 L8.66 1542.55 L6.36 1543.88 L4.04 1542.54 L6.35 1541.21
									 ZM3.81 1542.91 L6.13 1544.24 L6.13 1546.93 L3.81 1545.59 L3.81 1542.91 Z" class="st3"/>
					</g>
					<g id="shape243-185" v:mID="243" v:groupContext="shape">
						<title>Sheet.243</title>
						<path d="M31.19 1521.89 L1.44 1521.89 C0.65 1521.89 0 1522.54 0 1523.33 L0 1546.56 C0 1547.36 0.65 1548 1.44
									 1548 L31.19 1548 C31.99 1548 32.63 1547.36 32.63 1546.56 L32.63 1523.33 C32.63 1522.54 31.99
									 1521.89 31.19 1521.89 ZM16.21 1543.51 L15.3 1546.2 C15.29 1546.23 15.28 1546.25 15.27 1546.27
									 C15.26 1546.29 15.24 1546.3 15.21 1546.31 C15.18 1546.31 15.14 1546.32 15.1 1546.32 C15.05 1546.33
									 14.98 1546.33 14.9 1546.33 C14.84 1546.33 14.79 1546.33 14.74 1546.33 C14.7 1546.32 14.66 1546.32
									 14.63 1546.32 C14.6 1546.32 14.57 1546.31 14.55 1546.3 C14.53 1546.3 14.52 1546.29 14.5 1546.28
									 C14.49 1546.27 14.48 1546.26 14.47 1546.25 C14.47 1546.23 14.46 1546.22 14.45 1546.2 L13.55
									 1543.5 C13.53 1543.45 13.52 1543.4 13.51 1543.37 C13.51 1543.33 13.52 1543.31 13.54 1543.29
									 C13.56 1543.28 13.59 1543.27 13.64 1543.26 C13.68 1543.26 13.75 1543.26 13.83 1543.26 C13.91
									 1543.26 13.96 1543.26 14 1543.26 C14.04 1543.26 14.08 1543.27 14.1 1543.28 C14.12 1543.28 14.13
									 1543.3 14.14 1543.31 C14.15 1543.33 14.16 1543.35 14.17 1543.37 L14.91 1545.72 L14.91 1545.72
									 L15.64 1543.38 C15.64 1543.36 15.65 1543.33 15.66 1543.32 C15.67 1543.3 15.68 1543.29 15.71
									 1543.28 C15.73 1543.27 15.76 1543.26 15.8 1543.26 C15.85 1543.26 15.9 1543.26 15.98 1543.26
									 C16.05 1543.26 16.11 1543.26 16.15 1543.26 C16.19 1543.27 16.21 1543.28 16.23 1543.3 C16.24
									 1543.32 16.25 1543.34 16.24 1543.37 C16.24 1543.41 16.23 1543.45 16.21 1543.51 ZM20.18 1546.23
									 C20.18 1546.24 20.18 1546.26 20.17 1546.27 C20.16 1546.28 20.14 1546.29 20.12 1546.3 C20.1 1546.31
									 20.07 1546.32 20.03 1546.32 C19.99 1546.32 19.94 1546.33 19.89 1546.33 C19.83 1546.33 19.78
									 1546.32 19.74 1546.32 C19.71 1546.32 19.68 1546.31 19.66 1546.3 C19.63 1546.29 19.62 1546.28
									 19.61 1546.27 C19.6 1546.26 19.59 1546.24 19.59 1546.23 L19.59 1543.75 L19.59 1543.75 L18.71
									 1546.23 C18.7 1546.25 18.69 1546.26 18.68 1546.28 C18.66 1546.29 18.64 1546.3 18.62 1546.31
									 C18.6 1546.32 18.56 1546.32 18.53 1546.32 C18.49 1546.33 18.44 1546.33 18.39 1546.33 C18.34
									 1546.33 18.29 1546.33 18.25 1546.32 C18.22 1546.32 18.18 1546.31 18.16 1546.3 C18.14 1546.29
									 18.12 1546.28 18.1 1546.27 C18.09 1546.26 18.08 1546.24 18.07 1546.23 L17.22 1543.75 L17.22
									 1543.75 L17.22 1546.23 C17.22 1546.24 17.21 1546.26 17.21 1546.27 C17.2 1546.28 17.18 1546.29
									 17.16 1546.3 C17.13 1546.31 17.1 1546.32 17.07 1546.32 C17.03 1546.32 16.98 1546.33 16.92 1546.33
									 C16.87 1546.33 16.82 1546.32 16.78 1546.32 C16.75 1546.32 16.72 1546.31 16.69 1546.3 C16.67
									 1546.29 16.65 1546.28 16.65 1546.27 C16.64 1546.26 16.63 1546.24 16.63 1546.23 L16.63 1543.52
									 C16.63 1543.44 16.65 1543.38 16.7 1543.33 C16.74 1543.29 16.79 1543.27 16.87 1543.27 L17.27
									 1543.27 C17.34 1543.27 17.4 1543.28 17.46 1543.29 C17.51 1543.3 17.55 1543.32 17.59 1543.35
									 C17.63 1543.38 17.66 1543.41 17.68 1543.46 C17.71 1543.5 17.73 1543.56 17.75 1543.62 L18.41
									 1545.43 L18.42 1545.43 L19.1 1543.63 C19.12 1543.56 19.14 1543.51 19.17 1543.46 C19.19 1543.41
									 19.22 1543.38 19.25 1543.35 C19.28 1543.32 19.32 1543.3 19.36 1543.29 C19.41 1543.28 19.46 1543.27
									 19.52 1543.27 L19.93 1543.27 C19.98 1543.27 20.01 1543.28 20.04 1543.29 C20.07 1543.3 20.1 1543.31
									 20.12 1543.34 C20.14 1543.36 20.15 1543.38 20.16 1543.41 C20.17 1543.44 20.18 1543.48 20.18
									 1543.52 L20.18 1546.23 L20.18 1546.23 ZM24.01 1536.5 C24.01 1536.94 23.67 1537.28 23.23 1537.28
									 L18.75 1537.28 C18.32 1539.04 18.52 1539.25 21.55 1539.25 L21.55 1539.97 L18.02 1539.97 L15.45
									 1539.97 L12.14 1539.97 L12.14 1539.25 C14.86 1539.25 15.31 1539.04 14.88 1537.28 L10.46 1537.28
									 C10.03 1537.28 9.68 1536.94 9.68 1536.5 L9.68 1527.8 C9.68 1527.37 10.03 1527.01 10.46 1527.01
									 L23.23 1527.01 C23.67 1527.01 24.01 1527.37 24.01 1527.8 L24.01 1536.5 L24.01 1536.5 Z"
								class="st3"/>
					</g>
				</g>
			</g>
			<g id="shape244-187" v:mID="244" v:groupContext="shape" transform="translate(44.6802,-4.5)">
				<title>Sheet.244</title>
				<path d="M0 1548 L44.15 1548 L44.15 1445.26 L0 1445.26 L0 1548 Z" class="st21"/>
			</g>
			<g id="group245-189" transform="translate(3.63302,-88.7635)" v:mID="245" v:groupContext="group">
				<title>Sheet.245</title>
				<g id="group246-190" transform="translate(3.08463,-0.700182)" v:mID="246" v:groupContext="group">
					<title>Sheet.246</title>
					<g id="shape247-191" v:mID="247" v:groupContext="shape" v:layerMember="0">
						<title>Lock, protected.1135</title>
						<path d="M14.31 1536.02 L13.31 1536.02 L13.31 1534.16 C13.31 1530.24 10.81 1528.23 7.9 1528.23 L7.42 1528.23
									 C4.45 1528.23 2.01 1530.19 2.01 1534.16 L2.01 1536.02 L1.01 1536.02 C0.58 1536.02 0 1536.6 0
									 1537.03 L0 1546.99 C-0 1547.42 0.58 1548 1.01 1548 L14.31 1548 C14.74 1548 15.32 1547.42 15.32
									 1546.99 L15.32 1537.03 C15.32 1536.6 14.74 1536.02 14.31 1536.02 ZM8.43 1541.9 L8.43 1546.04
									 L6.94 1546.04 L6.94 1541.9 C6.36 1541.64 5.94 1541.06 5.94 1540.37 C5.94 1539.41 6.73 1538.62
									 7.69 1538.62 C8.64 1538.62 9.44 1539.41 9.44 1540.37 C9.38 1541 9.01 1541.59 8.43 1541.9 ZM11.45
									 1536.02 L3.87 1536.02 L3.87 1534.16 C3.87 1531.67 5.2 1529.98 7.42 1529.98 L7.9 1529.98 C10.18
									 1529.98 11.45 1531.67 11.45 1534.16 L11.45 1536.02 Z" class="st3"/>
					</g>
					<g id="shape248-193" v:mID="248" v:groupContext="shape" v:layerMember="0"
							transform="translate(2.28102,-0.389869)">
						<title>Sheet.248</title>
						<rect x="0" y="1537.63" width="10.7581" height="10.3682" class="st3"/>
					</g>
				</g>
				<g id="shape249-195" v:mID="249" v:groupContext="shape">
					<title>Sheet.249</title>
					<desc>NSG</desc>
					<v:textBlock v:margins="rect(0,0,0,0)"/>
					<v:textRect cx="10.7447" cy="1541.68" width="21.49" height="12.6408"/>
					<rect x="0" y="1535.36" width="21.4894" height="12.6408" class="st4"/>
					<text x="4.72" y="1543.48" class="st5" v:langID="1033"><v:paragraph v:horizAlign="1"/><v:tabList/>NSG</text>				</g>
			</g>
			<g id="shape250-198" v:mID="250" v:groupContext="shape" transform="translate(8.6794,-57.3186) rotate(-0.877175)">
				<title>Sheet.250</title>
				<path d="M0 1548 L10.78 1548" class="st11"/>
			</g>
			<g id="shape251-203" v:mID="251" v:groupContext="shape" transform="translate(-1350.02,793.871) rotate(-63.2551)">
				<title>Sheet.251</title>
				<path d="M0 1548 L30.79 1548" class="st11"/>
			</g>
			<g id="shape252-208" v:mID="252" v:groupContext="shape" transform="translate(1410.37,785.205) rotate(62.8954)">
				<title>Sheet.252</title>
				<path d="M0 1548 L30.35 1548" class="st11"/>
			</g>
			<g id="group253-213" transform="translate(-6.39488E-14,-40.5)" v:mID="253" v:groupContext="group">
				<title>Azure load balancer.194</title>
				<g id="group254-214" transform="translate(2.6,-2.53462)" v:mID="254" v:groupContext="group">
					<title>Sheet.254</title>
					<g id="shape255-215" v:mID="255" v:groupContext="shape">
						<title>Sheet.255</title>
						<path d="M28 1531.71 L16.29 1520 C15.78 1519.49 15.15 1519.2 14.4 1519.2 C13.71 1519.2 13.02 1519.49 12.51
									 1520 L0.8 1531.71 C0.29 1532.22 0 1532.85 0 1533.6 C-0 1534.29 0.29 1534.98 0.8 1535.49 L12.51
									 1547.2 C13.02 1547.71 13.65 1548 14.4 1548 C15.09 1548 15.78 1547.71 16.29 1547.2 L28 1535.49
									 C28.51 1534.98 28.8 1534.35 28.8 1533.6 C28.74 1532.85 28.46 1532.17 28 1531.71 ZM22.43 1537.16
									 L22.43 1534.52 L18.42 1534.52 C18.01 1535.89 16.92 1536.98 15.55 1537.39 L15.55 1540.08 C16.12
									 1540.48 16.98 1541.4 16.98 1542.38 C16.98 1543.81 15.83 1544.96 14.4 1544.96 C12.97 1544.96
									 11.82 1543.81 11.82 1542.38 C11.82 1541.35 12.68 1540.48 13.25 1540.08 L13.25 1537.44 C11.88
									 1537.04 10.79 1535.95 10.38 1534.58 L6.37 1534.58 L6.37 1537.27 L2.58 1533.49 L6.37 1529.7 L6.37
									 1532.34 L10.38 1532.34 C10.79 1530.96 11.88 1529.87 13.25 1529.47 L13.25 1525.63 L10.61 1525.63
									 L14.4 1521.84 L18.19 1525.63 L15.55 1525.63 L15.55 1529.47 C16.92 1529.87 18.01 1530.96 18.42
									 1532.34 L22.43 1532.34 L22.43 1529.64 L26.22 1533.43 L22.43 1537.16 Z" class="st3"/>
					</g>
					<g id="shape256-217" v:mID="256" v:groupContext="shape" transform="translate(11.3594,-11.5888)">
						<title>Sheet.256</title>
						<path d="M3.04 1541.92 C1.38 1541.92 0 1543.3 0 1544.96 C0 1546.62 1.38 1548 3.04 1548 C4.7 1548 6.08 1546.62
									 6.08 1544.96 C6.08 1543.3 4.7 1541.92 3.04 1541.92 Z" class="st3"/>
					</g>
				</g>
			</g>
		</g>
		<g id="shape257-219" v:mID="257" v:groupContext="shape" transform="translate(583.564,-844.753) rotate(2.04937)">
			<title>Sheet.257</title>
			<path d="M0 1548 L5.04 1548" class="st11"/>
		</g>
		<g id="shape258-224" v:mID="258" v:groupContext="shape" transform="translate(672.819,-845.262) rotate(1.42893)">
			<title>Sheet.258</title>
			<path d="M0 1548 L9.66 1548" class="st11"/>
		</g>
		<g id="group259-229" transform="translate(646.839,-787.863)" v:mID="259" v:groupContext="group">
			<title>Sheet.259</title>
			<g id="shape260-230" v:mID="260" v:groupContext="shape" transform="translate(2.56522,0)">
				<title>Sheet.260</title>
				<rect x="0" y="1436.26" width="92.8125" height="111.739" class="st1"/>
			</g>
			<g id="group261-232" transform="translate(63.3729,-10.9463)" v:mID="261" v:groupContext="group">
				<title>Sheet.261</title>
				<g id="group262-233" transform="translate(-12.9337,-64.4985)" v:mID="262" v:groupContext="group">
					<title>Virtual machine</title>
					<g id="shape263-234" v:mID="263" v:groupContext="shape" transform="translate(10.6837,-11.7195)">
						<title>Sheet.263</title>
						<path d="M0 1548 L12.32 1548 L12.32 1539.74 L0 1539.74 L0 1548 ZM8.87 1545.59 L6.56 1546.93 L6.56 1544.26
									 L8.87 1542.92 L8.87 1545.59 ZM6.35 1541.21 L8.66 1542.55 L6.36 1543.88 L4.04 1542.54 L6.35 1541.21
									 ZM3.81 1542.91 L6.13 1544.24 L6.13 1546.93 L3.81 1545.59 L3.81 1542.91 Z" class="st3"/>
					</g>
					<g id="shape264-236" v:mID="264" v:groupContext="shape">
						<title>Sheet.264</title>
						<path d="M31.19 1521.89 L1.44 1521.89 C0.65 1521.89 0 1522.54 0 1523.33 L0 1546.56 C0 1547.36 0.65 1548 1.44
									 1548 L31.19 1548 C31.99 1548 32.63 1547.36 32.63 1546.56 L32.63 1523.33 C32.63 1522.54 31.99
									 1521.89 31.19 1521.89 ZM16.21 1543.51 L15.3 1546.2 C15.29 1546.23 15.28 1546.25 15.27 1546.27
									 C15.26 1546.29 15.24 1546.3 15.21 1546.31 C15.18 1546.31 15.14 1546.32 15.1 1546.32 C15.05 1546.33
									 14.98 1546.33 14.9 1546.33 C14.84 1546.33 14.79 1546.33 14.74 1546.33 C14.7 1546.32 14.66 1546.32
									 14.63 1546.32 C14.6 1546.32 14.57 1546.31 14.55 1546.3 C14.53 1546.3 14.52 1546.29 14.5 1546.28
									 C14.49 1546.27 14.48 1546.26 14.47 1546.25 C14.47 1546.23 14.46 1546.22 14.45 1546.2 L13.55
									 1543.5 C13.53 1543.45 13.52 1543.4 13.51 1543.37 C13.51 1543.33 13.52 1543.31 13.54 1543.29
									 C13.56 1543.28 13.59 1543.27 13.64 1543.26 C13.68 1543.26 13.75 1543.26 13.83 1543.26 C13.91
									 1543.26 13.96 1543.26 14 1543.26 C14.04 1543.26 14.08 1543.27 14.1 1543.28 C14.12 1543.28 14.13
									 1543.3 14.14 1543.31 C14.15 1543.33 14.16 1543.35 14.17 1543.37 L14.91 1545.72 L14.91 1545.72
									 L15.64 1543.38 C15.64 1543.36 15.65 1543.33 15.66 1543.32 C15.67 1543.3 15.68 1543.29 15.71
									 1543.28 C15.73 1543.27 15.76 1543.26 15.8 1543.26 C15.85 1543.26 15.9 1543.26 15.98 1543.26
									 C16.05 1543.26 16.11 1543.26 16.15 1543.26 C16.19 1543.27 16.21 1543.28 16.23 1543.3 C16.24
									 1543.32 16.25 1543.34 16.24 1543.37 C16.24 1543.41 16.23 1543.45 16.21 1543.51 ZM20.18 1546.23
									 C20.18 1546.24 20.18 1546.26 20.17 1546.27 C20.16 1546.28 20.14 1546.29 20.12 1546.3 C20.1 1546.31
									 20.07 1546.32 20.03 1546.32 C19.99 1546.32 19.94 1546.33 19.89 1546.33 C19.83 1546.33 19.78
									 1546.32 19.74 1546.32 C19.71 1546.32 19.68 1546.31 19.66 1546.3 C19.63 1546.29 19.62 1546.28
									 19.61 1546.27 C19.6 1546.26 19.59 1546.24 19.59 1546.23 L19.59 1543.75 L19.59 1543.75 L18.71
									 1546.23 C18.7 1546.25 18.69 1546.26 18.68 1546.28 C18.66 1546.29 18.64 1546.3 18.62 1546.31
									 C18.6 1546.32 18.56 1546.32 18.53 1546.32 C18.49 1546.33 18.44 1546.33 18.39 1546.33 C18.34
									 1546.33 18.29 1546.33 18.25 1546.32 C18.22 1546.32 18.18 1546.31 18.16 1546.3 C18.14 1546.29
									 18.12 1546.28 18.1 1546.27 C18.09 1546.26 18.08 1546.24 18.07 1546.23 L17.22 1543.75 L17.22
									 1543.75 L17.22 1546.23 C17.22 1546.24 17.21 1546.26 17.21 1546.27 C17.2 1546.28 17.18 1546.29
									 17.16 1546.3 C17.13 1546.31 17.1 1546.32 17.07 1546.32 C17.03 1546.32 16.98 1546.33 16.92 1546.33
									 C16.87 1546.33 16.82 1546.32 16.78 1546.32 C16.75 1546.32 16.72 1546.31 16.69 1546.3 C16.67
									 1546.29 16.65 1546.28 16.65 1546.27 C16.64 1546.26 16.63 1546.24 16.63 1546.23 L16.63 1543.52
									 C16.63 1543.44 16.65 1543.38 16.7 1543.33 C16.74 1543.29 16.79 1543.27 16.87 1543.27 L17.27
									 1543.27 C17.34 1543.27 17.4 1543.28 17.46 1543.29 C17.51 1543.3 17.55 1543.32 17.59 1543.35
									 C17.63 1543.38 17.66 1543.41 17.68 1543.46 C17.71 1543.5 17.73 1543.56 17.75 1543.62 L18.41
									 1545.43 L18.42 1545.43 L19.1 1543.63 C19.12 1543.56 19.14 1543.51 19.17 1543.46 C19.19 1543.41
									 19.22 1543.38 19.25 1543.35 C19.28 1543.32 19.32 1543.3 19.36 1543.29 C19.41 1543.28 19.46 1543.27
									 19.52 1543.27 L19.93 1543.27 C19.98 1543.27 20.01 1543.28 20.04 1543.29 C20.07 1543.3 20.1 1543.31
									 20.12 1543.34 C20.14 1543.36 20.15 1543.38 20.16 1543.41 C20.17 1543.44 20.18 1543.48 20.18
									 1543.52 L20.18 1546.23 L20.18 1546.23 ZM24.01 1536.5 C24.01 1536.94 23.67 1537.28 23.23 1537.28
									 L18.75 1537.28 C18.32 1539.04 18.52 1539.25 21.55 1539.25 L21.55 1539.97 L18.02 1539.97 L15.45
									 1539.97 L12.14 1539.97 L12.14 1539.25 C14.86 1539.25 15.31 1539.04 14.88 1537.28 L10.46 1537.28
									 C10.03 1537.28 9.68 1536.94 9.68 1536.5 L9.68 1527.8 C9.68 1527.37 10.03 1527.01 10.46 1527.01
									 L23.23 1527.01 C23.67 1527.01 24.01 1527.37 24.01 1527.8 L24.01 1536.5 L24.01 1536.5 Z"
								class="st3"/>
					</g>
				</g>
				<g id="group265-238" transform="translate(-12.9337,-32.2492)" v:mID="265" v:groupContext="group">
					<title>Virtual machine.76</title>
					<g id="shape266-239" v:mID="266" v:groupContext="shape" transform="translate(10.6837,-11.7195)">
						<title>Sheet.266</title>
						<path d="M0 1548 L12.32 1548 L12.32 1539.74 L0 1539.74 L0 1548 ZM8.87 1545.59 L6.56 1546.93 L6.56 1544.26
									 L8.87 1542.92 L8.87 1545.59 ZM6.35 1541.21 L8.66 1542.55 L6.36 1543.88 L4.04 1542.54 L6.35 1541.21
									 ZM3.81 1542.91 L6.13 1544.24 L6.13 1546.93 L3.81 1545.59 L3.81 1542.91 Z" class="st3"/>
					</g>
					<g id="shape267-241" v:mID="267" v:groupContext="shape">
						<title>Sheet.267</title>
						<path d="M31.19 1521.89 L1.44 1521.89 C0.65 1521.89 0 1522.54 0 1523.33 L0 1546.56 C0 1547.36 0.65 1548 1.44
									 1548 L31.19 1548 C31.99 1548 32.63 1547.36 32.63 1546.56 L32.63 1523.33 C32.63 1522.54 31.99
									 1521.89 31.19 1521.89 ZM16.21 1543.51 L15.3 1546.2 C15.29 1546.23 15.28 1546.25 15.27 1546.27
									 C15.26 1546.29 15.24 1546.3 15.21 1546.31 C15.18 1546.31 15.14 1546.32 15.1 1546.32 C15.05 1546.33
									 14.98 1546.33 14.9 1546.33 C14.84 1546.33 14.79 1546.33 14.74 1546.33 C14.7 1546.32 14.66 1546.32
									 14.63 1546.32 C14.6 1546.32 14.57 1546.31 14.55 1546.3 C14.53 1546.3 14.52 1546.29 14.5 1546.28
									 C14.49 1546.27 14.48 1546.26 14.47 1546.25 C14.47 1546.23 14.46 1546.22 14.45 1546.2 L13.55
									 1543.5 C13.53 1543.45 13.52 1543.4 13.51 1543.37 C13.51 1543.33 13.52 1543.31 13.54 1543.29
									 C13.56 1543.28 13.59 1543.27 13.64 1543.26 C13.68 1543.26 13.75 1543.26 13.83 1543.26 C13.91
									 1543.26 13.96 1543.26 14 1543.26 C14.04 1543.26 14.08 1543.27 14.1 1543.28 C14.12 1543.28 14.13
									 1543.3 14.14 1543.31 C14.15 1543.33 14.16 1543.35 14.17 1543.37 L14.91 1545.72 L14.91 1545.72
									 L15.64 1543.38 C15.64 1543.36 15.65 1543.33 15.66 1543.32 C15.67 1543.3 15.68 1543.29 15.71
									 1543.28 C15.73 1543.27 15.76 1543.26 15.8 1543.26 C15.85 1543.26 15.9 1543.26 15.98 1543.26
									 C16.05 1543.26 16.11 1543.26 16.15 1543.26 C16.19 1543.27 16.21 1543.28 16.23 1543.3 C16.24
									 1543.32 16.25 1543.34 16.24 1543.37 C16.24 1543.41 16.23 1543.45 16.21 1543.51 ZM20.18 1546.23
									 C20.18 1546.24 20.18 1546.26 20.17 1546.27 C20.16 1546.28 20.14 1546.29 20.12 1546.3 C20.1 1546.31
									 20.07 1546.32 20.03 1546.32 C19.99 1546.32 19.94 1546.33 19.89 1546.33 C19.83 1546.33 19.78
									 1546.32 19.74 1546.32 C19.71 1546.32 19.68 1546.31 19.66 1546.3 C19.63 1546.29 19.62 1546.28
									 19.61 1546.27 C19.6 1546.26 19.59 1546.24 19.59 1546.23 L19.59 1543.75 L19.59 1543.75 L18.71
									 1546.23 C18.7 1546.25 18.69 1546.26 18.68 1546.28 C18.66 1546.29 18.64 1546.3 18.62 1546.31
									 C18.6 1546.32 18.56 1546.32 18.53 1546.32 C18.49 1546.33 18.44 1546.33 18.39 1546.33 C18.34
									 1546.33 18.29 1546.33 18.25 1546.32 C18.22 1546.32 18.18 1546.31 18.16 1546.3 C18.14 1546.29
									 18.12 1546.28 18.1 1546.27 C18.09 1546.26 18.08 1546.24 18.07 1546.23 L17.22 1543.75 L17.22
									 1543.75 L17.22 1546.23 C17.22 1546.24 17.21 1546.26 17.21 1546.27 C17.2 1546.28 17.18 1546.29
									 17.16 1546.3 C17.13 1546.31 17.1 1546.32 17.07 1546.32 C17.03 1546.32 16.98 1546.33 16.92 1546.33
									 C16.87 1546.33 16.82 1546.32 16.78 1546.32 C16.75 1546.32 16.72 1546.31 16.69 1546.3 C16.67
									 1546.29 16.65 1546.28 16.65 1546.27 C16.64 1546.26 16.63 1546.24 16.63 1546.23 L16.63 1543.52
									 C16.63 1543.44 16.65 1543.38 16.7 1543.33 C16.74 1543.29 16.79 1543.27 16.87 1543.27 L17.27
									 1543.27 C17.34 1543.27 17.4 1543.28 17.46 1543.29 C17.51 1543.3 17.55 1543.32 17.59 1543.35
									 C17.63 1543.38 17.66 1543.41 17.68 1543.46 C17.71 1543.5 17.73 1543.56 17.75 1543.62 L18.41
									 1545.43 L18.42 1545.43 L19.1 1543.63 C19.12 1543.56 19.14 1543.51 19.17 1543.46 C19.19 1543.41
									 19.22 1543.38 19.25 1543.35 C19.28 1543.32 19.32 1543.3 19.36 1543.29 C19.41 1543.28 19.46 1543.27
									 19.52 1543.27 L19.93 1543.27 C19.98 1543.27 20.01 1543.28 20.04 1543.29 C20.07 1543.3 20.1 1543.31
									 20.12 1543.34 C20.14 1543.36 20.15 1543.38 20.16 1543.41 C20.17 1543.44 20.18 1543.48 20.18
									 1543.52 L20.18 1546.23 L20.18 1546.23 ZM24.01 1536.5 C24.01 1536.94 23.67 1537.28 23.23 1537.28
									 L18.75 1537.28 C18.32 1539.04 18.52 1539.25 21.55 1539.25 L21.55 1539.97 L18.02 1539.97 L15.45
									 1539.97 L12.14 1539.97 L12.14 1539.25 C14.86 1539.25 15.31 1539.04 14.88 1537.28 L10.46 1537.28
									 C10.03 1537.28 9.68 1536.94 9.68 1536.5 L9.68 1527.8 C9.68 1527.37 10.03 1527.01 10.46 1527.01
									 L23.23 1527.01 C23.67 1527.01 24.01 1527.37 24.01 1527.8 L24.01 1536.5 L24.01 1536.5 Z"
								class="st3"/>
					</g>
				</g>
				<g id="group268-243" transform="translate(-12.9337,-2.27374E-13)" v:mID="268" v:groupContext="group">
					<title>Virtual machine.79</title>
					<g id="shape269-244" v:mID="269" v:groupContext="shape" transform="translate(10.6837,-11.7195)">
						<title>Sheet.269</title>
						<path d="M0 1548 L12.32 1548 L12.32 1539.74 L0 1539.74 L0 1548 ZM8.87 1545.59 L6.56 1546.93 L6.56 1544.26
									 L8.87 1542.92 L8.87 1545.59 ZM6.35 1541.21 L8.66 1542.55 L6.36 1543.88 L4.04 1542.54 L6.35 1541.21
									 ZM3.81 1542.91 L6.13 1544.24 L6.13 1546.93 L3.81 1545.59 L3.81 1542.91 Z" class="st3"/>
					</g>
					<g id="shape270-246" v:mID="270" v:groupContext="shape">
						<title>Sheet.270</title>
						<path d="M31.19 1521.89 L1.44 1521.89 C0.65 1521.89 0 1522.54 0 1523.33 L0 1546.56 C0 1547.36 0.65 1548 1.44
									 1548 L31.19 1548 C31.99 1548 32.63 1547.36 32.63 1546.56 L32.63 1523.33 C32.63 1522.54 31.99
									 1521.89 31.19 1521.89 ZM16.21 1543.51 L15.3 1546.2 C15.29 1546.23 15.28 1546.25 15.27 1546.27
									 C15.26 1546.29 15.24 1546.3 15.21 1546.31 C15.18 1546.31 15.14 1546.32 15.1 1546.32 C15.05 1546.33
									 14.98 1546.33 14.9 1546.33 C14.84 1546.33 14.79 1546.33 14.74 1546.33 C14.7 1546.32 14.66 1546.32
									 14.63 1546.32 C14.6 1546.32 14.57 1546.31 14.55 1546.3 C14.53 1546.3 14.52 1546.29 14.5 1546.28
									 C14.49 1546.27 14.48 1546.26 14.47 1546.25 C14.47 1546.23 14.46 1546.22 14.45 1546.2 L13.55
									 1543.5 C13.53 1543.45 13.52 1543.4 13.51 1543.37 C13.51 1543.33 13.52 1543.31 13.54 1543.29
									 C13.56 1543.28 13.59 1543.27 13.64 1543.26 C13.68 1543.26 13.75 1543.26 13.83 1543.26 C13.91
									 1543.26 13.96 1543.26 14 1543.26 C14.04 1543.26 14.08 1543.27 14.1 1543.28 C14.12 1543.28 14.13
									 1543.3 14.14 1543.31 C14.15 1543.33 14.16 1543.35 14.17 1543.37 L14.91 1545.72 L14.91 1545.72
									 L15.64 1543.38 C15.64 1543.36 15.65 1543.33 15.66 1543.32 C15.67 1543.3 15.68 1543.29 15.71
									 1543.28 C15.73 1543.27 15.76 1543.26 15.8 1543.26 C15.85 1543.26 15.9 1543.26 15.98 1543.26
									 C16.05 1543.26 16.11 1543.26 16.15 1543.26 C16.19 1543.27 16.21 1543.28 16.23 1543.3 C16.24
									 1543.32 16.25 1543.34 16.24 1543.37 C16.24 1543.41 16.23 1543.45 16.21 1543.51 ZM20.18 1546.23
									 C20.18 1546.24 20.18 1546.26 20.17 1546.27 C20.16 1546.28 20.14 1546.29 20.12 1546.3 C20.1 1546.31
									 20.07 1546.32 20.03 1546.32 C19.99 1546.32 19.94 1546.33 19.89 1546.33 C19.83 1546.33 19.78
									 1546.32 19.74 1546.32 C19.71 1546.32 19.68 1546.31 19.66 1546.3 C19.63 1546.29 19.62 1546.28
									 19.61 1546.27 C19.6 1546.26 19.59 1546.24 19.59 1546.23 L19.59 1543.75 L19.59 1543.75 L18.71
									 1546.23 C18.7 1546.25 18.69 1546.26 18.68 1546.28 C18.66 1546.29 18.64 1546.3 18.62 1546.31
									 C18.6 1546.32 18.56 1546.32 18.53 1546.32 C18.49 1546.33 18.44 1546.33 18.39 1546.33 C18.34
									 1546.33 18.29 1546.33 18.25 1546.32 C18.22 1546.32 18.18 1546.31 18.16 1546.3 C18.14 1546.29
									 18.12 1546.28 18.1 1546.27 C18.09 1546.26 18.08 1546.24 18.07 1546.23 L17.22 1543.75 L17.22
									 1543.75 L17.22 1546.23 C17.22 1546.24 17.21 1546.26 17.21 1546.27 C17.2 1546.28 17.18 1546.29
									 17.16 1546.3 C17.13 1546.31 17.1 1546.32 17.07 1546.32 C17.03 1546.32 16.98 1546.33 16.92 1546.33
									 C16.87 1546.33 16.82 1546.32 16.78 1546.32 C16.75 1546.32 16.72 1546.31 16.69 1546.3 C16.67
									 1546.29 16.65 1546.28 16.65 1546.27 C16.64 1546.26 16.63 1546.24 16.63 1546.23 L16.63 1543.52
									 C16.63 1543.44 16.65 1543.38 16.7 1543.33 C16.74 1543.29 16.79 1543.27 16.87 1543.27 L17.27
									 1543.27 C17.34 1543.27 17.4 1543.28 17.46 1543.29 C17.51 1543.3 17.55 1543.32 17.59 1543.35
									 C17.63 1543.38 17.66 1543.41 17.68 1543.46 C17.71 1543.5 17.73 1543.56 17.75 1543.62 L18.41
									 1545.43 L18.42 1545.43 L19.1 1543.63 C19.12 1543.56 19.14 1543.51 19.17 1543.46 C19.19 1543.41
									 19.22 1543.38 19.25 1543.35 C19.28 1543.32 19.32 1543.3 19.36 1543.29 C19.41 1543.28 19.46 1543.27
									 19.52 1543.27 L19.93 1543.27 C19.98 1543.27 20.01 1543.28 20.04 1543.29 C20.07 1543.3 20.1 1543.31
									 20.12 1543.34 C20.14 1543.36 20.15 1543.38 20.16 1543.41 C20.17 1543.44 20.18 1543.48 20.18
									 1543.52 L20.18 1546.23 L20.18 1546.23 ZM24.01 1536.5 C24.01 1536.94 23.67 1537.28 23.23 1537.28
									 L18.75 1537.28 C18.32 1539.04 18.52 1539.25 21.55 1539.25 L21.55 1539.97 L18.02 1539.97 L15.45
									 1539.97 L12.14 1539.97 L12.14 1539.25 C14.86 1539.25 15.31 1539.04 14.88 1537.28 L10.46 1537.28
									 C10.03 1537.28 9.68 1536.94 9.68 1536.5 L9.68 1527.8 C9.68 1527.37 10.03 1527.01 10.46 1527.01
									 L23.23 1527.01 C23.67 1527.01 24.01 1527.37 24.01 1527.8 L24.01 1536.5 L24.01 1536.5 Z"
								class="st3"/>
					</g>
				</g>
			</g>
			<g id="shape271-248" v:mID="271" v:groupContext="shape" transform="translate(44.6802,-4.5)">
				<title>Sheet.271</title>
				<path d="M0 1548 L44.15 1548 L44.15 1445.26 L0 1445.26 L0 1548 Z" class="st21"/>
			</g>
			<g id="group272-250" transform="translate(3.63302,-88.7635)" v:mID="272" v:groupContext="group">
				<title>Sheet.272</title>
				<g id="group273-251" transform="translate(3.08463,-0.700182)" v:mID="273" v:groupContext="group">
					<title>Sheet.273</title>
					<g id="shape274-252" v:mID="274" v:groupContext="shape" v:layerMember="0">
						<title>Lock, protected.1135</title>
						<path d="M14.31 1536.02 L13.31 1536.02 L13.31 1534.16 C13.31 1530.24 10.81 1528.23 7.9 1528.23 L7.42 1528.23
									 C4.45 1528.23 2.01 1530.19 2.01 1534.16 L2.01 1536.02 L1.01 1536.02 C0.58 1536.02 0 1536.6 0
									 1537.03 L0 1546.99 C-0 1547.42 0.58 1548 1.01 1548 L14.31 1548 C14.74 1548 15.32 1547.42 15.32
									 1546.99 L15.32 1537.03 C15.32 1536.6 14.74 1536.02 14.31 1536.02 ZM8.43 1541.9 L8.43 1546.04
									 L6.94 1546.04 L6.94 1541.9 C6.36 1541.64 5.94 1541.06 5.94 1540.37 C5.94 1539.41 6.73 1538.62
									 7.69 1538.62 C8.64 1538.62 9.44 1539.41 9.44 1540.37 C9.38 1541 9.01 1541.59 8.43 1541.9 ZM11.45
									 1536.02 L3.87 1536.02 L3.87 1534.16 C3.87 1531.67 5.2 1529.98 7.42 1529.98 L7.9 1529.98 C10.18
									 1529.98 11.45 1531.67 11.45 1534.16 L11.45 1536.02 Z" class="st3"/>
					</g>
					<g id="shape275-254" v:mID="275" v:groupContext="shape" v:layerMember="0"
							transform="translate(2.28102,-0.389869)">
						<title>Sheet.275</title>
						<rect x="0" y="1537.63" width="10.7581" height="10.3682" class="st3"/>
					</g>
				</g>
				<g id="shape276-256" v:mID="276" v:groupContext="shape">
					<title>Sheet.276</title>
					<desc>NSG</desc>
					<v:textBlock v:margins="rect(0,0,0,0)"/>
					<v:textRect cx="10.7447" cy="1541.68" width="21.49" height="12.6408"/>
					<rect x="0" y="1535.36" width="21.4894" height="12.6408" class="st4"/>
					<text x="4.72" y="1543.48" class="st5" v:langID="1033"><v:paragraph v:horizAlign="1"/><v:tabList/>NSG</text>				</g>
			</g>
			<g id="shape277-259" v:mID="277" v:groupContext="shape" transform="translate(8.6794,-57.3186) rotate(-0.877175)">
				<title>Sheet.277</title>
				<path d="M0 1548 L10.78 1548" class="st11"/>
			</g>
			<g id="shape278-264" v:mID="278" v:groupContext="shape" transform="translate(-1350.02,793.871) rotate(-63.2551)">
				<title>Sheet.278</title>
				<path d="M0 1548 L30.79 1548" class="st11"/>
			</g>
			<g id="shape279-269" v:mID="279" v:groupContext="shape" transform="translate(1410.37,785.205) rotate(62.8954)">
				<title>Sheet.279</title>
				<path d="M0 1548 L30.35 1548" class="st11"/>
			</g>
			<g id="group280-274" transform="translate(-6.39488E-14,-40.5)" v:mID="280" v:groupContext="group">
				<title>Azure load balancer.194</title>
				<g id="group281-275" transform="translate(2.6,-2.53462)" v:mID="281" v:groupContext="group">
					<title>Sheet.281</title>
					<g id="shape282-276" v:mID="282" v:groupContext="shape">
						<title>Sheet.282</title>
						<path d="M28 1531.71 L16.29 1520 C15.78 1519.49 15.15 1519.2 14.4 1519.2 C13.71 1519.2 13.02 1519.49 12.51
									 1520 L0.8 1531.71 C0.29 1532.22 0 1532.85 0 1533.6 C-0 1534.29 0.29 1534.98 0.8 1535.49 L12.51
									 1547.2 C13.02 1547.71 13.65 1548 14.4 1548 C15.09 1548 15.78 1547.71 16.29 1547.2 L28 1535.49
									 C28.51 1534.98 28.8 1534.35 28.8 1533.6 C28.74 1532.85 28.46 1532.17 28 1531.71 ZM22.43 1537.16
									 L22.43 1534.52 L18.42 1534.52 C18.01 1535.89 16.92 1536.98 15.55 1537.39 L15.55 1540.08 C16.12
									 1540.48 16.98 1541.4 16.98 1542.38 C16.98 1543.81 15.83 1544.96 14.4 1544.96 C12.97 1544.96
									 11.82 1543.81 11.82 1542.38 C11.82 1541.35 12.68 1540.48 13.25 1540.08 L13.25 1537.44 C11.88
									 1537.04 10.79 1535.95 10.38 1534.58 L6.37 1534.58 L6.37 1537.27 L2.58 1533.49 L6.37 1529.7 L6.37
									 1532.34 L10.38 1532.34 C10.79 1530.96 11.88 1529.87 13.25 1529.47 L13.25 1525.63 L10.61 1525.63
									 L14.4 1521.84 L18.19 1525.63 L15.55 1525.63 L15.55 1529.47 C16.92 1529.87 18.01 1530.96 18.42
									 1532.34 L22.43 1532.34 L22.43 1529.64 L26.22 1533.43 L22.43 1537.16 Z" class="st3"/>
					</g>
					<g id="shape283-278" v:mID="283" v:groupContext="shape" transform="translate(11.3594,-11.5888)">
						<title>Sheet.283</title>
						<path d="M3.04 1541.92 C1.38 1541.92 0 1543.3 0 1544.96 C0 1546.62 1.38 1548 3.04 1548 C4.7 1548 6.08 1546.62
									 6.08 1544.96 C6.08 1543.3 4.7 1541.92 3.04 1541.92 Z" class="st3"/>
					</g>
				</g>
			</g>
		</g>
		<g id="group284-280" transform="translate(538.839,-787.863)" v:mID="284" v:groupContext="group">
			<title>Sheet.284</title>
			<g id="shape285-281" v:mID="285" v:groupContext="shape" transform="translate(2.56522,0)">
				<title>Sheet.285</title>
				<rect x="0" y="1436.26" width="92.8125" height="111.739" class="st1"/>
			</g>
			<g id="group286-283" transform="translate(63.3729,-10.9463)" v:mID="286" v:groupContext="group">
				<title>Sheet.286</title>
				<g id="group287-284" transform="translate(-12.9337,-64.4985)" v:mID="287" v:groupContext="group">
					<title>Virtual machine</title>
					<g id="shape288-285" v:mID="288" v:groupContext="shape" transform="translate(10.6837,-11.7195)">
						<title>Sheet.288</title>
						<path d="M0 1548 L12.32 1548 L12.32 1539.74 L0 1539.74 L0 1548 ZM8.87 1545.59 L6.56 1546.93 L6.56 1544.26
									 L8.87 1542.92 L8.87 1545.59 ZM6.35 1541.21 L8.66 1542.55 L6.36 1543.88 L4.04 1542.54 L6.35 1541.21
									 ZM3.81 1542.91 L6.13 1544.24 L6.13 1546.93 L3.81 1545.59 L3.81 1542.91 Z" class="st3"/>
					</g>
					<g id="shape289-287" v:mID="289" v:groupContext="shape">
						<title>Sheet.289</title>
						<path d="M31.19 1521.89 L1.44 1521.89 C0.65 1521.89 0 1522.54 0 1523.33 L0 1546.56 C0 1547.36 0.65 1548 1.44
									 1548 L31.19 1548 C31.99 1548 32.63 1547.36 32.63 1546.56 L32.63 1523.33 C32.63 1522.54 31.99
									 1521.89 31.19 1521.89 ZM16.21 1543.51 L15.3 1546.2 C15.29 1546.23 15.28 1546.25 15.27 1546.27
									 C15.26 1546.29 15.24 1546.3 15.21 1546.31 C15.18 1546.31 15.14 1546.32 15.1 1546.32 C15.05 1546.33
									 14.98 1546.33 14.9 1546.33 C14.84 1546.33 14.79 1546.33 14.74 1546.33 C14.7 1546.32 14.66 1546.32
									 14.63 1546.32 C14.6 1546.32 14.57 1546.31 14.55 1546.3 C14.53 1546.3 14.52 1546.29 14.5 1546.28
									 C14.49 1546.27 14.48 1546.26 14.47 1546.25 C14.47 1546.23 14.46 1546.22 14.45 1546.2 L13.55
									 1543.5 C13.53 1543.45 13.52 1543.4 13.51 1543.37 C13.51 1543.33 13.52 1543.31 13.54 1543.29
									 C13.56 1543.28 13.59 1543.27 13.64 1543.26 C13.68 1543.26 13.75 1543.26 13.83 1543.26 C13.91
									 1543.26 13.96 1543.26 14 1543.26 C14.04 1543.26 14.08 1543.27 14.1 1543.28 C14.12 1543.28 14.13
									 1543.3 14.14 1543.31 C14.15 1543.33 14.16 1543.35 14.17 1543.37 L14.91 1545.72 L14.91 1545.72
									 L15.64 1543.38 C15.64 1543.36 15.65 1543.33 15.66 1543.32 C15.67 1543.3 15.68 1543.29 15.71
									 1543.28 C15.73 1543.27 15.76 1543.26 15.8 1543.26 C15.85 1543.26 15.9 1543.26 15.98 1543.26
									 C16.05 1543.26 16.11 1543.26 16.15 1543.26 C16.19 1543.27 16.21 1543.28 16.23 1543.3 C16.24
									 1543.32 16.25 1543.34 16.24 1543.37 C16.24 1543.41 16.23 1543.45 16.21 1543.51 ZM20.18 1546.23
									 C20.18 1546.24 20.18 1546.26 20.17 1546.27 C20.16 1546.28 20.14 1546.29 20.12 1546.3 C20.1 1546.31
									 20.07 1546.32 20.03 1546.32 C19.99 1546.32 19.94 1546.33 19.89 1546.33 C19.83 1546.33 19.78
									 1546.32 19.74 1546.32 C19.71 1546.32 19.68 1546.31 19.66 1546.3 C19.63 1546.29 19.62 1546.28
									 19.61 1546.27 C19.6 1546.26 19.59 1546.24 19.59 1546.23 L19.59 1543.75 L19.59 1543.75 L18.71
									 1546.23 C18.7 1546.25 18.69 1546.26 18.68 1546.28 C18.66 1546.29 18.64 1546.3 18.62 1546.31
									 C18.6 1546.32 18.56 1546.32 18.53 1546.32 C18.49 1546.33 18.44 1546.33 18.39 1546.33 C18.34
									 1546.33 18.29 1546.33 18.25 1546.32 C18.22 1546.32 18.18 1546.31 18.16 1546.3 C18.14 1546.29
									 18.12 1546.28 18.1 1546.27 C18.09 1546.26 18.08 1546.24 18.07 1546.23 L17.22 1543.75 L17.22
									 1543.75 L17.22 1546.23 C17.22 1546.24 17.21 1546.26 17.21 1546.27 C17.2 1546.28 17.18 1546.29
									 17.16 1546.3 C17.13 1546.31 17.1 1546.32 17.07 1546.32 C17.03 1546.32 16.98 1546.33 16.92 1546.33
									 C16.87 1546.33 16.82 1546.32 16.78 1546.32 C16.75 1546.32 16.72 1546.31 16.69 1546.3 C16.67
									 1546.29 16.65 1546.28 16.65 1546.27 C16.64 1546.26 16.63 1546.24 16.63 1546.23 L16.63 1543.52
									 C16.63 1543.44 16.65 1543.38 16.7 1543.33 C16.74 1543.29 16.79 1543.27 16.87 1543.27 L17.27
									 1543.27 C17.34 1543.27 17.4 1543.28 17.46 1543.29 C17.51 1543.3 17.55 1543.32 17.59 1543.35
									 C17.63 1543.38 17.66 1543.41 17.68 1543.46 C17.71 1543.5 17.73 1543.56 17.75 1543.62 L18.41
									 1545.43 L18.42 1545.43 L19.1 1543.63 C19.12 1543.56 19.14 1543.51 19.17 1543.46 C19.19 1543.41
									 19.22 1543.38 19.25 1543.35 C19.28 1543.32 19.32 1543.3 19.36 1543.29 C19.41 1543.28 19.46 1543.27
									 19.52 1543.27 L19.93 1543.27 C19.98 1543.27 20.01 1543.28 20.04 1543.29 C20.07 1543.3 20.1 1543.31
									 20.12 1543.34 C20.14 1543.36 20.15 1543.38 20.16 1543.41 C20.17 1543.44 20.18 1543.48 20.18
									 1543.52 L20.18 1546.23 L20.18 1546.23 ZM24.01 1536.5 C24.01 1536.94 23.67 1537.28 23.23 1537.28
									 L18.75 1537.28 C18.32 1539.04 18.52 1539.25 21.55 1539.25 L21.55 1539.97 L18.02 1539.97 L15.45
									 1539.97 L12.14 1539.97 L12.14 1539.25 C14.86 1539.25 15.31 1539.04 14.88 1537.28 L10.46 1537.28
									 C10.03 1537.28 9.68 1536.94 9.68 1536.5 L9.68 1527.8 C9.68 1527.37 10.03 1527.01 10.46 1527.01
									 L23.23 1527.01 C23.67 1527.01 24.01 1527.37 24.01 1527.8 L24.01 1536.5 L24.01 1536.5 Z"
								class="st3"/>
					</g>
				</g>
				<g id="group290-289" transform="translate(-12.9337,-32.2492)" v:mID="290" v:groupContext="group">
					<title>Virtual machine.76</title>
					<g id="shape291-290" v:mID="291" v:groupContext="shape" transform="translate(10.6837,-11.7195)">
						<title>Sheet.291</title>
						<path d="M0 1548 L12.32 1548 L12.32 1539.74 L0 1539.74 L0 1548 ZM8.87 1545.59 L6.56 1546.93 L6.56 1544.26
									 L8.87 1542.92 L8.87 1545.59 ZM6.35 1541.21 L8.66 1542.55 L6.36 1543.88 L4.04 1542.54 L6.35 1541.21
									 ZM3.81 1542.91 L6.13 1544.24 L6.13 1546.93 L3.81 1545.59 L3.81 1542.91 Z" class="st3"/>
					</g>
					<g id="shape292-292" v:mID="292" v:groupContext="shape">
						<title>Sheet.292</title>
						<path d="M31.19 1521.89 L1.44 1521.89 C0.65 1521.89 0 1522.54 0 1523.33 L0 1546.56 C0 1547.36 0.65 1548 1.44
									 1548 L31.19 1548 C31.99 1548 32.63 1547.36 32.63 1546.56 L32.63 1523.33 C32.63 1522.54 31.99
									 1521.89 31.19 1521.89 ZM16.21 1543.51 L15.3 1546.2 C15.29 1546.23 15.28 1546.25 15.27 1546.27
									 C15.26 1546.29 15.24 1546.3 15.21 1546.31 C15.18 1546.31 15.14 1546.32 15.1 1546.32 C15.05 1546.33
									 14.98 1546.33 14.9 1546.33 C14.84 1546.33 14.79 1546.33 14.74 1546.33 C14.7 1546.32 14.66 1546.32
									 14.63 1546.32 C14.6 1546.32 14.57 1546.31 14.55 1546.3 C14.53 1546.3 14.52 1546.29 14.5 1546.28
									 C14.49 1546.27 14.48 1546.26 14.47 1546.25 C14.47 1546.23 14.46 1546.22 14.45 1546.2 L13.55
									 1543.5 C13.53 1543.45 13.52 1543.4 13.51 1543.37 C13.51 1543.33 13.52 1543.31 13.54 1543.29
									 C13.56 1543.28 13.59 1543.27 13.64 1543.26 C13.68 1543.26 13.75 1543.26 13.83 1543.26 C13.91
									 1543.26 13.96 1543.26 14 1543.26 C14.04 1543.26 14.08 1543.27 14.1 1543.28 C14.12 1543.28 14.13
									 1543.3 14.14 1543.31 C14.15 1543.33 14.16 1543.35 14.17 1543.37 L14.91 1545.72 L14.91 1545.72
									 L15.64 1543.38 C15.64 1543.36 15.65 1543.33 15.66 1543.32 C15.67 1543.3 15.68 1543.29 15.71
									 1543.28 C15.73 1543.27 15.76 1543.26 15.8 1543.26 C15.85 1543.26 15.9 1543.26 15.98 1543.26
									 C16.05 1543.26 16.11 1543.26 16.15 1543.26 C16.19 1543.27 16.21 1543.28 16.23 1543.3 C16.24
									 1543.32 16.25 1543.34 16.24 1543.37 C16.24 1543.41 16.23 1543.45 16.21 1543.51 ZM20.18 1546.23
									 C20.18 1546.24 20.18 1546.26 20.17 1546.27 C20.16 1546.28 20.14 1546.29 20.12 1546.3 C20.1 1546.31
									 20.07 1546.32 20.03 1546.32 C19.99 1546.32 19.94 1546.33 19.89 1546.33 C19.83 1546.33 19.78
									 1546.32 19.74 1546.32 C19.71 1546.32 19.68 1546.31 19.66 1546.3 C19.63 1546.29 19.62 1546.28
									 19.61 1546.27 C19.6 1546.26 19.59 1546.24 19.59 1546.23 L19.59 1543.75 L19.59 1543.75 L18.71
									 1546.23 C18.7 1546.25 18.69 1546.26 18.68 1546.28 C18.66 1546.29 18.64 1546.3 18.62 1546.31
									 C18.6 1546.32 18.56 1546.32 18.53 1546.32 C18.49 1546.33 18.44 1546.33 18.39 1546.33 C18.34
									 1546.33 18.29 1546.33 18.25 1546.32 C18.22 1546.32 18.18 1546.31 18.16 1546.3 C18.14 1546.29
									 18.12 1546.28 18.1 1546.27 C18.09 1546.26 18.08 1546.24 18.07 1546.23 L17.22 1543.75 L17.22
									 1543.75 L17.22 1546.23 C17.22 1546.24 17.21 1546.26 17.21 1546.27 C17.2 1546.28 17.18 1546.29
									 17.16 1546.3 C17.13 1546.31 17.1 1546.32 17.07 1546.32 C17.03 1546.32 16.98 1546.33 16.92 1546.33
									 C16.87 1546.33 16.82 1546.32 16.78 1546.32 C16.75 1546.32 16.72 1546.31 16.69 1546.3 C16.67
									 1546.29 16.65 1546.28 16.65 1546.27 C16.64 1546.26 16.63 1546.24 16.63 1546.23 L16.63 1543.52
									 C16.63 1543.44 16.65 1543.38 16.7 1543.33 C16.74 1543.29 16.79 1543.27 16.87 1543.27 L17.27
									 1543.27 C17.34 1543.27 17.4 1543.28 17.46 1543.29 C17.51 1543.3 17.55 1543.32 17.59 1543.35
									 C17.63 1543.38 17.66 1543.41 17.68 1543.46 C17.71 1543.5 17.73 1543.56 17.75 1543.62 L18.41
									 1545.43 L18.42 1545.43 L19.1 1543.63 C19.12 1543.56 19.14 1543.51 19.17 1543.46 C19.19 1543.41
									 19.22 1543.38 19.25 1543.35 C19.28 1543.32 19.32 1543.3 19.36 1543.29 C19.41 1543.28 19.46 1543.27
									 19.52 1543.27 L19.93 1543.27 C19.98 1543.27 20.01 1543.28 20.04 1543.29 C20.07 1543.3 20.1 1543.31
									 20.12 1543.34 C20.14 1543.36 20.15 1543.38 20.16 1543.41 C20.17 1543.44 20.18 1543.48 20.18
									 1543.52 L20.18 1546.23 L20.18 1546.23 ZM24.01 1536.5 C24.01 1536.94 23.67 1537.28 23.23 1537.28
									 L18.75 1537.28 C18.32 1539.04 18.52 1539.25 21.55 1539.25 L21.55 1539.97 L18.02 1539.97 L15.45
									 1539.97 L12.14 1539.97 L12.14 1539.25 C14.86 1539.25 15.31 1539.04 14.88 1537.28 L10.46 1537.28
									 C10.03 1537.28 9.68 1536.94 9.68 1536.5 L9.68 1527.8 C9.68 1527.37 10.03 1527.01 10.46 1527.01
									 L23.23 1527.01 C23.67 1527.01 24.01 1527.37 24.01 1527.8 L24.01 1536.5 L24.01 1536.5 Z"
								class="st3"/>
					</g>
				</g>
				<g id="group293-294" transform="translate(-12.9337,-2.27374E-13)" v:mID="293" v:groupContext="group">
					<title>Virtual machine.79</title>
					<g id="shape294-295" v:mID="294" v:groupContext="shape" transform="translate(10.6837,-11.7195)">
						<title>Sheet.294</title>
						<path d="M0 1548 L12.32 1548 L12.32 1539.74 L0 1539.74 L0 1548 ZM8.87 1545.59 L6.56 1546.93 L6.56 1544.26
									 L8.87 1542.92 L8.87 1545.59 ZM6.35 1541.21 L8.66 1542.55 L6.36 1543.88 L4.04 1542.54 L6.35 1541.21
									 ZM3.81 1542.91 L6.13 1544.24 L6.13 1546.93 L3.81 1545.59 L3.81 1542.91 Z" class="st3"/>
					</g>
					<g id="shape295-297" v:mID="295" v:groupContext="shape">
						<title>Sheet.295</title>
						<path d="M31.19 1521.89 L1.44 1521.89 C0.65 1521.89 0 1522.54 0 1523.33 L0 1546.56 C0 1547.36 0.65 1548 1.44
									 1548 L31.19 1548 C31.99 1548 32.63 1547.36 32.63 1546.56 L32.63 1523.33 C32.63 1522.54 31.99
									 1521.89 31.19 1521.89 ZM16.21 1543.51 L15.3 1546.2 C15.29 1546.23 15.28 1546.25 15.27 1546.27
									 C15.26 1546.29 15.24 1546.3 15.21 1546.31 C15.18 1546.31 15.14 1546.32 15.1 1546.32 C15.05 1546.33
									 14.98 1546.33 14.9 1546.33 C14.84 1546.33 14.79 1546.33 14.74 1546.33 C14.7 1546.32 14.66 1546.32
									 14.63 1546.32 C14.6 1546.32 14.57 1546.31 14.55 1546.3 C14.53 1546.3 14.52 1546.29 14.5 1546.28
									 C14.49 1546.27 14.48 1546.26 14.47 1546.25 C14.47 1546.23 14.46 1546.22 14.45 1546.2 L13.55
									 1543.5 C13.53 1543.45 13.52 1543.4 13.51 1543.37 C13.51 1543.33 13.52 1543.31 13.54 1543.29
									 C13.56 1543.28 13.59 1543.27 13.64 1543.26 C13.68 1543.26 13.75 1543.26 13.83 1543.26 C13.91
									 1543.26 13.96 1543.26 14 1543.26 C14.04 1543.26 14.08 1543.27 14.1 1543.28 C14.12 1543.28 14.13
									 1543.3 14.14 1543.31 C14.15 1543.33 14.16 1543.35 14.17 1543.37 L14.91 1545.72 L14.91 1545.72
									 L15.64 1543.38 C15.64 1543.36 15.65 1543.33 15.66 1543.32 C15.67 1543.3 15.68 1543.29 15.71
									 1543.28 C15.73 1543.27 15.76 1543.26 15.8 1543.26 C15.85 1543.26 15.9 1543.26 15.98 1543.26
									 C16.05 1543.26 16.11 1543.26 16.15 1543.26 C16.19 1543.27 16.21 1543.28 16.23 1543.3 C16.24
									 1543.32 16.25 1543.34 16.24 1543.37 C16.24 1543.41 16.23 1543.45 16.21 1543.51 ZM20.18 1546.23
									 C20.18 1546.24 20.18 1546.26 20.17 1546.27 C20.16 1546.28 20.14 1546.29 20.12 1546.3 C20.1 1546.31
									 20.07 1546.32 20.03 1546.32 C19.99 1546.32 19.94 1546.33 19.89 1546.33 C19.83 1546.33 19.78
									 1546.32 19.74 1546.32 C19.71 1546.32 19.68 1546.31 19.66 1546.3 C19.63 1546.29 19.62 1546.28
									 19.61 1546.27 C19.6 1546.26 19.59 1546.24 19.59 1546.23 L19.59 1543.75 L19.59 1543.75 L18.71
									 1546.23 C18.7 1546.25 18.69 1546.26 18.68 1546.28 C18.66 1546.29 18.64 1546.3 18.62 1546.31
									 C18.6 1546.32 18.56 1546.32 18.53 1546.32 C18.49 1546.33 18.44 1546.33 18.39 1546.33 C18.34
									 1546.33 18.29 1546.33 18.25 1546.32 C18.22 1546.32 18.18 1546.31 18.16 1546.3 C18.14 1546.29
									 18.12 1546.28 18.1 1546.27 C18.09 1546.26 18.08 1546.24 18.07 1546.23 L17.22 1543.75 L17.22
									 1543.75 L17.22 1546.23 C17.22 1546.24 17.21 1546.26 17.21 1546.27 C17.2 1546.28 17.18 1546.29
									 17.16 1546.3 C17.13 1546.31 17.1 1546.32 17.07 1546.32 C17.03 1546.32 16.98 1546.33 16.92 1546.33
									 C16.87 1546.33 16.82 1546.32 16.78 1546.32 C16.75 1546.32 16.72 1546.31 16.69 1546.3 C16.67
									 1546.29 16.65 1546.28 16.65 1546.27 C16.64 1546.26 16.63 1546.24 16.63 1546.23 L16.63 1543.52
									 C16.63 1543.44 16.65 1543.38 16.7 1543.33 C16.74 1543.29 16.79 1543.27 16.87 1543.27 L17.27
									 1543.27 C17.34 1543.27 17.4 1543.28 17.46 1543.29 C17.51 1543.3 17.55 1543.32 17.59 1543.35
									 C17.63 1543.38 17.66 1543.41 17.68 1543.46 C17.71 1543.5 17.73 1543.56 17.75 1543.62 L18.41
									 1545.43 L18.42 1545.43 L19.1 1543.63 C19.12 1543.56 19.14 1543.51 19.17 1543.46 C19.19 1543.41
									 19.22 1543.38 19.25 1543.35 C19.28 1543.32 19.32 1543.3 19.36 1543.29 C19.41 1543.28 19.46 1543.27
									 19.52 1543.27 L19.93 1543.27 C19.98 1543.27 20.01 1543.28 20.04 1543.29 C20.07 1543.3 20.1 1543.31
									 20.12 1543.34 C20.14 1543.36 20.15 1543.38 20.16 1543.41 C20.17 1543.44 20.18 1543.48 20.18
									 1543.52 L20.18 1546.23 L20.18 1546.23 ZM24.01 1536.5 C24.01 1536.94 23.67 1537.28 23.23 1537.28
									 L18.75 1537.28 C18.32 1539.04 18.52 1539.25 21.55 1539.25 L21.55 1539.97 L18.02 1539.97 L15.45
									 1539.97 L12.14 1539.97 L12.14 1539.25 C14.86 1539.25 15.31 1539.04 14.88 1537.28 L10.46 1537.28
									 C10.03 1537.28 9.68 1536.94 9.68 1536.5 L9.68 1527.8 C9.68 1527.37 10.03 1527.01 10.46 1527.01
									 L23.23 1527.01 C23.67 1527.01 24.01 1527.37 24.01 1527.8 L24.01 1536.5 L24.01 1536.5 Z"
								class="st3"/>
					</g>
				</g>
			</g>
			<g id="shape296-299" v:mID="296" v:groupContext="shape" transform="translate(44.6802,-4.5)">
				<title>Sheet.296</title>
				<path d="M0 1548 L44.15 1548 L44.15 1445.26 L0 1445.26 L0 1548 Z" class="st21"/>
			</g>
			<g id="group297-301" transform="translate(3.63302,-88.7635)" v:mID="297" v:groupContext="group">
				<title>Sheet.297</title>
				<g id="group298-302" transform="translate(3.08463,-0.700182)" v:mID="298" v:groupContext="group">
					<title>Sheet.298</title>
					<g id="shape299-303" v:mID="299" v:groupContext="shape" v:layerMember="0">
						<title>Lock, protected.1135</title>
						<path d="M14.31 1536.02 L13.31 1536.02 L13.31 1534.16 C13.31 1530.24 10.81 1528.23 7.9 1528.23 L7.42 1528.23
									 C4.45 1528.23 2.01 1530.19 2.01 1534.16 L2.01 1536.02 L1.01 1536.02 C0.58 1536.02 0 1536.6 0
									 1537.03 L0 1546.99 C-0 1547.42 0.58 1548 1.01 1548 L14.31 1548 C14.74 1548 15.32 1547.42 15.32
									 1546.99 L15.32 1537.03 C15.32 1536.6 14.74 1536.02 14.31 1536.02 ZM8.43 1541.9 L8.43 1546.04
									 L6.94 1546.04 L6.94 1541.9 C6.36 1541.64 5.94 1541.06 5.94 1540.37 C5.94 1539.41 6.73 1538.62
									 7.69 1538.62 C8.64 1538.62 9.44 1539.41 9.44 1540.37 C9.38 1541 9.01 1541.59 8.43 1541.9 ZM11.45
									 1536.02 L3.87 1536.02 L3.87 1534.16 C3.87 1531.67 5.2 1529.98 7.42 1529.98 L7.9 1529.98 C10.18
									 1529.98 11.45 1531.67 11.45 1534.16 L11.45 1536.02 Z" class="st3"/>
					</g>
					<g id="shape300-305" v:mID="300" v:groupContext="shape" v:layerMember="0"
							transform="translate(2.28102,-0.389869)">
						<title>Sheet.300</title>
						<rect x="0" y="1537.63" width="10.7581" height="10.3682" class="st3"/>
					</g>
				</g>
				<g id="shape301-307" v:mID="301" v:groupContext="shape">
					<title>Sheet.301</title>
					<desc>NSG</desc>
					<v:textBlock v:margins="rect(0,0,0,0)"/>
					<v:textRect cx="10.7447" cy="1541.68" width="21.49" height="12.6408"/>
					<rect x="0" y="1535.36" width="21.4894" height="12.6408" class="st4"/>
					<text x="4.72" y="1543.48" class="st5" v:langID="1033"><v:paragraph v:horizAlign="1"/><v:tabList/>NSG</text>				</g>
			</g>
			<g id="shape302-310" v:mID="302" v:groupContext="shape" transform="translate(8.6794,-57.3186) rotate(-0.877175)">
				<title>Sheet.302</title>
				<path d="M0 1548 L10.78 1548" class="st11"/>
			</g>
			<g id="shape303-315" v:mID="303" v:groupContext="shape" transform="translate(-1350.02,793.871) rotate(-63.2551)">
				<title>Sheet.303</title>
				<path d="M0 1548 L30.79 1548" class="st11"/>
			</g>
			<g id="shape304-320" v:mID="304" v:groupContext="shape" transform="translate(1410.37,785.205) rotate(62.8954)">
				<title>Sheet.304</title>
				<path d="M0 1548 L30.35 1548" class="st11"/>
			</g>
			<g id="group305-325" transform="translate(-6.39488E-14,-40.5)" v:mID="305" v:groupContext="group">
				<title>Azure load balancer.194</title>
				<g id="group306-326" transform="translate(2.6,-2.53462)" v:mID="306" v:groupContext="group">
					<title>Sheet.306</title>
					<g id="shape307-327" v:mID="307" v:groupContext="shape">
						<title>Sheet.307</title>
						<path d="M28 1531.71 L16.29 1520 C15.78 1519.49 15.15 1519.2 14.4 1519.2 C13.71 1519.2 13.02 1519.49 12.51
									 1520 L0.8 1531.71 C0.29 1532.22 0 1532.85 0 1533.6 C-0 1534.29 0.29 1534.98 0.8 1535.49 L12.51
									 1547.2 C13.02 1547.71 13.65 1548 14.4 1548 C15.09 1548 15.78 1547.71 16.29 1547.2 L28 1535.49
									 C28.51 1534.98 28.8 1534.35 28.8 1533.6 C28.74 1532.85 28.46 1532.17 28 1531.71 ZM22.43 1537.16
									 L22.43 1534.52 L18.42 1534.52 C18.01 1535.89 16.92 1536.98 15.55 1537.39 L15.55 1540.08 C16.12
									 1540.48 16.98 1541.4 16.98 1542.38 C16.98 1543.81 15.83 1544.96 14.4 1544.96 C12.97 1544.96
									 11.82 1543.81 11.82 1542.38 C11.82 1541.35 12.68 1540.48 13.25 1540.08 L13.25 1537.44 C11.88
									 1537.04 10.79 1535.95 10.38 1534.58 L6.37 1534.58 L6.37 1537.27 L2.58 1533.49 L6.37 1529.7 L6.37
									 1532.34 L10.38 1532.34 C10.79 1530.96 11.88 1529.87 13.25 1529.47 L13.25 1525.63 L10.61 1525.63
									 L14.4 1521.84 L18.19 1525.63 L15.55 1525.63 L15.55 1529.47 C16.92 1529.87 18.01 1530.96 18.42
									 1532.34 L22.43 1532.34 L22.43 1529.64 L26.22 1533.43 L22.43 1537.16 Z" class="st3"/>
					</g>
					<g id="shape308-329" v:mID="308" v:groupContext="shape" transform="translate(11.3594,-11.5888)">
						<title>Sheet.308</title>
						<path d="M3.04 1541.92 C1.38 1541.92 0 1543.3 0 1544.96 C0 1546.62 1.38 1548 3.04 1548 C4.7 1548 6.08 1546.62
									 6.08 1544.96 C6.08 1543.3 4.7 1541.92 3.04 1541.92 Z" class="st3"/>
					</g>
				</g>
			</g>
		</g>
		<g id="shape309-331" v:mID="309" v:groupContext="shape" transform="translate(304.839,-833.957)">
			<title>Sheet.309</title>
			<path d="M0 1548 L102.02 1548 L102.02 1506.72 L0 1506.72 L0 1548 Z" class="st21"/>
		</g>
		<g id="shape310-333" v:mID="310" v:groupContext="shape" v:layerMember="0" transform="translate(322.681,-858.916)">
			<title>Availability set.1124</title>
			<desc>Availability set</desc>
			<v:textBlock v:margins="rect(4,4,4,4)" v:verticalAlign="0"/>
			<v:textRect cx="39.1609" cy="1531.68" width="78.33" height="32.6325"/>
			<rect x="0" y="1515.37" width="78.3218" height="32.6325" class="st8"/>
			<text x="13.87" y="1526.57" class="st22" v:langID="1033"><v:paragraph v:horizAlign="1"/><v:tabList/>Availability set</text>		</g>
		<g id="shape311-336" v:mID="311" v:groupContext="shape" v:layerMember="0" transform="translate(150.235,-860.732)">
			<title>Availability set.377</title>
			<desc>Gateway</desc>
			<v:textBlock v:margins="rect(4,4,4,4)" v:verticalAlign="0"/>
			<v:textRect cx="27.5513" cy="1540.75" width="55.11" height="14.5"/>
			<rect x="0" y="1533.5" width="55.1026" height="14.5" class="st8"/>
			<text x="12.46" y="1544.7" class="st22" v:langID="1033"><v:paragraph v:horizAlign="1"/><v:tabList/>Gateway</text>		</g>
		<g id="shape312-339" v:mID="312" v:groupContext="shape" transform="translate(-321.76,2125.79) rotate(-151.354)">
			<title>Sheet.312</title>
			<path d="M0 1548 L50.1 1548" class="st13"/>
		</g>
		<g id="shape313-344" v:mID="313" v:groupContext="shape" transform="translate(426.253,-780.721) rotate(0.218802)">
			<title>Sheet.313</title>
			<path d="M0 1548 L293.25 1548" class="st16"/>
		</g>
		<g id="shape314-347" v:mID="314" v:groupContext="shape" transform="translate(-1048.77,767.518) rotate(-90)">
			<title>Sheet.314</title>
			<path d="M0 1548 L12.75 1548" class="st16"/>
		</g>
		<g id="shape315-350" v:mID="315" v:groupContext="shape" transform="translate(-942.406,768.388) rotate(-90)">
			<title>Sheet.315</title>
			<path d="M0 1548 L12.75 1548" class="st16"/>
		</g>
		<g id="shape316-353" v:mID="316" v:groupContext="shape" transform="translate(-834.406,768.388) rotate(-90)">
			<title>Sheet.316</title>
			<path d="M0 1548 L12.75 1548" class="st16"/>
		</g>
	</g>
</svg>
