<?xml version="1.0" encoding="UTF-8" standalone="no"?>
<!DOCTYPE svg PUBLIC "-//W3C//DTD SVG 1.1//EN" "http://www.w3.org/Graphics/SVG/1.1/DTD/svg11.dtd">
<!-- Generated by Microsoft Visio, SVG Export reference-architecture-002-hybrid.svg DMZ  -->
<svg xmlns="http://www.w3.org/2000/svg" xmlns:xlink="http://www.w3.org/1999/xlink" xmlns:ev="http://www.w3.org/2001/xml-events"
		xmlns:v="http://schemas.microsoft.com/visio/2003/SVGExtensions/" width="8.5in" height="11in" viewBox="0 0 612 792"
		xml:space="preserve" color-interpolation-filters="sRGB" class="st24">
	<v:documentProperties v:langID="1033" v:viewMarkup="false">
		<v:userDefs>
			<v:ud v:nameU="msvNoAutoConnect" v:val="VT0(1):26"/>
		</v:userDefs>
	</v:documentProperties>

	<style type="text/css">
	<![CDATA[
		.st1 {fill:#f2f2f2;stroke:#d8d8d8;stroke-width:0.25}
		.st2 {fill:none;stroke:#0078d7;stroke-dasharray:0.01,3;stroke-width:1}
		.st3 {fill:#0078d7;stroke:none;stroke-width:0.25}
		.st4 {fill:none;stroke:none;stroke-width:0.25}
		.st5 {fill:#ffffff;font-family:Segoe UI Semibold;font-size:0.499992em}
		.st6 {fill:#ffffff;stroke:none;stroke-width:0.25}
		.st7 {fill:#0070c0;font-family:Segoe UI;font-size:0.666664em}
		.st8 {fill:none;stroke:none;stroke-linecap:round;stroke-linejoin:round;stroke-width:0.75}
		.st9 {marker-end:url(#mrkr4-48);stroke:#5b9bd5;stroke-linecap:round;stroke-linejoin:round;stroke-width:2.25}
		.st10 {fill:#5b9bd5;fill-opacity:1;stroke:#5b9bd5;stroke-opacity:1;stroke-width:0.55555555555556}
		.st11 {fill:#000000;font-family:Segoe UI;font-size:0.666664em}
		.st12 {marker-end:url(#mrkr4-48);stroke:#5b9bd5;stroke-width:2.25}
		.st13 {font-size:1em}
		.st14 {stroke:#5b9bd5;stroke-width:2.25}
		.st15 {fill:#ffffff;stroke:#0078d7;stroke-width:0.75}
		.st16 {fill:#0078d7;font-family:Segoe UI;font-size:0.75em}
		.st17 {fill:#00188f;stroke:none;stroke-linecap:butt;stroke-width:0.75}
		.st18 {fill:#0070c0;stroke:none;stroke-linecap:butt;stroke-width:0.75}
		.st19 {marker-end:url(#mrkr4-48);marker-start:url(#mrkr4-104);stroke:#5b9bd5;stroke-width:2.25}
		.st20 {fill:none;stroke:#7f7f7f;stroke-dasharray:2.25,2.25;stroke-width:0.75}
		.st21 {marker-end:url(#mrkr4-150);stroke:#5b9bd5;stroke-linecap:round;stroke-linejoin:round;stroke-width:1}
		.st22 {fill:#5b9bd5;fill-opacity:1;stroke:#5b9bd5;stroke-opacity:1;stroke-width:0.35714285714286}
		.st23 {fill:#0078d7;font-family:Segoe UI;font-size:0.666664em}
		.st24 {fill:none;fill-rule:evenodd;font-size:12px;overflow:visible;stroke-linecap:square;stroke-miterlimit:3}
	]]>
	</style>

	<defs id="Markers">
		<g id="lend4">
			<path d="M 2 1 L 0 0 L 2 -1 L 2 1 " style="stroke:none"/>
		</g>
		<marker id="mrkr4-48" class="st10" v:arrowType="4" v:arrowSize="1" v:setback="3.6" refX="-3.6" orient="auto"
				markerUnits="strokeWidth" overflow="visible">
			<use xlink:href="#lend4" transform="scale(-1.8,-1.8) "/>
		</marker>
		<marker id="mrkr4-104" class="st10" v:arrowType="4" v:arrowSize="1" v:setback="3.44" refX="3.44" orient="auto"
				markerUnits="strokeWidth" overflow="visible">
			<use xlink:href="#lend4" transform="scale(1.8) "/>
		</marker>
		<marker id="mrkr4-150" class="st22" v:arrowType="4" v:arrowSize="1" v:setback="5.6" refX="-5.6" orient="auto"
				markerUnits="strokeWidth" overflow="visible">
			<use xlink:href="#lend4" transform="scale(-2.8,-2.8) "/>
		</marker>
	</defs>
	<g v:mID="0" v:index="2" v:groupContext="foregroundPage">
		<title>Hybrid</title>
		<v:pageProperties v:drawingScale="1" v:pageScale="1" v:drawingUnits="19" v:shadowOffsetX="9" v:shadowOffsetY="-9"/>
		<v:layer v:name="000-All" v:index="0"/>
		<g id="shape233-1" v:mID="233" v:groupContext="shape" transform="translate(50.8391,-633.5)">
			<title>Sheet.233</title>
			<rect x="0" y="680.261" width="78.3218" height="111.739" class="st1"/>
		</g>
		<g id="shape214-3" v:mID="214" v:groupContext="shape" transform="translate(149.249,-633.5)">
			<title>Sheet.214</title>
			<rect x="0" y="680.261" width="50.625" height="111.739" class="st1"/>
		</g>
		<g id="shape1-5" v:mID="1" v:groupContext="shape" transform="translate(139.5,-562.5)">
			<title>Virtual Network Box</title>
			<path d="M0 792 L407.25 792 L407.25 595 L0 595 L0 792 Z" class="st2"/>
		</g>
		<g id="shape76-7" v:mID="76" v:groupContext="shape" transform="translate(225,-570.85)">
			<title>Sheet.76</title>
			<rect x="0" y="741.85" width="117" height="50.15" class="st1"/>
		</g>
		<g id="group78-9" transform="translate(316.34,-578.01)" v:mID="78" v:groupContext="group">
			<title>Sheet.78</title>
			<g id="group79-10" transform="translate(3.08463,-0.700182)" v:mID="79" v:groupContext="group">
				<title>Sheet.79</title>
				<g id="shape80-11" v:mID="80" v:groupContext="shape" v:layerMember="0">
					<title>Lock, protected.1135</title>
					<path d="M14.31 780.02 L13.31 780.02 L13.31 778.16 C13.31 774.24 10.81 772.23 7.9 772.23 L7.42 772.23 C4.45 772.23
								 2.01 774.19 2.01 778.16 L2.01 780.02 L1.01 780.02 C0.58 780.02 0 780.6 0 781.03 L0 790.99 C-0 791.42
								 0.58 792 1.01 792 L14.31 792 C14.74 792 15.32 791.42 15.32 790.99 L15.32 781.03 C15.32 780.6 14.74
								 780.02 14.31 780.02 ZM8.43 785.9 L8.43 790.04 L6.94 790.04 L6.94 785.9 C6.36 785.64 5.94 785.06
								 5.94 784.37 C5.94 783.41 6.73 782.62 7.69 782.62 C8.64 782.62 9.44 783.41 9.44 784.37 C9.38 785
								 9.01 785.59 8.43 785.9 ZM11.45 780.02 L3.87 780.02 L3.87 778.16 C3.87 775.67 5.2 773.98 7.42 773.98
								 L7.9 773.98 C10.18 773.98 11.45 775.67 11.45 778.16 L11.45 780.02 Z" class="st3"/>
				</g>
				<g id="shape81-13" v:mID="81" v:groupContext="shape" v:layerMember="0" transform="translate(2.28102,-0.389869)">
					<title>Sheet.81</title>
					<rect x="0" y="781.632" width="10.7581" height="10.3682" class="st3"/>
				</g>
			</g>
			<g id="shape82-15" v:mID="82" v:groupContext="shape">
				<title>Sheet.82</title>
				<desc>NSG</desc>
				<v:textBlock v:margins="rect(0,0,0,0)"/>
				<v:textRect cx="10.7447" cy="785.68" width="21.49" height="12.6408"/>
				<rect x="0" y="779.359" width="21.4894" height="12.6408" class="st4"/>
				<text x="4.72" y="787.48" class="st5" v:langID="1033"><v:paragraph v:horizAlign="1"/><v:tabList/>NSG</text>			</g>
		</g>
		<g id="group94-18" transform="translate(522.337,-569.25)" v:mID="94" v:groupContext="group">
			<title>Sheet.94</title>
			<g id="shape95-19" v:mID="95" v:groupContext="shape">
				<title>Sheet.95</title>
				<rect x="0" y="782.614" width="17.325" height="9.3862" class="st6"/>
			</g>
			<g id="group96-21" v:mID="96" v:groupContext="group">
				<title>Virtual Network</title>
				<g id="shape97-22" v:mID="97" v:groupContext="shape" transform="translate(12.0617,0)">
					<title>Sheet.97</title>
					<path d="M5.26 787.31 L4.21 786.25 L0.57 782.61 L0 783.23 L4.08 787.31 L0 791.39 L0.57 792 L4.21 788.36 L5.26
								 787.31 Z" class="st3"/>
				</g>
				<g id="shape98-24" v:mID="98" v:groupContext="shape">
					<title>Sheet.98</title>
					<path d="M0 787.31 L1.05 786.25 L4.69 782.61 L5.26 783.23 L1.18 787.31 L5.26 791.39 L4.69 792 L1.05 788.36 L0
								 787.31 Z" class="st3"/>
				</g>
				<g id="shape99-26" v:mID="99" v:groupContext="shape" transform="translate(4.4738,-3.64044)">
					<title>Sheet.99</title>
					<path d="M2.11 790.95 C2.11 791.52 1.62 792 1.05 792 C0.44 792 0 791.52 0 790.95 C0 790.38 0.48 789.89 1.05 789.89
								 C1.62 789.89 2.11 790.33 2.11 790.95 Z" class="st3"/>
				</g>
				<g id="shape100-28" v:mID="100" v:groupContext="shape" transform="translate(7.63177,-3.64044)">
					<title>Sheet.100</title>
					<ellipse cx="1.05266" cy="790.947" rx="1.05266" ry="1.05266" class="st3"/>
				</g>
				<g id="shape101-30" v:mID="101" v:groupContext="shape" transform="translate(10.7897,-3.64044)">
					<title>Sheet.101</title>
					<ellipse cx="1.05266" cy="790.947" rx="1.05266" ry="1.05266" class="st3"/>
				</g>
			</g>
		</g>
		<g id="shape102-32" v:mID="102" v:groupContext="shape" transform="translate(445.5,-567)">
			<title>Sheet.102</title>
			<desc>Virtual network</desc>
			<v:textBlock v:margins="rect(4,4,4,4)"/>
			<v:textRect cx="45.7234" cy="784.75" width="91.45" height="14.5"/>
			<rect x="0" y="777.5" width="91.4468" height="14.5" class="st4"/>
			<text x="18.84" y="787.15" class="st7" v:langID="1033"><v:paragraph v:horizAlign="1"/><v:tabList/>Virtual network</text>		</g>
		<g id="group105-35" transform="translate(231.607,-587.897)" v:mID="105" v:groupContext="group">
			<title>Virtual machine</title>
			<g id="shape106-36" v:mID="106" v:groupContext="shape" transform="translate(10.6837,-11.7195)">
				<title>Sheet.106</title>
				<path d="M0 792 L12.32 792 L12.32 783.74 L0 783.74 L0 792 ZM8.87 789.59 L6.56 790.93 L6.56 788.26 L8.87 786.92 L8.87
							 789.59 ZM6.35 785.21 L8.66 786.55 L6.36 787.88 L4.04 786.54 L6.35 785.21 ZM3.81 786.91 L6.13 788.24
							 L6.13 790.93 L3.81 789.59 L3.81 786.91 Z" class="st3"/>
			</g>
			<g id="shape107-38" v:mID="107" v:groupContext="shape">
				<title>Sheet.107</title>
				<path d="M31.19 765.89 L1.44 765.89 C0.65 765.89 0 766.54 0 767.33 L0 790.56 C0 791.36 0.65 792 1.44 792 L31.19 792
							 C31.99 792 32.63 791.36 32.63 790.56 L32.63 767.33 C32.63 766.54 31.99 765.89 31.19 765.89 ZM16.21 787.51
							 L15.3 790.2 C15.29 790.23 15.28 790.25 15.27 790.27 C15.26 790.29 15.24 790.3 15.21 790.31 C15.18 790.31
							 15.14 790.32 15.1 790.32 C15.05 790.33 14.98 790.33 14.9 790.33 C14.84 790.33 14.79 790.33 14.74 790.33
							 C14.7 790.32 14.66 790.32 14.63 790.32 C14.6 790.32 14.57 790.31 14.55 790.3 C14.53 790.3 14.52 790.29
							 14.5 790.28 C14.49 790.27 14.48 790.26 14.47 790.25 C14.47 790.23 14.46 790.22 14.45 790.2 L13.55 787.5
							 C13.53 787.45 13.52 787.4 13.51 787.37 C13.51 787.33 13.52 787.31 13.54 787.29 C13.56 787.28 13.59 787.27
							 13.64 787.26 C13.68 787.26 13.75 787.26 13.83 787.26 C13.91 787.26 13.96 787.26 14 787.26 C14.04 787.26
							 14.08 787.27 14.1 787.28 C14.12 787.28 14.13 787.3 14.14 787.31 C14.15 787.33 14.16 787.35 14.17 787.37
							 L14.91 789.72 L14.91 789.72 L15.64 787.38 C15.64 787.36 15.65 787.33 15.66 787.32 C15.67 787.3 15.68
							 787.29 15.71 787.28 C15.73 787.27 15.76 787.26 15.8 787.26 C15.85 787.26 15.9 787.26 15.98 787.26 C16.05
							 787.26 16.11 787.26 16.15 787.26 C16.19 787.27 16.21 787.28 16.23 787.3 C16.24 787.32 16.25 787.34 16.24
							 787.37 C16.24 787.41 16.23 787.45 16.21 787.51 ZM20.18 790.23 C20.18 790.24 20.18 790.26 20.17 790.27
							 C20.16 790.28 20.14 790.29 20.12 790.3 C20.1 790.31 20.07 790.32 20.03 790.32 C19.99 790.32 19.94 790.33
							 19.89 790.33 C19.83 790.33 19.78 790.32 19.74 790.32 C19.71 790.32 19.68 790.31 19.66 790.3 C19.63 790.29
							 19.62 790.28 19.61 790.27 C19.6 790.26 19.59 790.24 19.59 790.23 L19.59 787.75 L19.59 787.75 L18.71
							 790.23 C18.7 790.25 18.69 790.26 18.68 790.28 C18.66 790.29 18.64 790.3 18.62 790.31 C18.6 790.32 18.56
							 790.32 18.53 790.32 C18.49 790.33 18.44 790.33 18.39 790.33 C18.34 790.33 18.29 790.33 18.25 790.32
							 C18.22 790.32 18.18 790.31 18.16 790.3 C18.14 790.29 18.12 790.28 18.1 790.27 C18.09 790.26 18.08 790.24
							 18.07 790.23 L17.22 787.75 L17.22 787.75 L17.22 790.23 C17.22 790.24 17.21 790.26 17.21 790.27 C17.2
							 790.28 17.18 790.29 17.16 790.3 C17.13 790.31 17.1 790.32 17.07 790.32 C17.03 790.32 16.98 790.33 16.92
							 790.33 C16.87 790.33 16.82 790.32 16.78 790.32 C16.75 790.32 16.72 790.31 16.69 790.3 C16.67 790.29
							 16.65 790.28 16.65 790.27 C16.64 790.26 16.63 790.24 16.63 790.23 L16.63 787.52 C16.63 787.44 16.65
							 787.38 16.7 787.33 C16.74 787.29 16.79 787.27 16.87 787.27 L17.27 787.27 C17.34 787.27 17.4 787.28 17.46
							 787.29 C17.51 787.3 17.55 787.32 17.59 787.35 C17.63 787.38 17.66 787.41 17.68 787.46 C17.71 787.5 17.73
							 787.56 17.75 787.62 L18.41 789.43 L18.42 789.43 L19.1 787.63 C19.12 787.56 19.14 787.51 19.17 787.46
							 C19.19 787.41 19.22 787.38 19.25 787.35 C19.28 787.32 19.32 787.3 19.36 787.29 C19.41 787.28 19.46 787.27
							 19.52 787.27 L19.93 787.27 C19.98 787.27 20.01 787.28 20.04 787.29 C20.07 787.3 20.1 787.31 20.12 787.34
							 C20.14 787.36 20.15 787.38 20.16 787.41 C20.17 787.44 20.18 787.48 20.18 787.52 L20.18 790.23 L20.18
							 790.23 ZM24.01 780.5 C24.01 780.94 23.67 781.28 23.23 781.28 L18.75 781.28 C18.32 783.04 18.52 783.25
							 21.55 783.25 L21.55 783.97 L18.02 783.97 L15.45 783.97 L12.14 783.97 L12.14 783.25 C14.86 783.25 15.31
							 783.04 14.88 781.28 L10.46 781.28 C10.03 781.28 9.68 780.94 9.68 780.5 L9.68 771.8 C9.68 771.37 10.03
							 771.01 10.46 771.01 L23.23 771.01 C23.67 771.01 24.01 771.37 24.01 771.8 L24.01 780.5 L24.01 780.5 Z"
						class="st3"/>
			</g>
		</g>
		<g id="shape108-40" v:mID="108" v:groupContext="shape" transform="translate(225.846,-569.85)">
			<title>Sheet.108</title>
			<desc>Jumpbox</desc>
			<v:textBlock v:margins="rect(4,2,4,2)"/>
			<v:textRect cx="22.0769" cy="782" width="44.16" height="20"/>
			<rect x="0" y="772" width="44.1538" height="20" class="st8"/>
			<text x="6.06" y="784.4" class="st7" v:langID="1033"><v:paragraph v:horizAlign="1"/><v:tabList/>Jumpbox</text>		</g>
		<g id="shape198-43" v:mID="198" v:groupContext="shape" transform="translate(216,-688.07)">
			<title>Sheet.198</title>
			<path d="M0 792 L4.03 792" class="st9"/>
		</g>
		<g id="shape216-49" v:mID="216" v:groupContext="shape" transform="translate(128.622,-744.05)">
			<title>Sheet.216</title>
			<desc>Gateway subnet</desc>
			<v:textBlock v:margins="rect(4,4,4,4)"/>
			<v:textRect cx="45.9388" cy="784.75" width="91.88" height="14.5"/>
			<rect x="0" y="777.5" width="91.8777" height="14.5" class="st4"/>
			<text x="17.73" y="787.15" class="st11" v:langID="1033"><v:paragraph v:horizAlign="1"/><v:tabList/>Gateway subnet</text>		</g>
		<g id="shape217-52" v:mID="217" v:groupContext="shape" transform="translate(177.268,-601.134) rotate(0.195799)">
			<title>Sheet.217</title>
			<path d="M0 792 L47.26 792" class="st12"/>
		</g>
		<g id="shape218-57" v:mID="218" v:groupContext="shape" transform="translate(260.851,-587.897)">
			<title>Sheet.218</title>
			<desc>Management subnet</desc>
			<v:textBlock v:margins="rect(4,4,4,4)"/>
			<v:textRect cx="36.2024" cy="779.4" width="72.41" height="25.2"/>
			<rect x="0" y="766.8" width="72.4048" height="25.2" class="st4"/>
			<text x="12.67" y="777" class="st11" v:langID="1033"><v:paragraph v:horizAlign="1"/><v:tabList/>Management <tspan
						x="24.18" dy="1.2em" class="st13">subnet</tspan></text>		</g>
		<g id="shape219-61" v:mID="219" v:groupContext="shape" transform="translate(-617.439,190.862) rotate(-90)">
			<title>Sheet.219</title>
			<path d="M0 792 L74.53 792" class="st14"/>
		</g>
		<g id="shape222-64" v:mID="222" v:groupContext="shape" transform="translate(212.7,858.303) rotate(180)">
			<title>Sheet.222</title>
			<path d="M0 792 L21.14 792" class="st14"/>
		</g>
		<g id="shape213-67" v:mID="213" v:groupContext="shape" transform="translate(157.561,-717.527)">
			<title>Sheet.213</title>
			<desc>UDR</desc>
			<v:textBlock v:margins="rect(4,4,4,4)"/>
			<v:textRect cx="17" cy="781.763" width="34.01" height="20.4732"/>
			<rect x="0" y="771.527" width="34" height="20.4732" class="st15"/>
			<text x="8.06" y="784.46" class="st16" v:langID="1033"><v:paragraph v:horizAlign="1"/><v:tabList/>UDR</text>		</g>
		<g id="shape223-70" v:mID="223" v:groupContext="shape" transform="translate(-617.439,89.19) rotate(-90)">
			<title>Sheet.223</title>
			<path d="M0 792 L7.85 792" class="st12"/>
		</g>
		<g id="shape212-75" v:mID="212" v:groupContext="shape" v:layerMember="0" transform="translate(161.292,-676.1)">
			<title>Gateway.1001</title>
			<path d="M13.27 765.46 C5.94 765.46 0 771.4 0 778.73 C0 786.06 5.94 792 13.27 792 C20.6 792 26.54 786.06 26.54 778.73
						 C26.54 771.4 20.6 765.46 13.27 765.46 ZM12.06 771.49 L12.06 767.27 L14.48 767.27 L14.48 771.49 L15.68 771.49
						 L13.27 776.37 L10.86 771.49 L12.06 771.49 ZM6.63 781.14 L1.76 778.73 L6.63 776.32 L6.63 777.52 L10.86 777.52
						 L10.86 779.94 L6.63 779.94 L6.63 781.14 ZM14.48 785.37 L14.48 789.59 L12.06 789.59 L12.06 785.37 L10.86
						 785.37 L13.27 780.49 L15.68 785.37 L14.48 785.37 ZM19.9 781.14 L19.9 779.94 L15.68 779.94 L15.68 777.52
						 L19.9 777.52 L19.9 776.32 L24.78 778.73 L19.9 781.14 Z" class="st17"/>
		</g>
		<g id="shape234-77" v:mID="234" v:groupContext="shape" v:layerMember="0" transform="translate(90.6756,-676.1)">
			<title>Gateway.234</title>
			<path d="M13.27 765.46 C5.94 765.46 0 771.4 0 778.73 C0 786.06 5.94 792 13.27 792 C20.6 792 26.54 786.06 26.54 778.73
						 C26.54 771.4 20.6 765.46 13.27 765.46 ZM12.06 771.49 L12.06 767.27 L14.48 767.27 L14.48 771.49 L15.68 771.49
						 L13.27 776.37 L10.86 771.49 L12.06 771.49 ZM6.63 781.14 L1.76 778.73 L6.63 776.32 L6.63 777.52 L10.86 777.52
						 L10.86 779.94 L6.63 779.94 L6.63 781.14 ZM14.48 785.37 L14.48 789.59 L12.06 789.59 L12.06 785.37 L10.86
						 785.37 L13.27 780.49 L15.68 785.37 L14.48 785.37 ZM19.9 781.14 L19.9 779.94 L15.68 779.94 L15.68 777.52
						 L19.9 777.52 L19.9 776.32 L24.78 778.73 L19.9 781.14 Z" class="st17"/>
		</g>
		<g id="shape235-79" v:mID="235" v:groupContext="shape" transform="translate(44.0612,-744.525)">
			<title>Sheet.235</title>
			<desc>On-premises network</desc>
			<v:textBlock v:margins="rect(4,4,4,4)"/>
			<v:textRect cx="45.9388" cy="784.75" width="91.88" height="14.5"/>
			<rect x="0" y="777.5" width="91.8777" height="14.5" class="st4"/>
			<text x="7.91" y="787.15" class="st11" v:langID="1033"><v:paragraph v:horizAlign="1"/><v:tabList/>On-premises network</text>		</g>
		<g id="group236-82" transform="translate(57.4881,-648.884)" v:mID="236" v:groupContext="group">
			<title>Sheet.236</title>
			<g id="group224-83" transform="translate(0,-57.2455)" v:mID="224" v:groupContext="group" v:layerMember="0">
				<title>Computer.224</title>
				<g id="shape225-84" v:mID="225" v:groupContext="shape" v:layerMember="0"
						transform="translate(3.65086,-1.13687E-13)">
					<title>Sheet.225</title>
					<path d="M11.28 787.06 L10.71 787.06 L5.12 787.06 L4.83 787.06 C5.6 790.02 4.56 790.45 0 790.45 L0 792 L5.8 792
								 L10.04 792 L15.51 792 L15.51 790.45 C10.95 790.45 10.5 790.02 11.28 787.06 Z" class="st18"/>
				</g>
				<g id="shape226-86" v:mID="226" v:groupContext="shape" v:layerMember="0" transform="translate(0,-4.94247)">
					<title>Sheet.226</title>
					<path d="M22.29 773.22 L1.29 773.22 C0.58 773.22 0 773.91 0 774.68 L0 790.55 C0 791.32 0.58 792 1.29 792 L22.29
								 792 C23 792 23.73 791.32 23.73 790.55 L23.73 774.68 C23.73 773.91 23 773.22 22.29 773.22 ZM21.9
								 775.19 L21.9 790.02 L1.83 790.02 L1.83 775.19 L21.96 775.16 L21.9 775.19 Z" class="st18"/>
				</g>
			</g>
			<g id="group227-88" transform="translate(0,-28.6227)" v:mID="227" v:groupContext="group" v:layerMember="0">
				<title>Computer.227</title>
				<g id="shape228-89" v:mID="228" v:groupContext="shape" v:layerMember="0"
						transform="translate(3.65086,-1.13687E-13)">
					<title>Sheet.228</title>
					<path d="M11.28 787.06 L10.71 787.06 L5.12 787.06 L4.83 787.06 C5.6 790.02 4.56 790.45 0 790.45 L0 792 L5.8 792
								 L10.04 792 L15.51 792 L15.51 790.45 C10.95 790.45 10.5 790.02 11.28 787.06 Z" class="st18"/>
				</g>
				<g id="shape229-91" v:mID="229" v:groupContext="shape" v:layerMember="0" transform="translate(0,-4.94247)">
					<title>Sheet.229</title>
					<path d="M22.29 773.22 L1.29 773.22 C0.58 773.22 0 773.91 0 774.68 L0 790.55 C0 791.32 0.58 792 1.29 792 L22.29
								 792 C23 792 23.73 791.32 23.73 790.55 L23.73 774.68 C23.73 773.91 23 773.22 22.29 773.22 ZM21.9
								 775.19 L21.9 790.02 L1.83 790.02 L1.83 775.19 L21.96 775.16 L21.9 775.19 Z" class="st18"/>
				</g>
			</g>
			<g id="group230-93" v:mID="230" v:groupContext="group" v:layerMember="0">
				<title>Computer.230</title>
				<g id="shape231-94" v:mID="231" v:groupContext="shape" v:layerMember="0"
						transform="translate(3.65086,-1.13687E-13)">
					<title>Sheet.231</title>
					<path d="M11.28 787.06 L10.71 787.06 L5.12 787.06 L4.83 787.06 C5.6 790.02 4.56 790.45 0 790.45 L0 792 L5.8 792
								 L10.04 792 L15.51 792 L15.51 790.45 C10.95 790.45 10.5 790.02 11.28 787.06 Z" class="st18"/>
				</g>
				<g id="shape232-96" v:mID="232" v:groupContext="shape" v:layerMember="0" transform="translate(0,-4.94247)">
					<title>Sheet.232</title>
					<path d="M22.29 773.22 L1.29 773.22 C0.58 773.22 0 773.91 0 774.68 L0 790.55 C0 791.32 0.58 792 1.29 792 L22.29
								 792 C23 792 23.73 791.32 23.73 790.55 L23.73 774.68 C23.73 773.91 23 773.22 22.29 773.22 ZM21.9
								 775.19 L21.9 790.02 L1.83 790.02 L1.83 775.19 L21.96 775.16 L21.9 775.19 Z" class="st18"/>
				</g>
			</g>
		</g>
		<g id="shape237-98" v:mID="237" v:groupContext="shape" transform="translate(117.516,-689.37)">
			<title>Sheet.237</title>
			<path d="M7.74 792 L8.1 792 L35.37 792" class="st19"/>
		</g>
		<g id="shape19-106" v:mID="19" v:groupContext="shape" transform="translate(230.194,-741.5)">
			<title>Sheet.19</title>
			<desc>Web tier</desc>
			<v:textBlock v:margins="rect(4,4,4,4)"/>
			<v:textRect cx="45.9388" cy="784.75" width="91.88" height="14.5"/>
			<rect x="0" y="777.5" width="91.8777" height="14.5" class="st4"/>
			<text x="30.86" y="787.15" class="st11" v:langID="1033"><v:paragraph v:horizAlign="1"/><v:tabList/>Web tier</text>		</g>
		<g id="shape45-109" v:mID="45" v:groupContext="shape" transform="translate(334.475,-741.5)">
			<title>Sheet.45</title>
			<desc>Business tier</desc>
			<v:textBlock v:margins="rect(4,4,4,4)"/>
			<v:textRect cx="51.0125" cy="784.75" width="102.03" height="14.5"/>
			<rect x="0" y="777.5" width="102.025" height="14.5" class="st4"/>
			<text x="29.14" y="787.15" class="st11" v:langID="1033"><v:paragraph v:horizAlign="1"/><v:tabList/>Business tier</text>		</g>
		<g id="shape61-112" v:mID="61" v:groupContext="shape" transform="translate(442.497,-741.12)">
			<title>Sheet.61</title>
			<desc>Data tier</desc>
			<v:textBlock v:margins="rect(4,4,4,4)"/>
			<v:textRect cx="48.0027" cy="784.75" width="96.01" height="14.5"/>
			<rect x="0" y="777.5" width="96.0054" height="14.5" class="st4"/>
			<text x="32.87" y="787.15" class="st11" v:langID="1033"><v:paragraph v:horizAlign="1"/><v:tabList/>Data tier</text>		</g>
		<g id="group296-115" transform="translate(228.13,-630.57)" v:mID="296" v:groupContext="group">
			<title>Sheet.296</title>
			<g id="shape2-116" v:mID="2" v:groupContext="shape" transform="translate(2.56522,0)">
				<title>Sheet.2</title>
				<rect x="0" y="680.261" width="92.8125" height="111.739" class="st1"/>
			</g>
			<g id="group3-118" transform="translate(63.3729,-10.9463)" v:mID="3" v:groupContext="group">
				<title>Sheet.3</title>
				<g id="group4-119" transform="translate(-12.9337,-64.4985)" v:mID="4" v:groupContext="group">
					<title>Virtual machine</title>
					<g id="shape5-120" v:mID="5" v:groupContext="shape" transform="translate(10.6837,-11.7195)">
						<title>Sheet.5</title>
						<path d="M0 792 L12.32 792 L12.32 783.74 L0 783.74 L0 792 ZM8.87 789.59 L6.56 790.93 L6.56 788.26 L8.87 786.92
									 L8.87 789.59 ZM6.35 785.21 L8.66 786.55 L6.36 787.88 L4.04 786.54 L6.35 785.21 ZM3.81 786.91
									 L6.13 788.24 L6.13 790.93 L3.81 789.59 L3.81 786.91 Z" class="st3"/>
					</g>
					<g id="shape6-122" v:mID="6" v:groupContext="shape">
						<title>Sheet.6</title>
						<path d="M31.19 765.89 L1.44 765.89 C0.65 765.89 0 766.54 0 767.33 L0 790.56 C0 791.36 0.65 792 1.44 792
									 L31.19 792 C31.99 792 32.63 791.36 32.63 790.56 L32.63 767.33 C32.63 766.54 31.99 765.89 31.19
									 765.89 ZM16.21 787.51 L15.3 790.2 C15.29 790.23 15.28 790.25 15.27 790.27 C15.26 790.29 15.24
									 790.3 15.21 790.31 C15.18 790.31 15.14 790.32 15.1 790.32 C15.05 790.33 14.98 790.33 14.9 790.33
									 C14.84 790.33 14.79 790.33 14.74 790.33 C14.7 790.32 14.66 790.32 14.63 790.32 C14.6 790.32
									 14.57 790.31 14.55 790.3 C14.53 790.3 14.52 790.29 14.5 790.28 C14.49 790.27 14.48 790.26 14.47
									 790.25 C14.47 790.23 14.46 790.22 14.45 790.2 L13.55 787.5 C13.53 787.45 13.52 787.4 13.51 787.37
									 C13.51 787.33 13.52 787.31 13.54 787.29 C13.56 787.28 13.59 787.27 13.64 787.26 C13.68 787.26
									 13.75 787.26 13.83 787.26 C13.91 787.26 13.96 787.26 14 787.26 C14.04 787.26 14.08 787.27 14.1
									 787.28 C14.12 787.28 14.13 787.3 14.14 787.31 C14.15 787.33 14.16 787.35 14.17 787.37 L14.91
									 789.72 L14.91 789.72 L15.64 787.38 C15.64 787.36 15.65 787.33 15.66 787.32 C15.67 787.3 15.68
									 787.29 15.71 787.28 C15.73 787.27 15.76 787.26 15.8 787.26 C15.85 787.26 15.9 787.26 15.98 787.26
									 C16.05 787.26 16.11 787.26 16.15 787.26 C16.19 787.27 16.21 787.28 16.23 787.3 C16.24 787.32
									 16.25 787.34 16.24 787.37 C16.24 787.41 16.23 787.45 16.21 787.51 ZM20.18 790.23 C20.18 790.24
									 20.18 790.26 20.17 790.27 C20.16 790.28 20.14 790.29 20.12 790.3 C20.1 790.31 20.07 790.32 20.03
									 790.32 C19.99 790.32 19.94 790.33 19.89 790.33 C19.83 790.33 19.78 790.32 19.74 790.32 C19.71
									 790.32 19.68 790.31 19.66 790.3 C19.63 790.29 19.62 790.28 19.61 790.27 C19.6 790.26 19.59 790.24
									 19.59 790.23 L19.59 787.75 L19.59 787.75 L18.71 790.23 C18.7 790.25 18.69 790.26 18.68 790.28
									 C18.66 790.29 18.64 790.3 18.62 790.31 C18.6 790.32 18.56 790.32 18.53 790.32 C18.49 790.33
									 18.44 790.33 18.39 790.33 C18.34 790.33 18.29 790.33 18.25 790.32 C18.22 790.32 18.18 790.31
									 18.16 790.3 C18.14 790.29 18.12 790.28 18.1 790.27 C18.09 790.26 18.08 790.24 18.07 790.23 L17.22
									 787.75 L17.22 787.75 L17.22 790.23 C17.22 790.24 17.21 790.26 17.21 790.27 C17.2 790.28 17.18
									 790.29 17.16 790.3 C17.13 790.31 17.1 790.32 17.07 790.32 C17.03 790.32 16.98 790.33 16.92 790.33
									 C16.87 790.33 16.82 790.32 16.78 790.32 C16.75 790.32 16.72 790.31 16.69 790.3 C16.67 790.29
									 16.65 790.28 16.65 790.27 C16.64 790.26 16.63 790.24 16.63 790.23 L16.63 787.52 C16.63 787.44
									 16.65 787.38 16.7 787.33 C16.74 787.29 16.79 787.27 16.87 787.27 L17.27 787.27 C17.34 787.27
									 17.4 787.28 17.46 787.29 C17.51 787.3 17.55 787.32 17.59 787.35 C17.63 787.38 17.66 787.41 17.68
									 787.46 C17.71 787.5 17.73 787.56 17.75 787.62 L18.41 789.43 L18.42 789.43 L19.1 787.63 C19.12
									 787.56 19.14 787.51 19.17 787.46 C19.19 787.41 19.22 787.38 19.25 787.35 C19.28 787.32 19.32
									 787.3 19.36 787.29 C19.41 787.28 19.46 787.27 19.52 787.27 L19.93 787.27 C19.98 787.27 20.01
									 787.28 20.04 787.29 C20.07 787.3 20.1 787.31 20.12 787.34 C20.14 787.36 20.15 787.38 20.16 787.41
									 C20.17 787.44 20.18 787.48 20.18 787.52 L20.18 790.23 L20.18 790.23 ZM24.01 780.5 C24.01 780.94
									 23.67 781.28 23.23 781.28 L18.75 781.28 C18.32 783.04 18.52 783.25 21.55 783.25 L21.55 783.97
									 L18.02 783.97 L15.45 783.97 L12.14 783.97 L12.14 783.25 C14.86 783.25 15.31 783.04 14.88 781.28
									 L10.46 781.28 C10.03 781.28 9.68 780.94 9.68 780.5 L9.68 771.8 C9.68 771.37 10.03 771.01 10.46
									 771.01 L23.23 771.01 C23.67 771.01 24.01 771.37 24.01 771.8 L24.01 780.5 L24.01 780.5 Z"
								class="st3"/>
					</g>
				</g>
				<g id="group7-124" transform="translate(-12.9337,-32.2492)" v:mID="7" v:groupContext="group">
					<title>Virtual machine.76</title>
					<g id="shape8-125" v:mID="8" v:groupContext="shape" transform="translate(10.6837,-11.7195)">
						<title>Sheet.8</title>
						<path d="M0 792 L12.32 792 L12.32 783.74 L0 783.74 L0 792 ZM8.87 789.59 L6.56 790.93 L6.56 788.26 L8.87 786.92
									 L8.87 789.59 ZM6.35 785.21 L8.66 786.55 L6.36 787.88 L4.04 786.54 L6.35 785.21 ZM3.81 786.91
									 L6.13 788.24 L6.13 790.93 L3.81 789.59 L3.81 786.91 Z" class="st3"/>
					</g>
					<g id="shape9-127" v:mID="9" v:groupContext="shape">
						<title>Sheet.9</title>
						<path d="M31.19 765.89 L1.44 765.89 C0.65 765.89 0 766.54 0 767.33 L0 790.56 C0 791.36 0.65 792 1.44 792
									 L31.19 792 C31.99 792 32.63 791.36 32.63 790.56 L32.63 767.33 C32.63 766.54 31.99 765.89 31.19
									 765.89 ZM16.21 787.51 L15.3 790.2 C15.29 790.23 15.28 790.25 15.27 790.27 C15.26 790.29 15.24
									 790.3 15.21 790.31 C15.18 790.31 15.14 790.32 15.1 790.32 C15.05 790.33 14.98 790.33 14.9 790.33
									 C14.84 790.33 14.79 790.33 14.74 790.33 C14.7 790.32 14.66 790.32 14.63 790.32 C14.6 790.32
									 14.57 790.31 14.55 790.3 C14.53 790.3 14.52 790.29 14.5 790.28 C14.49 790.27 14.48 790.26 14.47
									 790.25 C14.47 790.23 14.46 790.22 14.45 790.2 L13.55 787.5 C13.53 787.45 13.52 787.4 13.51 787.37
									 C13.51 787.33 13.52 787.31 13.54 787.29 C13.56 787.28 13.59 787.27 13.64 787.26 C13.68 787.26
									 13.75 787.26 13.83 787.26 C13.91 787.26 13.96 787.26 14 787.26 C14.04 787.26 14.08 787.27 14.1
									 787.28 C14.12 787.28 14.13 787.3 14.14 787.31 C14.15 787.33 14.16 787.35 14.17 787.37 L14.91
									 789.72 L14.91 789.72 L15.64 787.38 C15.64 787.36 15.65 787.33 15.66 787.32 C15.67 787.3 15.68
									 787.29 15.71 787.28 C15.73 787.27 15.76 787.26 15.8 787.26 C15.85 787.26 15.9 787.26 15.98 787.26
									 C16.05 787.26 16.11 787.26 16.15 787.26 C16.19 787.27 16.21 787.28 16.23 787.3 C16.24 787.32
									 16.25 787.34 16.24 787.37 C16.24 787.41 16.23 787.45 16.21 787.51 ZM20.18 790.23 C20.18 790.24
									 20.18 790.26 20.17 790.27 C20.16 790.28 20.14 790.29 20.12 790.3 C20.1 790.31 20.07 790.32 20.03
									 790.32 C19.99 790.32 19.94 790.33 19.89 790.33 C19.83 790.33 19.78 790.32 19.74 790.32 C19.71
									 790.32 19.68 790.31 19.66 790.3 C19.63 790.29 19.62 790.28 19.61 790.27 C19.6 790.26 19.59 790.24
									 19.59 790.23 L19.59 787.75 L19.59 787.75 L18.71 790.23 C18.7 790.25 18.69 790.26 18.68 790.28
									 C18.66 790.29 18.64 790.3 18.62 790.31 C18.6 790.32 18.56 790.32 18.53 790.32 C18.49 790.33
									 18.44 790.33 18.39 790.33 C18.34 790.33 18.29 790.33 18.25 790.32 C18.22 790.32 18.18 790.31
									 18.16 790.3 C18.14 790.29 18.12 790.28 18.1 790.27 C18.09 790.26 18.08 790.24 18.07 790.23 L17.22
									 787.75 L17.22 787.75 L17.22 790.23 C17.22 790.24 17.21 790.26 17.21 790.27 C17.2 790.28 17.18
									 790.29 17.16 790.3 C17.13 790.31 17.1 790.32 17.07 790.32 C17.03 790.32 16.98 790.33 16.92 790.33
									 C16.87 790.33 16.82 790.32 16.78 790.32 C16.75 790.32 16.72 790.31 16.69 790.3 C16.67 790.29
									 16.65 790.28 16.65 790.27 C16.64 790.26 16.63 790.24 16.63 790.23 L16.63 787.52 C16.63 787.44
									 16.65 787.38 16.7 787.33 C16.74 787.29 16.79 787.27 16.87 787.27 L17.27 787.27 C17.34 787.27
									 17.4 787.28 17.46 787.29 C17.51 787.3 17.55 787.32 17.59 787.35 C17.63 787.38 17.66 787.41 17.68
									 787.46 C17.71 787.5 17.73 787.56 17.75 787.62 L18.41 789.43 L18.42 789.43 L19.1 787.63 C19.12
									 787.56 19.14 787.51 19.17 787.46 C19.19 787.41 19.22 787.38 19.25 787.35 C19.28 787.32 19.32
									 787.3 19.36 787.29 C19.41 787.28 19.46 787.27 19.52 787.27 L19.93 787.27 C19.98 787.27 20.01
									 787.28 20.04 787.29 C20.07 787.3 20.1 787.31 20.12 787.34 C20.14 787.36 20.15 787.38 20.16 787.41
									 C20.17 787.44 20.18 787.48 20.18 787.52 L20.18 790.23 L20.18 790.23 ZM24.01 780.5 C24.01 780.94
									 23.67 781.28 23.23 781.28 L18.75 781.28 C18.32 783.04 18.52 783.25 21.55 783.25 L21.55 783.97
									 L18.02 783.97 L15.45 783.97 L12.14 783.97 L12.14 783.25 C14.86 783.25 15.31 783.04 14.88 781.28
									 L10.46 781.28 C10.03 781.28 9.68 780.94 9.68 780.5 L9.68 771.8 C9.68 771.37 10.03 771.01 10.46
									 771.01 L23.23 771.01 C23.67 771.01 24.01 771.37 24.01 771.8 L24.01 780.5 L24.01 780.5 Z"
								class="st3"/>
					</g>
				</g>
				<g id="group10-129" transform="translate(-12.9337,-1.13687E-13)" v:mID="10" v:groupContext="group">
					<title>Virtual machine.79</title>
					<g id="shape11-130" v:mID="11" v:groupContext="shape" transform="translate(10.6837,-11.7195)">
						<title>Sheet.11</title>
						<path d="M0 792 L12.32 792 L12.32 783.74 L0 783.74 L0 792 ZM8.87 789.59 L6.56 790.93 L6.56 788.26 L8.87 786.92
									 L8.87 789.59 ZM6.35 785.21 L8.66 786.55 L6.36 787.88 L4.04 786.54 L6.35 785.21 ZM3.81 786.91
									 L6.13 788.24 L6.13 790.93 L3.81 789.59 L3.81 786.91 Z" class="st3"/>
					</g>
					<g id="shape12-132" v:mID="12" v:groupContext="shape">
						<title>Sheet.12</title>
						<path d="M31.19 765.89 L1.44 765.89 C0.65 765.89 0 766.54 0 767.33 L0 790.56 C0 791.36 0.65 792 1.44 792
									 L31.19 792 C31.99 792 32.63 791.36 32.63 790.56 L32.63 767.33 C32.63 766.54 31.99 765.89 31.19
									 765.89 ZM16.21 787.51 L15.3 790.2 C15.29 790.23 15.28 790.25 15.27 790.27 C15.26 790.29 15.24
									 790.3 15.21 790.31 C15.18 790.31 15.14 790.32 15.1 790.32 C15.05 790.33 14.98 790.33 14.9 790.33
									 C14.84 790.33 14.79 790.33 14.74 790.33 C14.7 790.32 14.66 790.32 14.63 790.32 C14.6 790.32
									 14.57 790.31 14.55 790.3 C14.53 790.3 14.52 790.29 14.5 790.28 C14.49 790.27 14.48 790.26 14.47
									 790.25 C14.47 790.23 14.46 790.22 14.45 790.2 L13.55 787.5 C13.53 787.45 13.52 787.4 13.51 787.37
									 C13.51 787.33 13.52 787.31 13.54 787.29 C13.56 787.28 13.59 787.27 13.64 787.26 C13.68 787.26
									 13.75 787.26 13.83 787.26 C13.91 787.26 13.96 787.26 14 787.26 C14.04 787.26 14.08 787.27 14.1
									 787.28 C14.12 787.28 14.13 787.3 14.14 787.31 C14.15 787.33 14.16 787.35 14.17 787.37 L14.91
									 789.72 L14.91 789.72 L15.64 787.38 C15.64 787.36 15.65 787.33 15.66 787.32 C15.67 787.3 15.68
									 787.29 15.71 787.28 C15.73 787.27 15.76 787.26 15.8 787.26 C15.85 787.26 15.9 787.26 15.98 787.26
									 C16.05 787.26 16.11 787.26 16.15 787.26 C16.19 787.27 16.21 787.28 16.23 787.3 C16.24 787.32
									 16.25 787.34 16.24 787.37 C16.24 787.41 16.23 787.45 16.21 787.51 ZM20.18 790.23 C20.18 790.24
									 20.18 790.26 20.17 790.27 C20.16 790.28 20.14 790.29 20.12 790.3 C20.1 790.31 20.07 790.32 20.03
									 790.32 C19.99 790.32 19.94 790.33 19.89 790.33 C19.83 790.33 19.78 790.32 19.74 790.32 C19.71
									 790.32 19.68 790.31 19.66 790.3 C19.63 790.29 19.62 790.28 19.61 790.27 C19.6 790.26 19.59 790.24
									 19.59 790.23 L19.59 787.75 L19.59 787.75 L18.71 790.23 C18.7 790.25 18.69 790.26 18.68 790.28
									 C18.66 790.29 18.64 790.3 18.62 790.31 C18.6 790.32 18.56 790.32 18.53 790.32 C18.49 790.33
									 18.44 790.33 18.39 790.33 C18.34 790.33 18.29 790.33 18.25 790.32 C18.22 790.32 18.18 790.31
									 18.16 790.3 C18.14 790.29 18.12 790.28 18.1 790.27 C18.09 790.26 18.08 790.24 18.07 790.23 L17.22
									 787.75 L17.22 787.75 L17.22 790.23 C17.22 790.24 17.21 790.26 17.21 790.27 C17.2 790.28 17.18
									 790.29 17.16 790.3 C17.13 790.31 17.1 790.32 17.07 790.32 C17.03 790.32 16.98 790.33 16.92 790.33
									 C16.87 790.33 16.82 790.32 16.78 790.32 C16.75 790.32 16.72 790.31 16.69 790.3 C16.67 790.29
									 16.65 790.28 16.65 790.27 C16.64 790.26 16.63 790.24 16.63 790.23 L16.63 787.52 C16.63 787.44
									 16.65 787.38 16.7 787.33 C16.74 787.29 16.79 787.27 16.87 787.27 L17.27 787.27 C17.34 787.27
									 17.4 787.28 17.46 787.29 C17.51 787.3 17.55 787.32 17.59 787.35 C17.63 787.38 17.66 787.41 17.68
									 787.46 C17.71 787.5 17.73 787.56 17.75 787.62 L18.41 789.43 L18.42 789.43 L19.1 787.63 C19.12
									 787.56 19.14 787.51 19.17 787.46 C19.19 787.41 19.22 787.38 19.25 787.35 C19.28 787.32 19.32
									 787.3 19.36 787.29 C19.41 787.28 19.46 787.27 19.52 787.27 L19.93 787.27 C19.98 787.27 20.01
									 787.28 20.04 787.29 C20.07 787.3 20.1 787.31 20.12 787.34 C20.14 787.36 20.15 787.38 20.16 787.41
									 C20.17 787.44 20.18 787.48 20.18 787.52 L20.18 790.23 L20.18 790.23 ZM24.01 780.5 C24.01 780.94
									 23.67 781.28 23.23 781.28 L18.75 781.28 C18.32 783.04 18.52 783.25 21.55 783.25 L21.55 783.97
									 L18.02 783.97 L15.45 783.97 L12.14 783.97 L12.14 783.25 C14.86 783.25 15.31 783.04 14.88 781.28
									 L10.46 781.28 C10.03 781.28 9.68 780.94 9.68 780.5 L9.68 771.8 C9.68 771.37 10.03 771.01 10.46
									 771.01 L23.23 771.01 C23.67 771.01 24.01 771.37 24.01 771.8 L24.01 780.5 L24.01 780.5 Z"
								class="st3"/>
					</g>
				</g>
			</g>
			<g id="shape13-134" v:mID="13" v:groupContext="shape" transform="translate(44.6802,-4.5)">
				<title>Sheet.13</title>
				<path d="M0 792 L44.15 792 L44.15 689.26 L0 689.26 L0 792 Z" class="st20"/>
			</g>
			<g id="group20-136" transform="translate(3.63302,-88.7635)" v:mID="20" v:groupContext="group">
				<title>Sheet.20</title>
				<g id="group21-137" transform="translate(3.08463,-0.700182)" v:mID="21" v:groupContext="group">
					<title>Sheet.21</title>
					<g id="shape22-138" v:mID="22" v:groupContext="shape" v:layerMember="0">
						<title>Lock, protected.1135</title>
						<path d="M14.31 780.02 L13.31 780.02 L13.31 778.16 C13.31 774.24 10.81 772.23 7.9 772.23 L7.42 772.23 C4.45
									 772.23 2.01 774.19 2.01 778.16 L2.01 780.02 L1.01 780.02 C0.58 780.02 0 780.6 0 781.03 L0 790.99
									 C-0 791.42 0.58 792 1.01 792 L14.31 792 C14.74 792 15.32 791.42 15.32 790.99 L15.32 781.03 C15.32
									 780.6 14.74 780.02 14.31 780.02 ZM8.43 785.9 L8.43 790.04 L6.94 790.04 L6.94 785.9 C6.36 785.64
									 5.94 785.06 5.94 784.37 C5.94 783.41 6.73 782.62 7.69 782.62 C8.64 782.62 9.44 783.41 9.44 784.37
									 C9.38 785 9.01 785.59 8.43 785.9 ZM11.45 780.02 L3.87 780.02 L3.87 778.16 C3.87 775.67 5.2 773.98
									 7.42 773.98 L7.9 773.98 C10.18 773.98 11.45 775.67 11.45 778.16 L11.45 780.02 Z" class="st3"/>
					</g>
					<g id="shape23-140" v:mID="23" v:groupContext="shape" v:layerMember="0"
							transform="translate(2.28102,-0.389869)">
						<title>Sheet.23</title>
						<rect x="0" y="781.632" width="10.7581" height="10.3682" class="st3"/>
					</g>
				</g>
				<g id="shape24-142" v:mID="24" v:groupContext="shape">
					<title>Sheet.24</title>
					<desc>NSG</desc>
					<v:textBlock v:margins="rect(0,0,0,0)"/>
					<v:textRect cx="10.7447" cy="785.68" width="21.49" height="12.6408"/>
					<rect x="0" y="779.359" width="21.4894" height="12.6408" class="st4"/>
					<text x="4.72" y="787.48" class="st5" v:langID="1033"><v:paragraph v:horizAlign="1"/><v:tabList/>NSG</text>				</g>
			</g>
			<g id="shape191-145" v:mID="191" v:groupContext="shape" transform="translate(20.253,-57.4072) rotate(-0.877175)">
				<title>Sheet.191</title>
				<path d="M0 792 L10.78 792" class="st21"/>
			</g>
			<g id="shape192-151" v:mID="192" v:groupContext="shape" transform="translate(-674.893,378.085) rotate(-63.2551)">
				<title>Sheet.192</title>
				<path d="M0 792 L30.79 792" class="st21"/>
			</g>
			<g id="shape193-156" v:mID="193" v:groupContext="shape" transform="translate(737.397,373.652) rotate(62.8954)">
				<title>Sheet.193</title>
				<path d="M0 792 L30.35 792" class="st21"/>
			</g>
			<g id="group194-161" transform="translate(-6.39488E-14,-40.5)" v:mID="194" v:groupContext="group">
				<title>Azure load balancer.194</title>
				<g id="group195-162" transform="translate(2.6,-2.53462)" v:mID="195" v:groupContext="group">
					<title>Sheet.195</title>
					<g id="shape196-163" v:mID="196" v:groupContext="shape">
						<title>Sheet.196</title>
						<path d="M28 775.71 L16.29 764 C15.78 763.49 15.15 763.2 14.4 763.2 C13.71 763.2 13.02 763.49 12.51 764 L0.8
									 775.71 C0.29 776.22 0 776.85 0 777.6 C-0 778.29 0.29 778.98 0.8 779.49 L12.51 791.2 C13.02 791.71
									 13.65 792 14.4 792 C15.09 792 15.78 791.71 16.29 791.2 L28 779.49 C28.51 778.98 28.8 778.35
									 28.8 777.6 C28.74 776.85 28.46 776.17 28 775.71 ZM22.43 781.16 L22.43 778.52 L18.42 778.52 C18.01
									 779.89 16.92 780.98 15.55 781.39 L15.55 784.08 C16.12 784.48 16.98 785.4 16.98 786.38 C16.98
									 787.81 15.83 788.96 14.4 788.96 C12.97 788.96 11.82 787.81 11.82 786.38 C11.82 785.35 12.68
									 784.48 13.25 784.08 L13.25 781.44 C11.88 781.04 10.79 779.95 10.38 778.58 L6.37 778.58 L6.37
									 781.27 L2.58 777.49 L6.37 773.7 L6.37 776.34 L10.38 776.34 C10.79 774.96 11.88 773.87 13.25
									 773.47 L13.25 769.63 L10.61 769.63 L14.4 765.84 L18.19 769.63 L15.55 769.63 L15.55 773.47 C16.92
									 773.87 18.01 774.96 18.42 776.34 L22.43 776.34 L22.43 773.64 L26.22 777.43 L22.43 781.16 Z"
								class="st3"/>
					</g>
					<g id="shape197-165" v:mID="197" v:groupContext="shape" transform="translate(11.3594,-11.5888)">
						<title>Sheet.197</title>
						<path d="M3.04 785.92 C1.38 785.92 0 787.3 0 788.96 C0 790.62 1.38 792 3.04 792 C4.7 792 6.08 790.62 6.08
									 788.96 C6.08 787.3 4.7 785.92 3.04 785.92 Z" class="st3"/>
					</g>
				</g>
			</g>
		</g>
		<g id="shape297-167" v:mID="297" v:groupContext="shape" transform="translate(352.187,-687.074) rotate(2.04937)">
			<title>Sheet.297</title>
			<path d="M0 792 L5.04 792" class="st21"/>
		</g>
		<g id="shape349-172" v:mID="349" v:groupContext="shape" transform="translate(449.625,-687.334) rotate(1.42893)">
			<title>Sheet.349</title>
			<path d="M0 792 L9.66 792" class="st21"/>
		</g>
		<g id="group350-177" transform="translate(442.497,-629.7)" v:mID="350" v:groupContext="group">
			<title>Sheet.350</title>
			<g id="shape351-178" v:mID="351" v:groupContext="shape" transform="translate(2.56522,0)">
				<title>Sheet.351</title>
				<rect x="0" y="680.261" width="92.8125" height="111.739" class="st1"/>
			</g>
			<g id="group352-180" transform="translate(63.3729,-10.9463)" v:mID="352" v:groupContext="group">
				<title>Sheet.352</title>
				<g id="group353-181" transform="translate(-12.9337,-64.4985)" v:mID="353" v:groupContext="group">
					<title>Virtual machine</title>
					<g id="shape354-182" v:mID="354" v:groupContext="shape" transform="translate(10.6837,-11.7195)">
						<title>Sheet.354</title>
						<path d="M0 792 L12.32 792 L12.32 783.74 L0 783.74 L0 792 ZM8.87 789.59 L6.56 790.93 L6.56 788.26 L8.87 786.92
									 L8.87 789.59 ZM6.35 785.21 L8.66 786.55 L6.36 787.88 L4.04 786.54 L6.35 785.21 ZM3.81 786.91
									 L6.13 788.24 L6.13 790.93 L3.81 789.59 L3.81 786.91 Z" class="st3"/>
					</g>
					<g id="shape355-184" v:mID="355" v:groupContext="shape">
						<title>Sheet.355</title>
						<path d="M31.19 765.89 L1.44 765.89 C0.65 765.89 0 766.54 0 767.33 L0 790.56 C0 791.36 0.65 792 1.44 792
									 L31.19 792 C31.99 792 32.63 791.36 32.63 790.56 L32.63 767.33 C32.63 766.54 31.99 765.89 31.19
									 765.89 ZM16.21 787.51 L15.3 790.2 C15.29 790.23 15.28 790.25 15.27 790.27 C15.26 790.29 15.24
									 790.3 15.21 790.31 C15.18 790.31 15.14 790.32 15.1 790.32 C15.05 790.33 14.98 790.33 14.9 790.33
									 C14.84 790.33 14.79 790.33 14.74 790.33 C14.7 790.32 14.66 790.32 14.63 790.32 C14.6 790.32
									 14.57 790.31 14.55 790.3 C14.53 790.3 14.52 790.29 14.5 790.28 C14.49 790.27 14.48 790.26 14.47
									 790.25 C14.47 790.23 14.46 790.22 14.45 790.2 L13.55 787.5 C13.53 787.45 13.52 787.4 13.51 787.37
									 C13.51 787.33 13.52 787.31 13.54 787.29 C13.56 787.28 13.59 787.27 13.64 787.26 C13.68 787.26
									 13.75 787.26 13.83 787.26 C13.91 787.26 13.96 787.26 14 787.26 C14.04 787.26 14.08 787.27 14.1
									 787.28 C14.12 787.28 14.13 787.3 14.14 787.31 C14.15 787.33 14.16 787.35 14.17 787.37 L14.91
									 789.72 L14.91 789.72 L15.64 787.38 C15.64 787.36 15.65 787.33 15.66 787.32 C15.67 787.3 15.68
									 787.29 15.71 787.28 C15.73 787.27 15.76 787.26 15.8 787.26 C15.85 787.26 15.9 787.26 15.98 787.26
									 C16.05 787.26 16.11 787.26 16.15 787.26 C16.19 787.27 16.21 787.28 16.23 787.3 C16.24 787.32
									 16.25 787.34 16.24 787.37 C16.24 787.41 16.23 787.45 16.21 787.51 ZM20.18 790.23 C20.18 790.24
									 20.18 790.26 20.17 790.27 C20.16 790.28 20.14 790.29 20.12 790.3 C20.1 790.31 20.07 790.32 20.03
									 790.32 C19.99 790.32 19.94 790.33 19.89 790.33 C19.83 790.33 19.78 790.32 19.74 790.32 C19.71
									 790.32 19.68 790.31 19.66 790.3 C19.63 790.29 19.62 790.28 19.61 790.27 C19.6 790.26 19.59 790.24
									 19.59 790.23 L19.59 787.75 L19.59 787.75 L18.71 790.23 C18.7 790.25 18.69 790.26 18.68 790.28
									 C18.66 790.29 18.64 790.3 18.62 790.31 C18.6 790.32 18.56 790.32 18.53 790.32 C18.49 790.33
									 18.44 790.33 18.39 790.33 C18.34 790.33 18.29 790.33 18.25 790.32 C18.22 790.32 18.18 790.31
									 18.16 790.3 C18.14 790.29 18.12 790.28 18.1 790.27 C18.09 790.26 18.08 790.24 18.07 790.23 L17.22
									 787.75 L17.22 787.75 L17.22 790.23 C17.22 790.24 17.21 790.26 17.21 790.27 C17.2 790.28 17.18
									 790.29 17.16 790.3 C17.13 790.31 17.1 790.32 17.07 790.32 C17.03 790.32 16.98 790.33 16.92 790.33
									 C16.87 790.33 16.82 790.32 16.78 790.32 C16.75 790.32 16.72 790.31 16.69 790.3 C16.67 790.29
									 16.65 790.28 16.65 790.27 C16.64 790.26 16.63 790.24 16.63 790.23 L16.63 787.52 C16.63 787.44
									 16.65 787.38 16.7 787.33 C16.74 787.29 16.79 787.27 16.87 787.27 L17.27 787.27 C17.34 787.27
									 17.4 787.28 17.46 787.29 C17.51 787.3 17.55 787.32 17.59 787.35 C17.63 787.38 17.66 787.41 17.68
									 787.46 C17.71 787.5 17.73 787.56 17.75 787.62 L18.41 789.43 L18.42 789.43 L19.1 787.63 C19.12
									 787.56 19.14 787.51 19.17 787.46 C19.19 787.41 19.22 787.38 19.25 787.35 C19.28 787.32 19.32
									 787.3 19.36 787.29 C19.41 787.28 19.46 787.27 19.52 787.27 L19.93 787.27 C19.98 787.27 20.01
									 787.28 20.04 787.29 C20.07 787.3 20.1 787.31 20.12 787.34 C20.14 787.36 20.15 787.38 20.16 787.41
									 C20.17 787.44 20.18 787.48 20.18 787.52 L20.18 790.23 L20.18 790.23 ZM24.01 780.5 C24.01 780.94
									 23.67 781.28 23.23 781.28 L18.75 781.28 C18.32 783.04 18.52 783.25 21.55 783.25 L21.55 783.97
									 L18.02 783.97 L15.45 783.97 L12.14 783.97 L12.14 783.25 C14.86 783.25 15.31 783.04 14.88 781.28
									 L10.46 781.28 C10.03 781.28 9.68 780.94 9.68 780.5 L9.68 771.8 C9.68 771.37 10.03 771.01 10.46
									 771.01 L23.23 771.01 C23.67 771.01 24.01 771.37 24.01 771.8 L24.01 780.5 L24.01 780.5 Z"
								class="st3"/>
					</g>
				</g>
				<g id="group356-186" transform="translate(-12.9337,-32.2492)" v:mID="356" v:groupContext="group">
					<title>Virtual machine.76</title>
					<g id="shape357-187" v:mID="357" v:groupContext="shape" transform="translate(10.6837,-11.7195)">
						<title>Sheet.357</title>
						<path d="M0 792 L12.32 792 L12.32 783.74 L0 783.74 L0 792 ZM8.87 789.59 L6.56 790.93 L6.56 788.26 L8.87 786.92
									 L8.87 789.59 ZM6.35 785.21 L8.66 786.55 L6.36 787.88 L4.04 786.54 L6.35 785.21 ZM3.81 786.91
									 L6.13 788.24 L6.13 790.93 L3.81 789.59 L3.81 786.91 Z" class="st3"/>
					</g>
					<g id="shape358-189" v:mID="358" v:groupContext="shape">
						<title>Sheet.358</title>
						<path d="M31.19 765.89 L1.44 765.89 C0.65 765.89 0 766.54 0 767.33 L0 790.56 C0 791.36 0.65 792 1.44 792
									 L31.19 792 C31.99 792 32.63 791.36 32.63 790.56 L32.63 767.33 C32.63 766.54 31.99 765.89 31.19
									 765.89 ZM16.21 787.51 L15.3 790.2 C15.29 790.23 15.28 790.25 15.27 790.27 C15.26 790.29 15.24
									 790.3 15.21 790.31 C15.18 790.31 15.14 790.32 15.1 790.32 C15.05 790.33 14.98 790.33 14.9 790.33
									 C14.84 790.33 14.79 790.33 14.74 790.33 C14.7 790.32 14.66 790.32 14.63 790.32 C14.6 790.32
									 14.57 790.31 14.55 790.3 C14.53 790.3 14.52 790.29 14.5 790.28 C14.49 790.27 14.48 790.26 14.47
									 790.25 C14.47 790.23 14.46 790.22 14.45 790.2 L13.55 787.5 C13.53 787.45 13.52 787.4 13.51 787.37
									 C13.51 787.33 13.52 787.31 13.54 787.29 C13.56 787.28 13.59 787.27 13.64 787.26 C13.68 787.26
									 13.75 787.26 13.83 787.26 C13.91 787.26 13.96 787.26 14 787.26 C14.04 787.26 14.08 787.27 14.1
									 787.28 C14.12 787.28 14.13 787.3 14.14 787.31 C14.15 787.33 14.16 787.35 14.17 787.37 L14.91
									 789.72 L14.91 789.72 L15.64 787.38 C15.64 787.36 15.65 787.33 15.66 787.32 C15.67 787.3 15.68
									 787.29 15.71 787.28 C15.73 787.27 15.76 787.26 15.8 787.26 C15.85 787.26 15.9 787.26 15.98 787.26
									 C16.05 787.26 16.11 787.26 16.15 787.26 C16.19 787.27 16.21 787.28 16.23 787.3 C16.24 787.32
									 16.25 787.34 16.24 787.37 C16.24 787.41 16.23 787.45 16.21 787.51 ZM20.18 790.23 C20.18 790.24
									 20.18 790.26 20.17 790.27 C20.16 790.28 20.14 790.29 20.12 790.3 C20.1 790.31 20.07 790.32 20.03
									 790.32 C19.99 790.32 19.94 790.33 19.89 790.33 C19.83 790.33 19.78 790.32 19.74 790.32 C19.71
									 790.32 19.68 790.31 19.66 790.3 C19.63 790.29 19.62 790.28 19.61 790.27 C19.6 790.26 19.59 790.24
									 19.59 790.23 L19.59 787.75 L19.59 787.75 L18.71 790.23 C18.7 790.25 18.69 790.26 18.68 790.28
									 C18.66 790.29 18.64 790.3 18.62 790.31 C18.6 790.32 18.56 790.32 18.53 790.32 C18.49 790.33
									 18.44 790.33 18.39 790.33 C18.34 790.33 18.29 790.33 18.25 790.32 C18.22 790.32 18.18 790.31
									 18.16 790.3 C18.14 790.29 18.12 790.28 18.1 790.27 C18.09 790.26 18.08 790.24 18.07 790.23 L17.22
									 787.75 L17.22 787.75 L17.22 790.23 C17.22 790.24 17.21 790.26 17.21 790.27 C17.2 790.28 17.18
									 790.29 17.16 790.3 C17.13 790.31 17.1 790.32 17.07 790.32 C17.03 790.32 16.98 790.33 16.92 790.33
									 C16.87 790.33 16.82 790.32 16.78 790.32 C16.75 790.32 16.72 790.31 16.69 790.3 C16.67 790.29
									 16.65 790.28 16.65 790.27 C16.64 790.26 16.63 790.24 16.63 790.23 L16.63 787.52 C16.63 787.44
									 16.65 787.38 16.7 787.33 C16.74 787.29 16.79 787.27 16.87 787.27 L17.27 787.27 C17.34 787.27
									 17.4 787.28 17.46 787.29 C17.51 787.3 17.55 787.32 17.59 787.35 C17.63 787.38 17.66 787.41 17.68
									 787.46 C17.71 787.5 17.73 787.56 17.75 787.62 L18.41 789.43 L18.42 789.43 L19.1 787.63 C19.12
									 787.56 19.14 787.51 19.17 787.46 C19.19 787.41 19.22 787.38 19.25 787.35 C19.28 787.32 19.32
									 787.3 19.36 787.29 C19.41 787.28 19.46 787.27 19.52 787.27 L19.93 787.27 C19.98 787.27 20.01
									 787.28 20.04 787.29 C20.07 787.3 20.1 787.31 20.12 787.34 C20.14 787.36 20.15 787.38 20.16 787.41
									 C20.17 787.44 20.18 787.48 20.18 787.52 L20.18 790.23 L20.18 790.23 ZM24.01 780.5 C24.01 780.94
									 23.67 781.28 23.23 781.28 L18.75 781.28 C18.32 783.04 18.52 783.25 21.55 783.25 L21.55 783.97
									 L18.02 783.97 L15.45 783.97 L12.14 783.97 L12.14 783.25 C14.86 783.25 15.31 783.04 14.88 781.28
									 L10.46 781.28 C10.03 781.28 9.68 780.94 9.68 780.5 L9.68 771.8 C9.68 771.37 10.03 771.01 10.46
									 771.01 L23.23 771.01 C23.67 771.01 24.01 771.37 24.01 771.8 L24.01 780.5 L24.01 780.5 Z"
								class="st3"/>
					</g>
				</g>
				<g id="group359-191" transform="translate(-12.9337,-1.13687E-13)" v:mID="359" v:groupContext="group">
					<title>Virtual machine.79</title>
					<g id="shape360-192" v:mID="360" v:groupContext="shape" transform="translate(10.6837,-11.7195)">
						<title>Sheet.360</title>
						<path d="M0 792 L12.32 792 L12.32 783.74 L0 783.74 L0 792 ZM8.87 789.59 L6.56 790.93 L6.56 788.26 L8.87 786.92
									 L8.87 789.59 ZM6.35 785.21 L8.66 786.55 L6.36 787.88 L4.04 786.54 L6.35 785.21 ZM3.81 786.91
									 L6.13 788.24 L6.13 790.93 L3.81 789.59 L3.81 786.91 Z" class="st3"/>
					</g>
					<g id="shape361-194" v:mID="361" v:groupContext="shape">
						<title>Sheet.361</title>
						<path d="M31.19 765.89 L1.44 765.89 C0.65 765.89 0 766.54 0 767.33 L0 790.56 C0 791.36 0.65 792 1.44 792
									 L31.19 792 C31.99 792 32.63 791.36 32.63 790.56 L32.63 767.33 C32.63 766.54 31.99 765.89 31.19
									 765.89 ZM16.21 787.51 L15.3 790.2 C15.29 790.23 15.28 790.25 15.27 790.27 C15.26 790.29 15.24
									 790.3 15.21 790.31 C15.18 790.31 15.14 790.32 15.1 790.32 C15.05 790.33 14.98 790.33 14.9 790.33
									 C14.84 790.33 14.79 790.33 14.74 790.33 C14.7 790.32 14.66 790.32 14.63 790.32 C14.6 790.32
									 14.57 790.31 14.55 790.3 C14.53 790.3 14.52 790.29 14.5 790.28 C14.49 790.27 14.48 790.26 14.47
									 790.25 C14.47 790.23 14.46 790.22 14.45 790.2 L13.55 787.5 C13.53 787.45 13.52 787.4 13.51 787.37
									 C13.51 787.33 13.52 787.31 13.54 787.29 C13.56 787.28 13.59 787.27 13.64 787.26 C13.68 787.26
									 13.75 787.26 13.83 787.26 C13.91 787.26 13.96 787.26 14 787.26 C14.04 787.26 14.08 787.27 14.1
									 787.28 C14.12 787.28 14.13 787.3 14.14 787.31 C14.15 787.33 14.16 787.35 14.17 787.37 L14.91
									 789.72 L14.91 789.72 L15.64 787.38 C15.64 787.36 15.65 787.33 15.66 787.32 C15.67 787.3 15.68
									 787.29 15.71 787.28 C15.73 787.27 15.76 787.26 15.8 787.26 C15.85 787.26 15.9 787.26 15.98 787.26
									 C16.05 787.26 16.11 787.26 16.15 787.26 C16.19 787.27 16.21 787.28 16.23 787.3 C16.24 787.32
									 16.25 787.34 16.24 787.37 C16.24 787.41 16.23 787.45 16.21 787.51 ZM20.18 790.23 C20.18 790.24
									 20.18 790.26 20.17 790.27 C20.16 790.28 20.14 790.29 20.12 790.3 C20.1 790.31 20.07 790.32 20.03
									 790.32 C19.99 790.32 19.94 790.33 19.89 790.33 C19.83 790.33 19.78 790.32 19.74 790.32 C19.71
									 790.32 19.68 790.31 19.66 790.3 C19.63 790.29 19.62 790.28 19.61 790.27 C19.6 790.26 19.59 790.24
									 19.59 790.23 L19.59 787.75 L19.59 787.75 L18.71 790.23 C18.7 790.25 18.69 790.26 18.68 790.28
									 C18.66 790.29 18.64 790.3 18.62 790.31 C18.6 790.32 18.56 790.32 18.53 790.32 C18.49 790.33
									 18.44 790.33 18.39 790.33 C18.34 790.33 18.29 790.33 18.25 790.32 C18.22 790.32 18.18 790.31
									 18.16 790.3 C18.14 790.29 18.12 790.28 18.1 790.27 C18.09 790.26 18.08 790.24 18.07 790.23 L17.22
									 787.75 L17.22 787.75 L17.22 790.23 C17.22 790.24 17.21 790.26 17.21 790.27 C17.2 790.28 17.18
									 790.29 17.16 790.3 C17.13 790.31 17.1 790.32 17.07 790.32 C17.03 790.32 16.98 790.33 16.92 790.33
									 C16.87 790.33 16.82 790.32 16.78 790.32 C16.75 790.32 16.72 790.31 16.69 790.3 C16.67 790.29
									 16.65 790.28 16.65 790.27 C16.64 790.26 16.63 790.24 16.63 790.23 L16.63 787.52 C16.63 787.44
									 16.65 787.38 16.7 787.33 C16.74 787.29 16.79 787.27 16.87 787.27 L17.27 787.27 C17.34 787.27
									 17.4 787.28 17.46 787.29 C17.51 787.3 17.55 787.32 17.59 787.35 C17.63 787.38 17.66 787.41 17.68
									 787.46 C17.71 787.5 17.73 787.56 17.75 787.62 L18.41 789.43 L18.42 789.43 L19.1 787.63 C19.12
									 787.56 19.14 787.51 19.17 787.46 C19.19 787.41 19.22 787.38 19.25 787.35 C19.28 787.32 19.32
									 787.3 19.36 787.29 C19.41 787.28 19.46 787.27 19.52 787.27 L19.93 787.27 C19.98 787.27 20.01
									 787.28 20.04 787.29 C20.07 787.3 20.1 787.31 20.12 787.34 C20.14 787.36 20.15 787.38 20.16 787.41
									 C20.17 787.44 20.18 787.48 20.18 787.52 L20.18 790.23 L20.18 790.23 ZM24.01 780.5 C24.01 780.94
									 23.67 781.28 23.23 781.28 L18.75 781.28 C18.32 783.04 18.52 783.25 21.55 783.25 L21.55 783.97
									 L18.02 783.97 L15.45 783.97 L12.14 783.97 L12.14 783.25 C14.86 783.25 15.31 783.04 14.88 781.28
									 L10.46 781.28 C10.03 781.28 9.68 780.94 9.68 780.5 L9.68 771.8 C9.68 771.37 10.03 771.01 10.46
									 771.01 L23.23 771.01 C23.67 771.01 24.01 771.37 24.01 771.8 L24.01 780.5 L24.01 780.5 Z"
								class="st3"/>
					</g>
				</g>
			</g>
			<g id="shape362-196" v:mID="362" v:groupContext="shape" transform="translate(44.6802,-4.5)">
				<title>Sheet.362</title>
				<path d="M0 792 L44.15 792 L44.15 689.26 L0 689.26 L0 792 Z" class="st20"/>
			</g>
			<g id="group363-198" transform="translate(3.63302,-88.7635)" v:mID="363" v:groupContext="group">
				<title>Sheet.363</title>
				<g id="group364-199" transform="translate(3.08463,-0.700182)" v:mID="364" v:groupContext="group">
					<title>Sheet.364</title>
					<g id="shape365-200" v:mID="365" v:groupContext="shape" v:layerMember="0">
						<title>Lock, protected.1135</title>
						<path d="M14.31 780.02 L13.31 780.02 L13.31 778.16 C13.31 774.24 10.81 772.23 7.9 772.23 L7.42 772.23 C4.45
									 772.23 2.01 774.19 2.01 778.16 L2.01 780.02 L1.01 780.02 C0.58 780.02 0 780.6 0 781.03 L0 790.99
									 C-0 791.42 0.58 792 1.01 792 L14.31 792 C14.74 792 15.32 791.42 15.32 790.99 L15.32 781.03 C15.32
									 780.6 14.74 780.02 14.31 780.02 ZM8.43 785.9 L8.43 790.04 L6.94 790.04 L6.94 785.9 C6.36 785.64
									 5.94 785.06 5.94 784.37 C5.94 783.41 6.73 782.62 7.69 782.62 C8.64 782.62 9.44 783.41 9.44 784.37
									 C9.38 785 9.01 785.59 8.43 785.9 ZM11.45 780.02 L3.87 780.02 L3.87 778.16 C3.87 775.67 5.2 773.98
									 7.42 773.98 L7.9 773.98 C10.18 773.98 11.45 775.67 11.45 778.16 L11.45 780.02 Z" class="st3"/>
					</g>
					<g id="shape366-202" v:mID="366" v:groupContext="shape" v:layerMember="0"
							transform="translate(2.28102,-0.389869)">
						<title>Sheet.366</title>
						<rect x="0" y="781.632" width="10.7581" height="10.3682" class="st3"/>
					</g>
				</g>
				<g id="shape367-204" v:mID="367" v:groupContext="shape">
					<title>Sheet.367</title>
					<desc>NSG</desc>
					<v:textBlock v:margins="rect(0,0,0,0)"/>
					<v:textRect cx="10.7447" cy="785.68" width="21.49" height="12.6408"/>
					<rect x="0" y="779.359" width="21.4894" height="12.6408" class="st4"/>
					<text x="4.72" y="787.48" class="st5" v:langID="1033"><v:paragraph v:horizAlign="1"/><v:tabList/>NSG</text>				</g>
			</g>
			<g id="shape368-207" v:mID="368" v:groupContext="shape" transform="translate(20.253,-57.4072) rotate(-0.877175)">
				<title>Sheet.368</title>
				<path d="M0 792 L10.78 792" class="st21"/>
			</g>
			<g id="shape369-212" v:mID="369" v:groupContext="shape" transform="translate(-674.893,378.085) rotate(-63.2551)">
				<title>Sheet.369</title>
				<path d="M0 792 L30.79 792" class="st21"/>
			</g>
			<g id="shape370-217" v:mID="370" v:groupContext="shape" transform="translate(737.397,373.652) rotate(62.8954)">
				<title>Sheet.370</title>
				<path d="M0 792 L30.35 792" class="st21"/>
			</g>
			<g id="group371-222" transform="translate(-6.39488E-14,-40.5)" v:mID="371" v:groupContext="group">
				<title>Azure load balancer.194</title>
				<g id="group372-223" transform="translate(2.6,-2.53462)" v:mID="372" v:groupContext="group">
					<title>Sheet.372</title>
					<g id="shape373-224" v:mID="373" v:groupContext="shape">
						<title>Sheet.373</title>
						<path d="M28 775.71 L16.29 764 C15.78 763.49 15.15 763.2 14.4 763.2 C13.71 763.2 13.02 763.49 12.51 764 L0.8
									 775.71 C0.29 776.22 0 776.85 0 777.6 C-0 778.29 0.29 778.98 0.8 779.49 L12.51 791.2 C13.02 791.71
									 13.65 792 14.4 792 C15.09 792 15.78 791.71 16.29 791.2 L28 779.49 C28.51 778.98 28.8 778.35
									 28.8 777.6 C28.74 776.85 28.46 776.17 28 775.71 ZM22.43 781.16 L22.43 778.52 L18.42 778.52 C18.01
									 779.89 16.92 780.98 15.55 781.39 L15.55 784.08 C16.12 784.48 16.98 785.4 16.98 786.38 C16.98
									 787.81 15.83 788.96 14.4 788.96 C12.97 788.96 11.82 787.81 11.82 786.38 C11.82 785.35 12.68
									 784.48 13.25 784.08 L13.25 781.44 C11.88 781.04 10.79 779.95 10.38 778.58 L6.37 778.58 L6.37
									 781.27 L2.58 777.49 L6.37 773.7 L6.37 776.34 L10.38 776.34 C10.79 774.96 11.88 773.87 13.25
									 773.47 L13.25 769.63 L10.61 769.63 L14.4 765.84 L18.19 769.63 L15.55 769.63 L15.55 773.47 C16.92
									 773.87 18.01 774.96 18.42 776.34 L22.43 776.34 L22.43 773.64 L26.22 777.43 L22.43 781.16 Z"
								class="st3"/>
					</g>
					<g id="shape374-226" v:mID="374" v:groupContext="shape" transform="translate(11.3594,-11.5888)">
						<title>Sheet.374</title>
						<path d="M3.04 785.92 C1.38 785.92 0 787.3 0 788.96 C0 790.62 1.38 792 3.04 792 C4.7 792 6.08 790.62 6.08
									 788.96 C6.08 787.3 4.7 785.92 3.04 785.92 Z" class="st3"/>
					</g>
				</g>
			</g>
		</g>
		<g id="group298-228" transform="translate(334.497,-629.7)" v:mID="298" v:groupContext="group">
			<title>Sheet.298</title>
			<g id="shape299-229" v:mID="299" v:groupContext="shape" transform="translate(2.56522,0)">
				<title>Sheet.299</title>
				<rect x="0" y="680.261" width="92.8125" height="111.739" class="st1"/>
			</g>
			<g id="group300-231" transform="translate(63.3729,-10.9463)" v:mID="300" v:groupContext="group">
				<title>Sheet.300</title>
				<g id="group301-232" transform="translate(-12.9337,-64.4985)" v:mID="301" v:groupContext="group">
					<title>Virtual machine</title>
					<g id="shape302-233" v:mID="302" v:groupContext="shape" transform="translate(10.6837,-11.7195)">
						<title>Sheet.302</title>
						<path d="M0 792 L12.32 792 L12.32 783.74 L0 783.74 L0 792 ZM8.87 789.59 L6.56 790.93 L6.56 788.26 L8.87 786.92
									 L8.87 789.59 ZM6.35 785.21 L8.66 786.55 L6.36 787.88 L4.04 786.54 L6.35 785.21 ZM3.81 786.91
									 L6.13 788.24 L6.13 790.93 L3.81 789.59 L3.81 786.91 Z" class="st3"/>
					</g>
					<g id="shape303-235" v:mID="303" v:groupContext="shape">
						<title>Sheet.303</title>
						<path d="M31.19 765.89 L1.44 765.89 C0.65 765.89 0 766.54 0 767.33 L0 790.56 C0 791.36 0.65 792 1.44 792
									 L31.19 792 C31.99 792 32.63 791.36 32.63 790.56 L32.63 767.33 C32.63 766.54 31.99 765.89 31.19
									 765.89 ZM16.21 787.51 L15.3 790.2 C15.29 790.23 15.28 790.25 15.27 790.27 C15.26 790.29 15.24
									 790.3 15.21 790.31 C15.18 790.31 15.14 790.32 15.1 790.32 C15.05 790.33 14.98 790.33 14.9 790.33
									 C14.84 790.33 14.79 790.33 14.74 790.33 C14.7 790.32 14.66 790.32 14.63 790.32 C14.6 790.32
									 14.57 790.31 14.55 790.3 C14.53 790.3 14.52 790.29 14.5 790.28 C14.49 790.27 14.48 790.26 14.47
									 790.25 C14.47 790.23 14.46 790.22 14.45 790.2 L13.55 787.5 C13.53 787.45 13.52 787.4 13.51 787.37
									 C13.51 787.33 13.52 787.31 13.54 787.29 C13.56 787.28 13.59 787.27 13.64 787.26 C13.68 787.26
									 13.75 787.26 13.83 787.26 C13.91 787.26 13.96 787.26 14 787.26 C14.04 787.26 14.08 787.27 14.1
									 787.28 C14.12 787.28 14.13 787.3 14.14 787.31 C14.15 787.33 14.16 787.35 14.17 787.37 L14.91
									 789.72 L14.91 789.72 L15.64 787.38 C15.64 787.36 15.65 787.33 15.66 787.32 C15.67 787.3 15.68
									 787.29 15.71 787.28 C15.73 787.27 15.76 787.26 15.8 787.26 C15.85 787.26 15.9 787.26 15.98 787.26
									 C16.05 787.26 16.11 787.26 16.15 787.26 C16.19 787.27 16.21 787.28 16.23 787.3 C16.24 787.32
									 16.25 787.34 16.24 787.37 C16.24 787.41 16.23 787.45 16.21 787.51 ZM20.18 790.23 C20.18 790.24
									 20.18 790.26 20.17 790.27 C20.16 790.28 20.14 790.29 20.12 790.3 C20.1 790.31 20.07 790.32 20.03
									 790.32 C19.99 790.32 19.94 790.33 19.89 790.33 C19.83 790.33 19.78 790.32 19.74 790.32 C19.71
									 790.32 19.68 790.31 19.66 790.3 C19.63 790.29 19.62 790.28 19.61 790.27 C19.6 790.26 19.59 790.24
									 19.59 790.23 L19.59 787.75 L19.59 787.75 L18.71 790.23 C18.7 790.25 18.69 790.26 18.68 790.28
									 C18.66 790.29 18.64 790.3 18.62 790.31 C18.6 790.32 18.56 790.32 18.53 790.32 C18.49 790.33
									 18.44 790.33 18.39 790.33 C18.34 790.33 18.29 790.33 18.25 790.32 C18.22 790.32 18.18 790.31
									 18.16 790.3 C18.14 790.29 18.12 790.28 18.1 790.27 C18.09 790.26 18.08 790.24 18.07 790.23 L17.22
									 787.75 L17.22 787.75 L17.22 790.23 C17.22 790.24 17.21 790.26 17.21 790.27 C17.2 790.28 17.18
									 790.29 17.16 790.3 C17.13 790.31 17.1 790.32 17.07 790.32 C17.03 790.32 16.98 790.33 16.92 790.33
									 C16.87 790.33 16.82 790.32 16.78 790.32 C16.75 790.32 16.72 790.31 16.69 790.3 C16.67 790.29
									 16.65 790.28 16.65 790.27 C16.64 790.26 16.63 790.24 16.63 790.23 L16.63 787.52 C16.63 787.44
									 16.65 787.38 16.7 787.33 C16.74 787.29 16.79 787.27 16.87 787.27 L17.27 787.27 C17.34 787.27
									 17.4 787.28 17.46 787.29 C17.51 787.3 17.55 787.32 17.59 787.35 C17.63 787.38 17.66 787.41 17.68
									 787.46 C17.71 787.5 17.73 787.56 17.75 787.62 L18.41 789.43 L18.42 789.43 L19.1 787.63 C19.12
									 787.56 19.14 787.51 19.17 787.46 C19.19 787.41 19.22 787.38 19.25 787.35 C19.28 787.32 19.32
									 787.3 19.36 787.29 C19.41 787.28 19.46 787.27 19.52 787.27 L19.93 787.27 C19.98 787.27 20.01
									 787.28 20.04 787.29 C20.07 787.3 20.1 787.31 20.12 787.34 C20.14 787.36 20.15 787.38 20.16 787.41
									 C20.17 787.44 20.18 787.48 20.18 787.52 L20.18 790.23 L20.18 790.23 ZM24.01 780.5 C24.01 780.94
									 23.67 781.28 23.23 781.28 L18.75 781.28 C18.32 783.04 18.52 783.25 21.55 783.25 L21.55 783.97
									 L18.02 783.97 L15.45 783.97 L12.14 783.97 L12.14 783.25 C14.86 783.25 15.31 783.04 14.88 781.28
									 L10.46 781.28 C10.03 781.28 9.68 780.94 9.68 780.5 L9.68 771.8 C9.68 771.37 10.03 771.01 10.46
									 771.01 L23.23 771.01 C23.67 771.01 24.01 771.37 24.01 771.8 L24.01 780.5 L24.01 780.5 Z"
								class="st3"/>
					</g>
				</g>
				<g id="group304-237" transform="translate(-12.9337,-32.2492)" v:mID="304" v:groupContext="group">
					<title>Virtual machine.76</title>
					<g id="shape305-238" v:mID="305" v:groupContext="shape" transform="translate(10.6837,-11.7195)">
						<title>Sheet.305</title>
						<path d="M0 792 L12.32 792 L12.32 783.74 L0 783.74 L0 792 ZM8.87 789.59 L6.56 790.93 L6.56 788.26 L8.87 786.92
									 L8.87 789.59 ZM6.35 785.21 L8.66 786.55 L6.36 787.88 L4.04 786.54 L6.35 785.21 ZM3.81 786.91
									 L6.13 788.24 L6.13 790.93 L3.81 789.59 L3.81 786.91 Z" class="st3"/>
					</g>
					<g id="shape306-240" v:mID="306" v:groupContext="shape">
						<title>Sheet.306</title>
						<path d="M31.19 765.89 L1.44 765.89 C0.65 765.89 0 766.54 0 767.33 L0 790.56 C0 791.36 0.65 792 1.44 792
									 L31.19 792 C31.99 792 32.63 791.36 32.63 790.56 L32.63 767.33 C32.63 766.54 31.99 765.89 31.19
									 765.89 ZM16.21 787.51 L15.3 790.2 C15.29 790.23 15.28 790.25 15.27 790.27 C15.26 790.29 15.24
									 790.3 15.21 790.31 C15.18 790.31 15.14 790.32 15.1 790.32 C15.05 790.33 14.98 790.33 14.9 790.33
									 C14.84 790.33 14.79 790.33 14.74 790.33 C14.7 790.32 14.66 790.32 14.63 790.32 C14.6 790.32
									 14.57 790.31 14.55 790.3 C14.53 790.3 14.52 790.29 14.5 790.28 C14.49 790.27 14.48 790.26 14.47
									 790.25 C14.47 790.23 14.46 790.22 14.45 790.2 L13.55 787.5 C13.53 787.45 13.52 787.4 13.51 787.37
									 C13.51 787.33 13.52 787.31 13.54 787.29 C13.56 787.28 13.59 787.27 13.64 787.26 C13.68 787.26
									 13.75 787.26 13.83 787.26 C13.91 787.26 13.96 787.26 14 787.26 C14.04 787.26 14.08 787.27 14.1
									 787.28 C14.12 787.28 14.13 787.3 14.14 787.31 C14.15 787.33 14.16 787.35 14.17 787.37 L14.91
									 789.72 L14.91 789.72 L15.64 787.38 C15.64 787.36 15.65 787.33 15.66 787.32 C15.67 787.3 15.68
									 787.29 15.71 787.28 C15.73 787.27 15.76 787.26 15.8 787.26 C15.85 787.26 15.9 787.26 15.98 787.26
									 C16.05 787.26 16.11 787.26 16.15 787.26 C16.19 787.27 16.21 787.28 16.23 787.3 C16.24 787.32
									 16.25 787.34 16.24 787.37 C16.24 787.41 16.23 787.45 16.21 787.51 ZM20.18 790.23 C20.18 790.24
									 20.18 790.26 20.17 790.27 C20.16 790.28 20.14 790.29 20.12 790.3 C20.1 790.31 20.07 790.32 20.03
									 790.32 C19.99 790.32 19.94 790.33 19.89 790.33 C19.83 790.33 19.78 790.32 19.74 790.32 C19.71
									 790.32 19.68 790.31 19.66 790.3 C19.63 790.29 19.62 790.28 19.61 790.27 C19.6 790.26 19.59 790.24
									 19.59 790.23 L19.59 787.75 L19.59 787.75 L18.71 790.23 C18.7 790.25 18.69 790.26 18.68 790.28
									 C18.66 790.29 18.64 790.3 18.62 790.31 C18.6 790.32 18.56 790.32 18.53 790.32 C18.49 790.33
									 18.44 790.33 18.39 790.33 C18.34 790.33 18.29 790.33 18.25 790.32 C18.22 790.32 18.18 790.31
									 18.16 790.3 C18.14 790.29 18.12 790.28 18.1 790.27 C18.09 790.26 18.08 790.24 18.07 790.23 L17.22
									 787.75 L17.22 787.75 L17.22 790.23 C17.22 790.24 17.21 790.26 17.21 790.27 C17.2 790.28 17.18
									 790.29 17.16 790.3 C17.13 790.31 17.1 790.32 17.07 790.32 C17.03 790.32 16.98 790.33 16.92 790.33
									 C16.87 790.33 16.82 790.32 16.78 790.32 C16.75 790.32 16.72 790.31 16.69 790.3 C16.67 790.29
									 16.65 790.28 16.65 790.27 C16.64 790.26 16.63 790.24 16.63 790.23 L16.63 787.52 C16.63 787.44
									 16.65 787.38 16.7 787.33 C16.74 787.29 16.79 787.27 16.87 787.27 L17.27 787.27 C17.34 787.27
									 17.4 787.28 17.46 787.29 C17.51 787.3 17.55 787.32 17.59 787.35 C17.63 787.38 17.66 787.41 17.68
									 787.46 C17.71 787.5 17.73 787.56 17.75 787.62 L18.41 789.43 L18.42 789.43 L19.1 787.63 C19.12
									 787.56 19.14 787.51 19.17 787.46 C19.19 787.41 19.22 787.38 19.25 787.35 C19.28 787.32 19.32
									 787.3 19.36 787.29 C19.41 787.28 19.46 787.27 19.52 787.27 L19.93 787.27 C19.98 787.27 20.01
									 787.28 20.04 787.29 C20.07 787.3 20.1 787.31 20.12 787.34 C20.14 787.36 20.15 787.38 20.16 787.41
									 C20.17 787.44 20.18 787.48 20.18 787.52 L20.18 790.23 L20.18 790.23 ZM24.01 780.5 C24.01 780.94
									 23.67 781.28 23.23 781.28 L18.75 781.28 C18.32 783.04 18.52 783.25 21.55 783.25 L21.55 783.97
									 L18.02 783.97 L15.45 783.97 L12.14 783.97 L12.14 783.25 C14.86 783.25 15.31 783.04 14.88 781.28
									 L10.46 781.28 C10.03 781.28 9.68 780.94 9.68 780.5 L9.68 771.8 C9.68 771.37 10.03 771.01 10.46
									 771.01 L23.23 771.01 C23.67 771.01 24.01 771.37 24.01 771.8 L24.01 780.5 L24.01 780.5 Z"
								class="st3"/>
					</g>
				</g>
				<g id="group307-242" transform="translate(-12.9337,-1.13687E-13)" v:mID="307" v:groupContext="group">
					<title>Virtual machine.79</title>
					<g id="shape308-243" v:mID="308" v:groupContext="shape" transform="translate(10.6837,-11.7195)">
						<title>Sheet.308</title>
						<path d="M0 792 L12.32 792 L12.32 783.74 L0 783.74 L0 792 ZM8.87 789.59 L6.56 790.93 L6.56 788.26 L8.87 786.92
									 L8.87 789.59 ZM6.35 785.21 L8.66 786.55 L6.36 787.88 L4.04 786.54 L6.35 785.21 ZM3.81 786.91
									 L6.13 788.24 L6.13 790.93 L3.81 789.59 L3.81 786.91 Z" class="st3"/>
					</g>
					<g id="shape309-245" v:mID="309" v:groupContext="shape">
						<title>Sheet.309</title>
						<path d="M31.19 765.89 L1.44 765.89 C0.65 765.89 0 766.54 0 767.33 L0 790.56 C0 791.36 0.65 792 1.44 792
									 L31.19 792 C31.99 792 32.63 791.36 32.63 790.56 L32.63 767.33 C32.63 766.54 31.99 765.89 31.19
									 765.89 ZM16.21 787.51 L15.3 790.2 C15.29 790.23 15.28 790.25 15.27 790.27 C15.26 790.29 15.24
									 790.3 15.21 790.31 C15.18 790.31 15.14 790.32 15.1 790.32 C15.05 790.33 14.98 790.33 14.9 790.33
									 C14.84 790.33 14.79 790.33 14.74 790.33 C14.7 790.32 14.66 790.32 14.63 790.32 C14.6 790.32
									 14.57 790.31 14.55 790.3 C14.53 790.3 14.52 790.29 14.5 790.28 C14.49 790.27 14.48 790.26 14.47
									 790.25 C14.47 790.23 14.46 790.22 14.45 790.2 L13.55 787.5 C13.53 787.45 13.52 787.4 13.51 787.37
									 C13.51 787.33 13.52 787.31 13.54 787.29 C13.56 787.28 13.59 787.27 13.64 787.26 C13.68 787.26
									 13.75 787.26 13.83 787.26 C13.91 787.26 13.96 787.26 14 787.26 C14.04 787.26 14.08 787.27 14.1
									 787.28 C14.12 787.28 14.13 787.3 14.14 787.31 C14.15 787.33 14.16 787.35 14.17 787.37 L14.91
									 789.72 L14.91 789.72 L15.64 787.38 C15.64 787.36 15.65 787.33 15.66 787.32 C15.67 787.3 15.68
									 787.29 15.71 787.28 C15.73 787.27 15.76 787.26 15.8 787.26 C15.85 787.26 15.9 787.26 15.98 787.26
									 C16.05 787.26 16.11 787.26 16.15 787.26 C16.19 787.27 16.21 787.28 16.23 787.3 C16.24 787.32
									 16.25 787.34 16.24 787.37 C16.24 787.41 16.23 787.45 16.21 787.51 ZM20.18 790.23 C20.18 790.24
									 20.18 790.26 20.17 790.27 C20.16 790.28 20.14 790.29 20.12 790.3 C20.1 790.31 20.07 790.32 20.03
									 790.32 C19.99 790.32 19.94 790.33 19.89 790.33 C19.83 790.33 19.78 790.32 19.74 790.32 C19.71
									 790.32 19.68 790.31 19.66 790.3 C19.63 790.29 19.62 790.28 19.61 790.27 C19.6 790.26 19.59 790.24
									 19.59 790.23 L19.59 787.75 L19.59 787.75 L18.71 790.23 C18.7 790.25 18.69 790.26 18.68 790.28
									 C18.66 790.29 18.64 790.3 18.62 790.31 C18.6 790.32 18.56 790.32 18.53 790.32 C18.49 790.33
									 18.44 790.33 18.39 790.33 C18.34 790.33 18.29 790.33 18.25 790.32 C18.22 790.32 18.18 790.31
									 18.16 790.3 C18.14 790.29 18.12 790.28 18.1 790.27 C18.09 790.26 18.08 790.24 18.07 790.23 L17.22
									 787.75 L17.22 787.75 L17.22 790.23 C17.22 790.24 17.21 790.26 17.21 790.27 C17.2 790.28 17.18
									 790.29 17.16 790.3 C17.13 790.31 17.1 790.32 17.07 790.32 C17.03 790.32 16.98 790.33 16.92 790.33
									 C16.87 790.33 16.82 790.32 16.78 790.32 C16.75 790.32 16.72 790.31 16.69 790.3 C16.67 790.29
									 16.65 790.28 16.65 790.27 C16.64 790.26 16.63 790.24 16.63 790.23 L16.63 787.52 C16.63 787.44
									 16.65 787.38 16.7 787.33 C16.74 787.29 16.79 787.27 16.87 787.27 L17.27 787.27 C17.34 787.27
									 17.4 787.28 17.46 787.29 C17.51 787.3 17.55 787.32 17.59 787.35 C17.63 787.38 17.66 787.41 17.68
									 787.46 C17.71 787.5 17.73 787.56 17.75 787.62 L18.41 789.43 L18.42 789.43 L19.1 787.63 C19.12
									 787.56 19.14 787.51 19.17 787.46 C19.19 787.41 19.22 787.38 19.25 787.35 C19.28 787.32 19.32
									 787.3 19.36 787.29 C19.41 787.28 19.46 787.27 19.52 787.27 L19.93 787.27 C19.98 787.27 20.01
									 787.28 20.04 787.29 C20.07 787.3 20.1 787.31 20.12 787.34 C20.14 787.36 20.15 787.38 20.16 787.41
									 C20.17 787.44 20.18 787.48 20.18 787.52 L20.18 790.23 L20.18 790.23 ZM24.01 780.5 C24.01 780.94
									 23.67 781.28 23.23 781.28 L18.75 781.28 C18.32 783.04 18.52 783.25 21.55 783.25 L21.55 783.97
									 L18.02 783.97 L15.45 783.97 L12.14 783.97 L12.14 783.25 C14.86 783.25 15.31 783.04 14.88 781.28
									 L10.46 781.28 C10.03 781.28 9.68 780.94 9.68 780.5 L9.68 771.8 C9.68 771.37 10.03 771.01 10.46
									 771.01 L23.23 771.01 C23.67 771.01 24.01 771.37 24.01 771.8 L24.01 780.5 L24.01 780.5 Z"
								class="st3"/>
					</g>
				</g>
			</g>
			<g id="shape310-247" v:mID="310" v:groupContext="shape" transform="translate(44.6802,-4.5)">
				<title>Sheet.310</title>
				<path d="M0 792 L44.15 792 L44.15 689.26 L0 689.26 L0 792 Z" class="st20"/>
			</g>
			<g id="group311-249" transform="translate(3.63302,-88.7635)" v:mID="311" v:groupContext="group">
				<title>Sheet.311</title>
				<g id="group312-250" transform="translate(3.08463,-0.700182)" v:mID="312" v:groupContext="group">
					<title>Sheet.312</title>
					<g id="shape313-251" v:mID="313" v:groupContext="shape" v:layerMember="0">
						<title>Lock, protected.1135</title>
						<path d="M14.31 780.02 L13.31 780.02 L13.31 778.16 C13.31 774.24 10.81 772.23 7.9 772.23 L7.42 772.23 C4.45
									 772.23 2.01 774.19 2.01 778.16 L2.01 780.02 L1.01 780.02 C0.58 780.02 0 780.6 0 781.03 L0 790.99
									 C-0 791.42 0.58 792 1.01 792 L14.31 792 C14.74 792 15.32 791.42 15.32 790.99 L15.32 781.03 C15.32
									 780.6 14.74 780.02 14.31 780.02 ZM8.43 785.9 L8.43 790.04 L6.94 790.04 L6.94 785.9 C6.36 785.64
									 5.94 785.06 5.94 784.37 C5.94 783.41 6.73 782.62 7.69 782.62 C8.64 782.62 9.44 783.41 9.44 784.37
									 C9.38 785 9.01 785.59 8.43 785.9 ZM11.45 780.02 L3.87 780.02 L3.87 778.16 C3.87 775.67 5.2 773.98
									 7.42 773.98 L7.9 773.98 C10.18 773.98 11.45 775.67 11.45 778.16 L11.45 780.02 Z" class="st3"/>
					</g>
					<g id="shape314-253" v:mID="314" v:groupContext="shape" v:layerMember="0"
							transform="translate(2.28102,-0.389869)">
						<title>Sheet.314</title>
						<rect x="0" y="781.632" width="10.7581" height="10.3682" class="st3"/>
					</g>
				</g>
				<g id="shape315-255" v:mID="315" v:groupContext="shape">
					<title>Sheet.315</title>
					<desc>NSG</desc>
					<v:textBlock v:margins="rect(0,0,0,0)"/>
					<v:textRect cx="10.7447" cy="785.68" width="21.49" height="12.6408"/>
					<rect x="0" y="779.359" width="21.4894" height="12.6408" class="st4"/>
					<text x="4.72" y="787.48" class="st5" v:langID="1033"><v:paragraph v:horizAlign="1"/><v:tabList/>NSG</text>				</g>
			</g>
			<g id="shape316-258" v:mID="316" v:groupContext="shape" transform="translate(20.253,-57.4072) rotate(-0.877175)">
				<title>Sheet.316</title>
				<path d="M0 792 L10.78 792" class="st21"/>
			</g>
			<g id="shape317-263" v:mID="317" v:groupContext="shape" transform="translate(-674.893,378.085) rotate(-63.2551)">
				<title>Sheet.317</title>
				<path d="M0 792 L30.79 792" class="st21"/>
			</g>
			<g id="shape318-268" v:mID="318" v:groupContext="shape" transform="translate(737.397,373.652) rotate(62.8954)">
				<title>Sheet.318</title>
				<path d="M0 792 L30.35 792" class="st21"/>
			</g>
			<g id="group319-273" transform="translate(-6.39488E-14,-40.5)" v:mID="319" v:groupContext="group">
				<title>Azure load balancer.194</title>
				<g id="group320-274" transform="translate(2.6,-2.53462)" v:mID="320" v:groupContext="group">
					<title>Sheet.320</title>
					<g id="shape321-275" v:mID="321" v:groupContext="shape">
						<title>Sheet.321</title>
						<path d="M28 775.71 L16.29 764 C15.78 763.49 15.15 763.2 14.4 763.2 C13.71 763.2 13.02 763.49 12.51 764 L0.8
									 775.71 C0.29 776.22 0 776.85 0 777.6 C-0 778.29 0.29 778.98 0.8 779.49 L12.51 791.2 C13.02 791.71
									 13.65 792 14.4 792 C15.09 792 15.78 791.71 16.29 791.2 L28 779.49 C28.51 778.98 28.8 778.35
									 28.8 777.6 C28.74 776.85 28.46 776.17 28 775.71 ZM22.43 781.16 L22.43 778.52 L18.42 778.52 C18.01
									 779.89 16.92 780.98 15.55 781.39 L15.55 784.08 C16.12 784.48 16.98 785.4 16.98 786.38 C16.98
									 787.81 15.83 788.96 14.4 788.96 C12.97 788.96 11.82 787.81 11.82 786.38 C11.82 785.35 12.68
									 784.48 13.25 784.08 L13.25 781.44 C11.88 781.04 10.79 779.95 10.38 778.58 L6.37 778.58 L6.37
									 781.27 L2.58 777.49 L6.37 773.7 L6.37 776.34 L10.38 776.34 C10.79 774.96 11.88 773.87 13.25
									 773.47 L13.25 769.63 L10.61 769.63 L14.4 765.84 L18.19 769.63 L15.55 769.63 L15.55 773.47 C16.92
									 773.87 18.01 774.96 18.42 776.34 L22.43 776.34 L22.43 773.64 L26.22 777.43 L22.43 781.16 Z"
								class="st3"/>
					</g>
					<g id="shape322-277" v:mID="322" v:groupContext="shape" transform="translate(11.3594,-11.5888)">
						<title>Sheet.322</title>
						<path d="M3.04 785.92 C1.38 785.92 0 787.3 0 788.96 C0 790.62 1.38 792 3.04 792 C4.7 792 6.08 790.62 6.08
									 788.96 C6.08 787.3 4.7 785.92 3.04 785.92 Z" class="st3"/>
					</g>
				</g>
			</g>
		</g>
		<g id="shape377-279" v:mID="377" v:groupContext="shape" v:layerMember="0" transform="translate(76.3936,-705.5)">
			<title>Availability set.377</title>
			<desc>Gateway</desc>
			<v:textBlock v:margins="rect(4,4,4,4)" v:verticalAlign="0"/>
			<v:textRect cx="27.5513" cy="784.75" width="55.11" height="14.5"/>
			<rect x="0" y="777.5" width="55.1026" height="14.5" class="st8"/>
			<text x="12.46" y="788.7" class="st23" v:langID="1033"><v:paragraph v:horizAlign="1"/><v:tabList/>Gateway</text>		</g>
		<g id="shape383-282" v:mID="383" v:groupContext="shape" transform="translate(-577.052,103.989) rotate(-90)">
			<title>Sheet.383</title>
			<path d="M0 792 L37.69 792" class="st14"/>
		</g>
	</g>
</svg>
