<?xml version="1.0" encoding="UTF-8" standalone="no"?>
<!DOCTYPE svg PUBLIC "-//W3C//DTD SVG 1.1//EN" "http://www.w3.org/Graphics/SVG/1.1/DTD/svg11.dtd">
<!-- Generated by Microsoft Visio, SVG Export reference-architecture-001-island.svg Page-6 -->
<svg xmlns="http://www.w3.org/2000/svg" xmlns:xlink="http://www.w3.org/1999/xlink" xmlns:ev="http://www.w3.org/2001/xml-events"
		xmlns:v="http://schemas.microsoft.com/visio/2003/SVGExtensions/" width="16.5in" height="11in" viewBox="0 0 1188 792"
		xml:space="preserve" color-interpolation-filters="sRGB" class="st15">
	<v:documentProperties v:langID="1033" v:viewMarkup="false">
		<v:userDefs>
			<v:ud v:nameU="msvNoAutoConnect" v:val="VT0(1):26"/>
		</v:userDefs>
	</v:documentProperties>

	<style type="text/css">
	<![CDATA[
		.st1 {fill:none;stroke:#0078d7;stroke-dasharray:0.01,3;stroke-width:1}
		.st2 {fill:#f2f2f2;stroke:#d8d8d8;stroke-width:0.25}
		.st3 {fill:#0078d7;stroke:none;stroke-width:0.25}
		.st4 {fill:none;stroke:none;stroke-width:0.25}
		.st5 {fill:#ffffff;font-family:Segoe UI Semibold;font-size:0.499992em}
		.st6 {fill:#ffffff;stroke:none;stroke-width:0.25}
		.st7 {fill:#0070c0;font-family:Segoe UI;font-size:0.666664em}
		.st8 {fill:none;stroke:none;stroke-linecap:round;stroke-linejoin:round;stroke-width:0.75}
		.st9 {fill:#000000;font-family:Segoe UI;font-size:0.666664em}
		.st10 {font-size:1em}
		.st11 {fill:none;stroke:#7f7f7f;stroke-dasharray:2.25,2.25;stroke-width:0.75}
		.st12 {marker-end:url(#mrkr4-87);stroke:#5b9bd5;stroke-linecap:round;stroke-linejoin:round;stroke-width:1}
		.st13 {fill:#5b9bd5;fill-opacity:1;stroke:#5b9bd5;stroke-opacity:1;stroke-width:0.35714285714286}
		.st14 {fill:#4a80b1;stroke:none;stroke-linecap:butt;stroke-width:0.75}
		.st15 {fill:none;fill-rule:evenodd;font-size:12px;overflow:visible;stroke-linecap:square;stroke-miterlimit:3}
	]]>
	</style>

	<defs id="Markers">
		<g id="lend4">
			<path d="M 2 1 L 0 0 L 2 -1 L 2 1 " style="stroke:none"/>
		</g>
		<marker id="mrkr4-87" class="st13" v:arrowType="4" v:arrowSize="1" v:setback="5.6" refX="-5.6" orient="auto"
				markerUnits="strokeWidth" overflow="visible">
			<use xlink:href="#lend4" transform="scale(-2.8,-2.8) "/>
		</marker>
	</defs>
	<g v:mID="13" v:index="1" v:groupContext="foregroundPage">
		<title>Island</title>
		<v:pageProperties v:drawingScale="1" v:pageScale="1" v:drawingUnits="19" v:shadowOffsetX="9" v:shadowOffsetY="-9"/>
		<v:layer v:name="000-All" v:index="0"/>
		<g id="shape3-1" v:mID="3" v:groupContext="shape" transform="translate(643.104,-384.132)">
			<title>Virtual Network Box</title>
			<path d="M0 792 L322.94 792 L322.94 595 L0 595 L0 792 Z" class="st1"/>
		</g>
		<g id="shape4-3" v:mID="4" v:groupContext="shape" transform="translate(652.5,-393.925)">
			<title>Sheet.4</title>
			<rect x="0" y="741.85" width="127.063" height="50.15" class="st2"/>
		</g>
		<g id="group5-5" transform="translate(757.368,-413.335)" v:mID="5" v:groupContext="group">
			<title>Sheet.5</title>
			<g id="group6-6" transform="translate(3.08463,-0.700182)" v:mID="6" v:groupContext="group">
				<title>Sheet.6</title>
				<g id="shape7-7" v:mID="7" v:groupContext="shape" v:layerMember="0">
					<title>Lock, protected.1135</title>
					<path d="M14.31 780.02 L13.31 780.02 L13.31 778.16 C13.31 774.24 10.81 772.23 7.9 772.23 L7.42 772.23 C4.45 772.23
								 2.01 774.19 2.01 778.16 L2.01 780.02 L1.01 780.02 C0.58 780.02 0 780.6 0 781.03 L0 790.99 C-0 791.42
								 0.58 792 1.01 792 L14.31 792 C14.74 792 15.32 791.42 15.32 790.99 L15.32 781.03 C15.32 780.6 14.74
								 780.02 14.31 780.02 ZM8.43 785.9 L8.43 790.04 L6.94 790.04 L6.94 785.9 C6.36 785.64 5.94 785.06
								 5.94 784.37 C5.94 783.41 6.73 782.62 7.69 782.62 C8.64 782.62 9.44 783.41 9.44 784.37 C9.38 785
								 9.01 785.59 8.43 785.9 ZM11.45 780.02 L3.87 780.02 L3.87 778.16 C3.87 775.67 5.2 773.98 7.42 773.98
								 L7.9 773.98 C10.18 773.98 11.45 775.67 11.45 778.16 L11.45 780.02 Z" class="st3"/>
				</g>
				<g id="shape8-9" v:mID="8" v:groupContext="shape" v:layerMember="0" transform="translate(2.28102,-0.389869)">
					<title>Sheet.8</title>
					<rect x="0" y="781.632" width="10.7581" height="10.3682" class="st3"/>
				</g>
			</g>
			<g id="shape9-11" v:mID="9" v:groupContext="shape">
				<title>Sheet.9</title>
				<desc>NSG</desc>
				<v:textBlock v:margins="rect(0,0,0,0)"/>
				<v:textRect cx="10.7447" cy="785.68" width="21.49" height="12.6408"/>
				<rect x="0" y="779.359" width="21.4894" height="12.6408" class="st4"/>
				<text x="4.72" y="787.48" class="st5" v:langID="1033"><v:paragraph v:horizAlign="1"/><v:tabList/>NSG</text>			</g>
		</g>
		<g id="group10-14" transform="translate(939.716,-379.439)" v:mID="10" v:groupContext="group">
			<title>Sheet.10</title>
			<g id="shape11-15" v:mID="11" v:groupContext="shape">
				<title>Sheet.11</title>
				<rect x="0" y="782.614" width="17.325" height="9.3862" class="st6"/>
			</g>
			<g id="group12-17" v:mID="12" v:groupContext="group">
				<title>Virtual Network</title>
				<g id="shape13-18" v:mID="13" v:groupContext="shape" transform="translate(12.0617,0)">
					<title>Sheet.13</title>
					<path d="M5.26 787.31 L4.21 786.25 L0.57 782.61 L0 783.23 L4.08 787.31 L0 791.39 L0.57 792 L4.21 788.36 L5.26
								 787.31 Z" class="st3"/>
				</g>
				<g id="shape14-20" v:mID="14" v:groupContext="shape">
					<title>Sheet.14</title>
					<path d="M0 787.31 L1.05 786.25 L4.69 782.61 L5.26 783.23 L1.18 787.31 L5.26 791.39 L4.69 792 L1.05 788.36 L0
								 787.31 Z" class="st3"/>
				</g>
				<g id="shape15-22" v:mID="15" v:groupContext="shape" transform="translate(4.4738,-3.64044)">
					<title>Sheet.15</title>
					<path d="M2.11 790.95 C2.11 791.52 1.62 792 1.05 792 C0.44 792 0 791.52 0 790.95 C0 790.38 0.48 789.89 1.05 789.89
								 C1.62 789.89 2.11 790.33 2.11 790.95 Z" class="st3"/>
				</g>
				<g id="shape16-24" v:mID="16" v:groupContext="shape" transform="translate(7.63177,-3.64044)">
					<title>Sheet.16</title>
					<ellipse cx="1.05266" cy="790.947" rx="1.05266" ry="1.05266" class="st3"/>
				</g>
				<g id="shape17-26" v:mID="17" v:groupContext="shape" transform="translate(10.7897,-3.64044)">
					<title>Sheet.17</title>
					<ellipse cx="1.05266" cy="790.947" rx="1.05266" ry="1.05266" class="st3"/>
				</g>
			</g>
		</g>
		<g id="shape18-28" v:mID="18" v:groupContext="shape" transform="translate(861.818,-384.132)">
			<title>Sheet.18</title>
			<desc>Virtual network</desc>
			<v:textBlock v:margins="rect(4,4,4,4)"/>
			<v:textRect cx="45.7234" cy="784.75" width="91.45" height="14.5"/>
			<rect x="0" y="777.5" width="91.4468" height="14.5" class="st4"/>
			<text x="18.84" y="787.15" class="st7" v:langID="1033"><v:paragraph v:horizAlign="1"/><v:tabList/>Virtual network</text>		</g>
		<g id="group19-31" transform="translate(659.107,-410.972)" v:mID="19" v:groupContext="group">
			<title>Virtual machine</title>
			<g id="shape20-32" v:mID="20" v:groupContext="shape" transform="translate(10.6837,-11.7195)">
				<title>Sheet.20</title>
				<path d="M0 792 L12.32 792 L12.32 783.74 L0 783.74 L0 792 ZM8.87 789.59 L6.56 790.93 L6.56 788.26 L8.87 786.92 L8.87
							 789.59 ZM6.35 785.21 L8.66 786.55 L6.36 787.88 L4.04 786.54 L6.35 785.21 ZM3.81 786.91 L6.13 788.24
							 L6.13 790.93 L3.81 789.59 L3.81 786.91 Z" class="st3"/>
			</g>
			<g id="shape21-34" v:mID="21" v:groupContext="shape">
				<title>Sheet.21</title>
				<path d="M31.19 765.89 L1.44 765.89 C0.65 765.89 0 766.54 0 767.33 L0 790.56 C0 791.36 0.65 792 1.44 792 L31.19 792
							 C31.99 792 32.63 791.36 32.63 790.56 L32.63 767.33 C32.63 766.54 31.99 765.89 31.19 765.89 ZM16.21 787.51
							 L15.3 790.2 C15.29 790.23 15.28 790.25 15.27 790.27 C15.26 790.29 15.24 790.3 15.21 790.31 C15.18 790.31
							 15.14 790.32 15.1 790.32 C15.05 790.33 14.98 790.33 14.9 790.33 C14.84 790.33 14.79 790.33 14.74 790.33
							 C14.7 790.32 14.66 790.32 14.63 790.32 C14.6 790.32 14.57 790.31 14.55 790.3 C14.53 790.3 14.52 790.29
							 14.5 790.28 C14.49 790.27 14.48 790.26 14.47 790.25 C14.47 790.23 14.46 790.22 14.45 790.2 L13.55 787.5
							 C13.53 787.45 13.52 787.4 13.51 787.37 C13.51 787.33 13.52 787.31 13.54 787.29 C13.56 787.28 13.59 787.27
							 13.64 787.26 C13.68 787.26 13.75 787.26 13.83 787.26 C13.91 787.26 13.96 787.26 14 787.26 C14.04 787.26
							 14.08 787.27 14.1 787.28 C14.12 787.28 14.13 787.3 14.14 787.31 C14.15 787.33 14.16 787.35 14.17 787.37
							 L14.91 789.72 L14.91 789.72 L15.64 787.38 C15.64 787.36 15.65 787.33 15.66 787.32 C15.67 787.3 15.68
							 787.29 15.71 787.28 C15.73 787.27 15.76 787.26 15.8 787.26 C15.85 787.26 15.9 787.26 15.98 787.26 C16.05
							 787.26 16.11 787.26 16.15 787.26 C16.19 787.27 16.21 787.28 16.23 787.3 C16.24 787.32 16.25 787.34 16.24
							 787.37 C16.24 787.41 16.23 787.45 16.21 787.51 ZM20.18 790.23 C20.18 790.24 20.18 790.26 20.17 790.27
							 C20.16 790.28 20.14 790.29 20.12 790.3 C20.1 790.31 20.07 790.32 20.03 790.32 C19.99 790.32 19.94 790.33
							 19.89 790.33 C19.83 790.33 19.78 790.32 19.74 790.32 C19.71 790.32 19.68 790.31 19.66 790.3 C19.63 790.29
							 19.62 790.28 19.61 790.27 C19.6 790.26 19.59 790.24 19.59 790.23 L19.59 787.75 L19.59 787.75 L18.71
							 790.23 C18.7 790.25 18.69 790.26 18.68 790.28 C18.66 790.29 18.64 790.3 18.62 790.31 C18.6 790.32 18.56
							 790.32 18.53 790.32 C18.49 790.33 18.44 790.33 18.39 790.33 C18.34 790.33 18.29 790.33 18.25 790.32
							 C18.22 790.32 18.18 790.31 18.16 790.3 C18.14 790.29 18.12 790.28 18.1 790.27 C18.09 790.26 18.08 790.24
							 18.07 790.23 L17.22 787.75 L17.22 787.75 L17.22 790.23 C17.22 790.24 17.21 790.26 17.21 790.27 C17.2
							 790.28 17.18 790.29 17.16 790.3 C17.13 790.31 17.1 790.32 17.07 790.32 C17.03 790.32 16.98 790.33 16.92
							 790.33 C16.87 790.33 16.82 790.32 16.78 790.32 C16.75 790.32 16.72 790.31 16.69 790.3 C16.67 790.29
							 16.65 790.28 16.65 790.27 C16.64 790.26 16.63 790.24 16.63 790.23 L16.63 787.52 C16.63 787.44 16.65
							 787.38 16.7 787.33 C16.74 787.29 16.79 787.27 16.87 787.27 L17.27 787.27 C17.34 787.27 17.4 787.28 17.46
							 787.29 C17.51 787.3 17.55 787.32 17.59 787.35 C17.63 787.38 17.66 787.41 17.68 787.46 C17.71 787.5 17.73
							 787.56 17.75 787.62 L18.41 789.43 L18.42 789.43 L19.1 787.63 C19.12 787.56 19.14 787.51 19.17 787.46
							 C19.19 787.41 19.22 787.38 19.25 787.35 C19.28 787.32 19.32 787.3 19.36 787.29 C19.41 787.28 19.46 787.27
							 19.52 787.27 L19.93 787.27 C19.98 787.27 20.01 787.28 20.04 787.29 C20.07 787.3 20.1 787.31 20.12 787.34
							 C20.14 787.36 20.15 787.38 20.16 787.41 C20.17 787.44 20.18 787.48 20.18 787.52 L20.18 790.23 L20.18
							 790.23 ZM24.01 780.5 C24.01 780.94 23.67 781.28 23.23 781.28 L18.75 781.28 C18.32 783.04 18.52 783.25
							 21.55 783.25 L21.55 783.97 L18.02 783.97 L15.45 783.97 L12.14 783.97 L12.14 783.25 C14.86 783.25 15.31
							 783.04 14.88 781.28 L10.46 781.28 C10.03 781.28 9.68 780.94 9.68 780.5 L9.68 771.8 C9.68 771.37 10.03
							 771.01 10.46 771.01 L23.23 771.01 C23.67 771.01 24.01 771.37 24.01 771.8 L24.01 780.5 L24.01 780.5 Z"
						class="st3"/>
			</g>
		</g>
		<g id="shape22-36" v:mID="22" v:groupContext="shape" transform="translate(653.346,-392.925)">
			<title>Sheet.22</title>
			<desc>Jumpbox</desc>
			<v:textBlock v:margins="rect(4,2,4,2)"/>
			<v:textRect cx="22.0769" cy="782" width="44.16" height="20"/>
			<rect x="0" y="772" width="44.1538" height="20" class="st8"/>
			<text x="6.06" y="784.4" class="st7" v:langID="1033"><v:paragraph v:horizAlign="1"/><v:tabList/>Jumpbox</text>		</g>
		<g id="shape52-39" v:mID="52" v:groupContext="shape" transform="translate(688.351,-410.972)">
			<title>Sheet.52</title>
			<desc>Management subnet</desc>
			<v:textBlock v:margins="rect(4,4,4,4)"/>
			<v:textRect cx="36.2024" cy="779.4" width="72.41" height="25.2"/>
			<rect x="0" y="766.8" width="72.4048" height="25.2" class="st4"/>
			<text x="12.67" y="777" class="st9" v:langID="1033"><v:paragraph v:horizAlign="1"/><v:tabList/>Management <tspan
						x="24.18" dy="1.2em" class="st10">subnet</tspan></text>		</g>
		<g id="shape73-43" v:mID="73" v:groupContext="shape" transform="translate(651.735,-566.063)">
			<title>Sheet.73</title>
			<desc>Web tier</desc>
			<v:textBlock v:margins="rect(4,4,4,4)"/>
			<v:textRect cx="45.9388" cy="784.75" width="91.88" height="14.5"/>
			<rect x="0" y="777.5" width="91.8777" height="14.5" class="st4"/>
			<text x="30.86" y="787.15" class="st9" v:langID="1033"><v:paragraph v:horizAlign="1"/><v:tabList/>Web tier</text>		</g>
		<g id="shape74-46" v:mID="74" v:groupContext="shape" transform="translate(756.017,-566.063)">
			<title>Sheet.74</title>
			<desc>Business tier</desc>
			<v:textBlock v:margins="rect(4,4,4,4)"/>
			<v:textRect cx="51.0125" cy="784.75" width="102.03" height="14.5"/>
			<rect x="0" y="777.5" width="102.025" height="14.5" class="st4"/>
			<text x="29.14" y="787.15" class="st9" v:langID="1033"><v:paragraph v:horizAlign="1"/><v:tabList/>Business tier</text>		</g>
		<g id="shape75-49" v:mID="75" v:groupContext="shape" transform="translate(864.039,-565.682)">
			<title>Sheet.75</title>
			<desc>Data tier</desc>
			<v:textBlock v:margins="rect(4,4,4,4)"/>
			<v:textRect cx="48.0027" cy="784.75" width="96.01" height="14.5"/>
			<rect x="0" y="777.5" width="96.0054" height="14.5" class="st4"/>
			<text x="32.87" y="787.15" class="st9" v:langID="1033"><v:paragraph v:horizAlign="1"/><v:tabList/>Data tier</text>		</g>
		<g id="group76-52" transform="translate(649.671,-455.132)" v:mID="76" v:groupContext="group">
			<title>Sheet.76</title>
			<g id="shape77-53" v:mID="77" v:groupContext="shape" transform="translate(2.56522,0)">
				<title>Sheet.77</title>
				<rect x="0" y="680.261" width="92.8125" height="111.739" class="st2"/>
			</g>
			<g id="group78-55" transform="translate(63.3729,-10.9463)" v:mID="78" v:groupContext="group">
				<title>Sheet.78</title>
				<g id="group79-56" transform="translate(-12.9337,-64.4985)" v:mID="79" v:groupContext="group">
					<title>Virtual machine</title>
					<g id="shape80-57" v:mID="80" v:groupContext="shape" transform="translate(10.6837,-11.7195)">
						<title>Sheet.80</title>
						<path d="M0 792 L12.32 792 L12.32 783.74 L0 783.74 L0 792 ZM8.87 789.59 L6.56 790.93 L6.56 788.26 L8.87 786.92
									 L8.87 789.59 ZM6.35 785.21 L8.66 786.55 L6.36 787.88 L4.04 786.54 L6.35 785.21 ZM3.81 786.91
									 L6.13 788.24 L6.13 790.93 L3.81 789.59 L3.81 786.91 Z" class="st3"/>
					</g>
					<g id="shape81-59" v:mID="81" v:groupContext="shape">
						<title>Sheet.81</title>
						<path d="M31.19 765.89 L1.44 765.89 C0.65 765.89 0 766.54 0 767.33 L0 790.56 C0 791.36 0.65 792 1.44 792
									 L31.19 792 C31.99 792 32.63 791.36 32.63 790.56 L32.63 767.33 C32.63 766.54 31.99 765.89 31.19
									 765.89 ZM16.21 787.51 L15.3 790.2 C15.29 790.23 15.28 790.25 15.27 790.27 C15.26 790.29 15.24
									 790.3 15.21 790.31 C15.18 790.31 15.14 790.32 15.1 790.32 C15.05 790.33 14.98 790.33 14.9 790.33
									 C14.84 790.33 14.79 790.33 14.74 790.33 C14.7 790.32 14.66 790.32 14.63 790.32 C14.6 790.32
									 14.57 790.31 14.55 790.3 C14.53 790.3 14.52 790.29 14.5 790.28 C14.49 790.27 14.48 790.26 14.47
									 790.25 C14.47 790.23 14.46 790.22 14.45 790.2 L13.55 787.5 C13.53 787.45 13.52 787.4 13.51 787.37
									 C13.51 787.33 13.52 787.31 13.54 787.29 C13.56 787.28 13.59 787.27 13.64 787.26 C13.68 787.26
									 13.75 787.26 13.83 787.26 C13.91 787.26 13.96 787.26 14 787.26 C14.04 787.26 14.08 787.27 14.1
									 787.28 C14.12 787.28 14.13 787.3 14.14 787.31 C14.15 787.33 14.16 787.35 14.17 787.37 L14.91
									 789.72 L14.91 789.72 L15.64 787.38 C15.64 787.36 15.65 787.33 15.66 787.32 C15.67 787.3 15.68
									 787.29 15.71 787.28 C15.73 787.27 15.76 787.26 15.8 787.26 C15.85 787.26 15.9 787.26 15.98 787.26
									 C16.05 787.26 16.11 787.26 16.15 787.26 C16.19 787.27 16.21 787.28 16.23 787.3 C16.24 787.32
									 16.25 787.34 16.24 787.37 C16.24 787.41 16.23 787.45 16.21 787.51 ZM20.18 790.23 C20.18 790.24
									 20.18 790.26 20.17 790.27 C20.16 790.28 20.14 790.29 20.12 790.3 C20.1 790.31 20.07 790.32 20.03
									 790.32 C19.99 790.32 19.94 790.33 19.89 790.33 C19.83 790.33 19.78 790.32 19.74 790.32 C19.71
									 790.32 19.68 790.31 19.66 790.3 C19.63 790.29 19.62 790.28 19.61 790.27 C19.6 790.26 19.59 790.24
									 19.59 790.23 L19.59 787.75 L19.59 787.75 L18.71 790.23 C18.7 790.25 18.69 790.26 18.68 790.28
									 C18.66 790.29 18.64 790.3 18.62 790.31 C18.6 790.32 18.56 790.32 18.53 790.32 C18.49 790.33
									 18.44 790.33 18.39 790.33 C18.34 790.33 18.29 790.33 18.25 790.32 C18.22 790.32 18.18 790.31
									 18.16 790.3 C18.14 790.29 18.12 790.28 18.1 790.27 C18.09 790.26 18.08 790.24 18.07 790.23 L17.22
									 787.75 L17.22 787.75 L17.22 790.23 C17.22 790.24 17.21 790.26 17.21 790.27 C17.2 790.28 17.18
									 790.29 17.16 790.3 C17.13 790.31 17.1 790.32 17.07 790.32 C17.03 790.32 16.98 790.33 16.92 790.33
									 C16.87 790.33 16.82 790.32 16.78 790.32 C16.75 790.32 16.72 790.31 16.69 790.3 C16.67 790.29
									 16.65 790.28 16.65 790.27 C16.64 790.26 16.63 790.24 16.63 790.23 L16.63 787.52 C16.63 787.44
									 16.65 787.38 16.7 787.33 C16.74 787.29 16.79 787.27 16.87 787.27 L17.27 787.27 C17.34 787.27
									 17.4 787.28 17.46 787.29 C17.51 787.3 17.55 787.32 17.59 787.35 C17.63 787.38 17.66 787.41 17.68
									 787.46 C17.71 787.5 17.73 787.56 17.75 787.62 L18.41 789.43 L18.42 789.43 L19.1 787.63 C19.12
									 787.56 19.14 787.51 19.17 787.46 C19.19 787.41 19.22 787.38 19.25 787.35 C19.28 787.32 19.32
									 787.3 19.36 787.29 C19.41 787.28 19.46 787.27 19.52 787.27 L19.93 787.27 C19.98 787.27 20.01
									 787.28 20.04 787.29 C20.07 787.3 20.1 787.31 20.12 787.34 C20.14 787.36 20.15 787.38 20.16 787.41
									 C20.17 787.44 20.18 787.48 20.18 787.52 L20.18 790.23 L20.18 790.23 ZM24.01 780.5 C24.01 780.94
									 23.67 781.28 23.23 781.28 L18.75 781.28 C18.32 783.04 18.52 783.25 21.55 783.25 L21.55 783.97
									 L18.02 783.97 L15.45 783.97 L12.14 783.97 L12.14 783.25 C14.86 783.25 15.31 783.04 14.88 781.28
									 L10.46 781.28 C10.03 781.28 9.68 780.94 9.68 780.5 L9.68 771.8 C9.68 771.37 10.03 771.01 10.46
									 771.01 L23.23 771.01 C23.67 771.01 24.01 771.37 24.01 771.8 L24.01 780.5 L24.01 780.5 Z"
								class="st3"/>
					</g>
				</g>
				<g id="group82-61" transform="translate(-12.9337,-32.2492)" v:mID="82" v:groupContext="group">
					<title>Virtual machine.76</title>
					<g id="shape83-62" v:mID="83" v:groupContext="shape" transform="translate(10.6837,-11.7195)">
						<title>Sheet.83</title>
						<path d="M0 792 L12.32 792 L12.32 783.74 L0 783.74 L0 792 ZM8.87 789.59 L6.56 790.93 L6.56 788.26 L8.87 786.92
									 L8.87 789.59 ZM6.35 785.21 L8.66 786.55 L6.36 787.88 L4.04 786.54 L6.35 785.21 ZM3.81 786.91
									 L6.13 788.24 L6.13 790.93 L3.81 789.59 L3.81 786.91 Z" class="st3"/>
					</g>
					<g id="shape84-64" v:mID="84" v:groupContext="shape">
						<title>Sheet.84</title>
						<path d="M31.19 765.89 L1.44 765.89 C0.65 765.89 0 766.54 0 767.33 L0 790.56 C0 791.36 0.65 792 1.44 792
									 L31.19 792 C31.99 792 32.63 791.36 32.63 790.56 L32.63 767.33 C32.63 766.54 31.99 765.89 31.19
									 765.89 ZM16.21 787.51 L15.3 790.2 C15.29 790.23 15.28 790.25 15.27 790.27 C15.26 790.29 15.24
									 790.3 15.21 790.31 C15.18 790.31 15.14 790.32 15.1 790.32 C15.05 790.33 14.98 790.33 14.9 790.33
									 C14.84 790.33 14.79 790.33 14.74 790.33 C14.7 790.32 14.66 790.32 14.63 790.32 C14.6 790.32
									 14.57 790.31 14.55 790.3 C14.53 790.3 14.52 790.29 14.5 790.28 C14.49 790.27 14.48 790.26 14.47
									 790.25 C14.47 790.23 14.46 790.22 14.45 790.2 L13.55 787.5 C13.53 787.45 13.52 787.4 13.51 787.37
									 C13.51 787.33 13.52 787.31 13.54 787.29 C13.56 787.28 13.59 787.27 13.64 787.26 C13.68 787.26
									 13.75 787.26 13.83 787.26 C13.91 787.26 13.96 787.26 14 787.26 C14.04 787.26 14.08 787.27 14.1
									 787.28 C14.12 787.28 14.13 787.3 14.14 787.31 C14.15 787.33 14.16 787.35 14.17 787.37 L14.91
									 789.72 L14.91 789.72 L15.64 787.38 C15.64 787.36 15.65 787.33 15.66 787.32 C15.67 787.3 15.68
									 787.29 15.71 787.28 C15.73 787.27 15.76 787.26 15.8 787.26 C15.85 787.26 15.9 787.26 15.98 787.26
									 C16.05 787.26 16.11 787.26 16.15 787.26 C16.19 787.27 16.21 787.28 16.23 787.3 C16.24 787.32
									 16.25 787.34 16.24 787.37 C16.24 787.41 16.23 787.45 16.21 787.51 ZM20.18 790.23 C20.18 790.24
									 20.18 790.26 20.17 790.27 C20.16 790.28 20.14 790.29 20.12 790.3 C20.1 790.31 20.07 790.32 20.03
									 790.32 C19.99 790.32 19.94 790.33 19.89 790.33 C19.83 790.33 19.78 790.32 19.74 790.32 C19.71
									 790.32 19.68 790.31 19.66 790.3 C19.63 790.29 19.62 790.28 19.61 790.27 C19.6 790.26 19.59 790.24
									 19.59 790.23 L19.59 787.75 L19.59 787.75 L18.71 790.23 C18.7 790.25 18.69 790.26 18.68 790.28
									 C18.66 790.29 18.64 790.3 18.62 790.31 C18.6 790.32 18.56 790.32 18.53 790.32 C18.49 790.33
									 18.44 790.33 18.39 790.33 C18.34 790.33 18.29 790.33 18.25 790.32 C18.22 790.32 18.18 790.31
									 18.16 790.3 C18.14 790.29 18.12 790.28 18.1 790.27 C18.09 790.26 18.08 790.24 18.07 790.23 L17.22
									 787.75 L17.22 787.75 L17.22 790.23 C17.22 790.24 17.21 790.26 17.21 790.27 C17.2 790.28 17.18
									 790.29 17.16 790.3 C17.13 790.31 17.1 790.32 17.07 790.32 C17.03 790.32 16.98 790.33 16.92 790.33
									 C16.87 790.33 16.82 790.32 16.78 790.32 C16.75 790.32 16.72 790.31 16.69 790.3 C16.67 790.29
									 16.65 790.28 16.65 790.27 C16.64 790.26 16.63 790.24 16.63 790.23 L16.63 787.52 C16.63 787.44
									 16.65 787.38 16.7 787.33 C16.74 787.29 16.79 787.27 16.87 787.27 L17.27 787.27 C17.34 787.27
									 17.4 787.28 17.46 787.29 C17.51 787.3 17.55 787.32 17.59 787.35 C17.63 787.38 17.66 787.41 17.68
									 787.46 C17.71 787.5 17.73 787.56 17.75 787.62 L18.41 789.43 L18.42 789.43 L19.1 787.63 C19.12
									 787.56 19.14 787.51 19.17 787.46 C19.19 787.41 19.22 787.38 19.25 787.35 C19.28 787.32 19.32
									 787.3 19.36 787.29 C19.41 787.28 19.46 787.27 19.52 787.27 L19.93 787.27 C19.98 787.27 20.01
									 787.28 20.04 787.29 C20.07 787.3 20.1 787.31 20.12 787.34 C20.14 787.36 20.15 787.38 20.16 787.41
									 C20.17 787.44 20.18 787.48 20.18 787.52 L20.18 790.23 L20.18 790.23 ZM24.01 780.5 C24.01 780.94
									 23.67 781.28 23.23 781.28 L18.75 781.28 C18.32 783.04 18.52 783.25 21.55 783.25 L21.55 783.97
									 L18.02 783.97 L15.45 783.97 L12.14 783.97 L12.14 783.25 C14.86 783.25 15.31 783.04 14.88 781.28
									 L10.46 781.28 C10.03 781.28 9.68 780.94 9.68 780.5 L9.68 771.8 C9.68 771.37 10.03 771.01 10.46
									 771.01 L23.23 771.01 C23.67 771.01 24.01 771.37 24.01 771.8 L24.01 780.5 L24.01 780.5 Z"
								class="st3"/>
					</g>
				</g>
				<g id="group85-66" transform="translate(-12.9337,-1.13687E-13)" v:mID="85" v:groupContext="group">
					<title>Virtual machine.79</title>
					<g id="shape86-67" v:mID="86" v:groupContext="shape" transform="translate(10.6837,-11.7195)">
						<title>Sheet.86</title>
						<path d="M0 792 L12.32 792 L12.32 783.74 L0 783.74 L0 792 ZM8.87 789.59 L6.56 790.93 L6.56 788.26 L8.87 786.92
									 L8.87 789.59 ZM6.35 785.21 L8.66 786.55 L6.36 787.88 L4.04 786.54 L6.35 785.21 ZM3.81 786.91
									 L6.13 788.24 L6.13 790.93 L3.81 789.59 L3.81 786.91 Z" class="st3"/>
					</g>
					<g id="shape87-69" v:mID="87" v:groupContext="shape">
						<title>Sheet.87</title>
						<path d="M31.19 765.89 L1.44 765.89 C0.65 765.89 0 766.54 0 767.33 L0 790.56 C0 791.36 0.65 792 1.44 792
									 L31.19 792 C31.99 792 32.63 791.36 32.63 790.56 L32.63 767.33 C32.63 766.54 31.99 765.89 31.19
									 765.89 ZM16.21 787.51 L15.3 790.2 C15.29 790.23 15.28 790.25 15.27 790.27 C15.26 790.29 15.24
									 790.3 15.21 790.31 C15.18 790.31 15.14 790.32 15.1 790.32 C15.05 790.33 14.98 790.33 14.9 790.33
									 C14.84 790.33 14.79 790.33 14.74 790.33 C14.7 790.32 14.66 790.32 14.63 790.32 C14.6 790.32
									 14.57 790.31 14.55 790.3 C14.53 790.3 14.52 790.29 14.5 790.28 C14.49 790.27 14.48 790.26 14.47
									 790.25 C14.47 790.23 14.46 790.22 14.45 790.2 L13.55 787.5 C13.53 787.45 13.52 787.4 13.51 787.37
									 C13.51 787.33 13.52 787.31 13.54 787.29 C13.56 787.28 13.59 787.27 13.64 787.26 C13.68 787.26
									 13.75 787.26 13.83 787.26 C13.91 787.26 13.96 787.26 14 787.26 C14.04 787.26 14.08 787.27 14.1
									 787.28 C14.12 787.28 14.13 787.3 14.14 787.31 C14.15 787.33 14.16 787.35 14.17 787.37 L14.91
									 789.72 L14.91 789.72 L15.64 787.38 C15.64 787.36 15.65 787.33 15.66 787.32 C15.67 787.3 15.68
									 787.29 15.71 787.28 C15.73 787.27 15.76 787.26 15.8 787.26 C15.85 787.26 15.9 787.26 15.98 787.26
									 C16.05 787.26 16.11 787.26 16.15 787.26 C16.19 787.27 16.21 787.28 16.23 787.3 C16.24 787.32
									 16.25 787.34 16.24 787.37 C16.24 787.41 16.23 787.45 16.21 787.51 ZM20.18 790.23 C20.18 790.24
									 20.18 790.26 20.17 790.27 C20.16 790.28 20.14 790.29 20.12 790.3 C20.1 790.31 20.07 790.32 20.03
									 790.32 C19.99 790.32 19.94 790.33 19.89 790.33 C19.83 790.33 19.78 790.32 19.74 790.32 C19.71
									 790.32 19.68 790.31 19.66 790.3 C19.63 790.29 19.62 790.28 19.61 790.27 C19.6 790.26 19.59 790.24
									 19.59 790.23 L19.59 787.75 L19.59 787.75 L18.71 790.23 C18.7 790.25 18.69 790.26 18.68 790.28
									 C18.66 790.29 18.64 790.3 18.62 790.31 C18.6 790.32 18.56 790.32 18.53 790.32 C18.49 790.33
									 18.44 790.33 18.39 790.33 C18.34 790.33 18.29 790.33 18.25 790.32 C18.22 790.32 18.18 790.31
									 18.16 790.3 C18.14 790.29 18.12 790.28 18.1 790.27 C18.09 790.26 18.08 790.24 18.07 790.23 L17.22
									 787.75 L17.22 787.75 L17.22 790.23 C17.22 790.24 17.21 790.26 17.21 790.27 C17.2 790.28 17.18
									 790.29 17.16 790.3 C17.13 790.31 17.1 790.32 17.07 790.32 C17.03 790.32 16.98 790.33 16.92 790.33
									 C16.87 790.33 16.82 790.32 16.78 790.32 C16.75 790.32 16.72 790.31 16.69 790.3 C16.67 790.29
									 16.65 790.28 16.65 790.27 C16.64 790.26 16.63 790.24 16.63 790.23 L16.63 787.52 C16.63 787.44
									 16.65 787.38 16.7 787.33 C16.74 787.29 16.79 787.27 16.87 787.27 L17.27 787.27 C17.34 787.27
									 17.4 787.28 17.46 787.29 C17.51 787.3 17.55 787.32 17.59 787.35 C17.63 787.38 17.66 787.41 17.68
									 787.46 C17.71 787.5 17.73 787.56 17.75 787.62 L18.41 789.43 L18.42 789.43 L19.1 787.63 C19.12
									 787.56 19.14 787.51 19.17 787.46 C19.19 787.41 19.22 787.38 19.25 787.35 C19.28 787.32 19.32
									 787.3 19.36 787.29 C19.41 787.28 19.46 787.27 19.52 787.27 L19.93 787.27 C19.98 787.27 20.01
									 787.28 20.04 787.29 C20.07 787.3 20.1 787.31 20.12 787.34 C20.14 787.36 20.15 787.38 20.16 787.41
									 C20.17 787.44 20.18 787.48 20.18 787.52 L20.18 790.23 L20.18 790.23 ZM24.01 780.5 C24.01 780.94
									 23.67 781.28 23.23 781.28 L18.75 781.28 C18.32 783.04 18.52 783.25 21.55 783.25 L21.55 783.97
									 L18.02 783.97 L15.45 783.97 L12.14 783.97 L12.14 783.25 C14.86 783.25 15.31 783.04 14.88 781.28
									 L10.46 781.28 C10.03 781.28 9.68 780.94 9.68 780.5 L9.68 771.8 C9.68 771.37 10.03 771.01 10.46
									 771.01 L23.23 771.01 C23.67 771.01 24.01 771.37 24.01 771.8 L24.01 780.5 L24.01 780.5 Z"
								class="st3"/>
					</g>
				</g>
			</g>
			<g id="shape88-71" v:mID="88" v:groupContext="shape" transform="translate(44.6802,-4.5)">
				<title>Sheet.88</title>
				<path d="M0 792 L44.15 792 L44.15 689.26 L0 689.26 L0 792 Z" class="st11"/>
			</g>
			<g id="group89-73" transform="translate(3.63302,-88.7635)" v:mID="89" v:groupContext="group">
				<title>Sheet.89</title>
				<g id="group90-74" transform="translate(3.08463,-0.700182)" v:mID="90" v:groupContext="group">
					<title>Sheet.90</title>
					<g id="shape91-75" v:mID="91" v:groupContext="shape" v:layerMember="0">
						<title>Lock, protected.1135</title>
						<path d="M14.31 780.02 L13.31 780.02 L13.31 778.16 C13.31 774.24 10.81 772.23 7.9 772.23 L7.42 772.23 C4.45
									 772.23 2.01 774.19 2.01 778.16 L2.01 780.02 L1.01 780.02 C0.58 780.02 0 780.6 0 781.03 L0 790.99
									 C-0 791.42 0.58 792 1.01 792 L14.31 792 C14.74 792 15.32 791.42 15.32 790.99 L15.32 781.03 C15.32
									 780.6 14.74 780.02 14.31 780.02 ZM8.43 785.9 L8.43 790.04 L6.94 790.04 L6.94 785.9 C6.36 785.64
									 5.94 785.06 5.94 784.37 C5.94 783.41 6.73 782.62 7.69 782.62 C8.64 782.62 9.44 783.41 9.44 784.37
									 C9.38 785 9.01 785.59 8.43 785.9 ZM11.45 780.02 L3.87 780.02 L3.87 778.16 C3.87 775.67 5.2 773.98
									 7.42 773.98 L7.9 773.98 C10.18 773.98 11.45 775.67 11.45 778.16 L11.45 780.02 Z" class="st3"/>
					</g>
					<g id="shape92-77" v:mID="92" v:groupContext="shape" v:layerMember="0" transform="translate(2.28102,-0.389869)">
						<title>Sheet.92</title>
						<rect x="0" y="781.632" width="10.7581" height="10.3682" class="st3"/>
					</g>
				</g>
				<g id="shape93-79" v:mID="93" v:groupContext="shape">
					<title>Sheet.93</title>
					<desc>NSG</desc>
					<v:textBlock v:margins="rect(0,0,0,0)"/>
					<v:textRect cx="10.7447" cy="785.68" width="21.49" height="12.6408"/>
					<rect x="0" y="779.359" width="21.4894" height="12.6408" class="st4"/>
					<text x="4.72" y="787.48" class="st5" v:langID="1033"><v:paragraph v:horizAlign="1"/><v:tabList/>NSG</text>				</g>
			</g>
			<g id="shape94-82" v:mID="94" v:groupContext="shape" transform="translate(-11.1632,-57.8663) rotate(0.109089)">
				<title>Sheet.94</title>
				<path d="M0 792 L55.83 792" class="st12"/>
			</g>
			<g id="shape95-88" v:mID="95" v:groupContext="shape" transform="translate(-674.893,378.085) rotate(-63.2551)">
				<title>Sheet.95</title>
				<path d="M0 792 L30.79 792" class="st12"/>
			</g>
			<g id="shape96-93" v:mID="96" v:groupContext="shape" transform="translate(737.397,373.652) rotate(62.8954)">
				<title>Sheet.96</title>
				<path d="M0 792 L30.35 792" class="st12"/>
			</g>
			<g id="group97-98" transform="translate(-46.6712,-40.8678)" v:mID="97" v:groupContext="group">
				<title>Azure load balancer.194</title>
				<g id="group98-99" transform="translate(2.6,-2.53462)" v:mID="98" v:groupContext="group">
					<title>Sheet.98</title>
					<g id="shape99-100" v:mID="99" v:groupContext="shape">
						<title>Sheet.99</title>
						<path d="M28 775.71 L16.29 764 C15.78 763.49 15.15 763.2 14.4 763.2 C13.71 763.2 13.02 763.49 12.51 764 L0.8
									 775.71 C0.29 776.22 0 776.85 0 777.6 C-0 778.29 0.29 778.98 0.8 779.49 L12.51 791.2 C13.02 791.71
									 13.65 792 14.4 792 C15.09 792 15.78 791.71 16.29 791.2 L28 779.49 C28.51 778.98 28.8 778.35
									 28.8 777.6 C28.74 776.85 28.46 776.17 28 775.71 ZM22.43 781.16 L22.43 778.52 L18.42 778.52 C18.01
									 779.89 16.92 780.98 15.55 781.39 L15.55 784.08 C16.12 784.48 16.98 785.4 16.98 786.38 C16.98
									 787.81 15.83 788.96 14.4 788.96 C12.97 788.96 11.82 787.81 11.82 786.38 C11.82 785.35 12.68
									 784.48 13.25 784.08 L13.25 781.44 C11.88 781.04 10.79 779.95 10.38 778.58 L6.37 778.58 L6.37
									 781.27 L2.58 777.49 L6.37 773.7 L6.37 776.34 L10.38 776.34 C10.79 774.96 11.88 773.87 13.25
									 773.47 L13.25 769.63 L10.61 769.63 L14.4 765.84 L18.19 769.63 L15.55 769.63 L15.55 773.47 C16.92
									 773.87 18.01 774.96 18.42 776.34 L22.43 776.34 L22.43 773.64 L26.22 777.43 L22.43 781.16 Z"
								class="st3"/>
					</g>
					<g id="shape100-102" v:mID="100" v:groupContext="shape" transform="translate(11.3594,-11.5888)">
						<title>Sheet.100</title>
						<path d="M3.04 785.92 C1.38 785.92 0 787.3 0 788.96 C0 790.62 1.38 792 3.04 792 C4.7 792 6.08 790.62 6.08
									 788.96 C6.08 787.3 4.7 785.92 3.04 785.92 Z" class="st3"/>
					</g>
				</g>
			</g>
		</g>
		<g id="shape101-104" v:mID="101" v:groupContext="shape" transform="translate(773.729,-511.637) rotate(2.04937)">
			<title>Sheet.101</title>
			<path d="M0 792 L5.04 792" class="st12"/>
		</g>
		<g id="shape102-109" v:mID="102" v:groupContext="shape" transform="translate(871.167,-511.897) rotate(1.42893)">
			<title>Sheet.102</title>
			<path d="M0 792 L9.66 792" class="st12"/>
		</g>
		<g id="group103-114" transform="translate(864.039,-454.263)" v:mID="103" v:groupContext="group">
			<title>Sheet.103</title>
			<g id="shape104-115" v:mID="104" v:groupContext="shape" transform="translate(2.56522,0)">
				<title>Sheet.104</title>
				<rect x="0" y="680.261" width="92.8125" height="111.739" class="st2"/>
			</g>
			<g id="group105-117" transform="translate(63.3729,-10.9463)" v:mID="105" v:groupContext="group">
				<title>Sheet.105</title>
				<g id="group106-118" transform="translate(-12.9337,-64.4985)" v:mID="106" v:groupContext="group">
					<title>Virtual machine</title>
					<g id="shape107-119" v:mID="107" v:groupContext="shape" transform="translate(10.6837,-11.7195)">
						<title>Sheet.107</title>
						<path d="M0 792 L12.32 792 L12.32 783.74 L0 783.74 L0 792 ZM8.87 789.59 L6.56 790.93 L6.56 788.26 L8.87 786.92
									 L8.87 789.59 ZM6.35 785.21 L8.66 786.55 L6.36 787.88 L4.04 786.54 L6.35 785.21 ZM3.81 786.91
									 L6.13 788.24 L6.13 790.93 L3.81 789.59 L3.81 786.91 Z" class="st3"/>
					</g>
					<g id="shape108-121" v:mID="108" v:groupContext="shape">
						<title>Sheet.108</title>
						<path d="M31.19 765.89 L1.44 765.89 C0.65 765.89 0 766.54 0 767.33 L0 790.56 C0 791.36 0.65 792 1.44 792
									 L31.19 792 C31.99 792 32.63 791.36 32.63 790.56 L32.63 767.33 C32.63 766.54 31.99 765.89 31.19
									 765.89 ZM16.21 787.51 L15.3 790.2 C15.29 790.23 15.28 790.25 15.27 790.27 C15.26 790.29 15.24
									 790.3 15.21 790.31 C15.18 790.31 15.14 790.32 15.1 790.32 C15.05 790.33 14.98 790.33 14.9 790.33
									 C14.84 790.33 14.79 790.33 14.74 790.33 C14.7 790.32 14.66 790.32 14.63 790.32 C14.6 790.32
									 14.57 790.31 14.55 790.3 C14.53 790.3 14.52 790.29 14.5 790.28 C14.49 790.27 14.48 790.26 14.47
									 790.25 C14.47 790.23 14.46 790.22 14.45 790.2 L13.55 787.5 C13.53 787.45 13.52 787.4 13.51 787.37
									 C13.51 787.33 13.52 787.31 13.54 787.29 C13.56 787.28 13.59 787.27 13.64 787.26 C13.68 787.26
									 13.75 787.26 13.83 787.26 C13.91 787.26 13.96 787.26 14 787.26 C14.04 787.26 14.08 787.27 14.1
									 787.28 C14.12 787.28 14.13 787.3 14.14 787.31 C14.15 787.33 14.16 787.35 14.17 787.37 L14.91
									 789.72 L14.91 789.72 L15.64 787.38 C15.64 787.36 15.65 787.33 15.66 787.32 C15.67 787.3 15.68
									 787.29 15.71 787.28 C15.73 787.27 15.76 787.26 15.8 787.26 C15.85 787.26 15.9 787.26 15.98 787.26
									 C16.05 787.26 16.11 787.26 16.15 787.26 C16.19 787.27 16.21 787.28 16.23 787.3 C16.24 787.32
									 16.25 787.34 16.24 787.37 C16.24 787.41 16.23 787.45 16.21 787.51 ZM20.18 790.23 C20.18 790.24
									 20.18 790.26 20.17 790.27 C20.16 790.28 20.14 790.29 20.12 790.3 C20.1 790.31 20.07 790.32 20.03
									 790.32 C19.99 790.32 19.94 790.33 19.89 790.33 C19.83 790.33 19.78 790.32 19.74 790.32 C19.71
									 790.32 19.68 790.31 19.66 790.3 C19.63 790.29 19.62 790.28 19.61 790.27 C19.6 790.26 19.59 790.24
									 19.59 790.23 L19.59 787.75 L19.59 787.75 L18.71 790.23 C18.7 790.25 18.69 790.26 18.68 790.28
									 C18.66 790.29 18.64 790.3 18.62 790.31 C18.6 790.32 18.56 790.32 18.53 790.32 C18.49 790.33
									 18.44 790.33 18.39 790.33 C18.34 790.33 18.29 790.33 18.25 790.32 C18.22 790.32 18.18 790.31
									 18.16 790.3 C18.14 790.29 18.12 790.28 18.1 790.27 C18.09 790.26 18.08 790.24 18.07 790.23 L17.22
									 787.75 L17.22 787.75 L17.22 790.23 C17.22 790.24 17.21 790.26 17.21 790.27 C17.2 790.28 17.18
									 790.29 17.16 790.3 C17.13 790.31 17.1 790.32 17.07 790.32 C17.03 790.32 16.98 790.33 16.92 790.33
									 C16.87 790.33 16.82 790.32 16.78 790.32 C16.75 790.32 16.72 790.31 16.69 790.3 C16.67 790.29
									 16.65 790.28 16.65 790.27 C16.64 790.26 16.63 790.24 16.63 790.23 L16.63 787.52 C16.63 787.44
									 16.65 787.38 16.7 787.33 C16.74 787.29 16.79 787.27 16.87 787.27 L17.27 787.27 C17.34 787.27
									 17.4 787.28 17.46 787.29 C17.51 787.3 17.55 787.32 17.59 787.35 C17.63 787.38 17.66 787.41 17.68
									 787.46 C17.71 787.5 17.73 787.56 17.75 787.62 L18.41 789.43 L18.42 789.43 L19.1 787.63 C19.12
									 787.56 19.14 787.51 19.17 787.46 C19.19 787.41 19.22 787.38 19.25 787.35 C19.28 787.32 19.32
									 787.3 19.36 787.29 C19.41 787.28 19.46 787.27 19.52 787.27 L19.93 787.27 C19.98 787.27 20.01
									 787.28 20.04 787.29 C20.07 787.3 20.1 787.31 20.12 787.34 C20.14 787.36 20.15 787.38 20.16 787.41
									 C20.17 787.44 20.18 787.48 20.18 787.52 L20.18 790.23 L20.18 790.23 ZM24.01 780.5 C24.01 780.94
									 23.67 781.28 23.23 781.28 L18.75 781.28 C18.32 783.04 18.52 783.25 21.55 783.25 L21.55 783.97
									 L18.02 783.97 L15.45 783.97 L12.14 783.97 L12.14 783.25 C14.86 783.25 15.31 783.04 14.88 781.28
									 L10.46 781.28 C10.03 781.28 9.68 780.94 9.68 780.5 L9.68 771.8 C9.68 771.37 10.03 771.01 10.46
									 771.01 L23.23 771.01 C23.67 771.01 24.01 771.37 24.01 771.8 L24.01 780.5 L24.01 780.5 Z"
								class="st3"/>
					</g>
				</g>
				<g id="group109-123" transform="translate(-12.9337,-32.2492)" v:mID="109" v:groupContext="group">
					<title>Virtual machine.76</title>
					<g id="shape110-124" v:mID="110" v:groupContext="shape" transform="translate(10.6837,-11.7195)">
						<title>Sheet.110</title>
						<path d="M0 792 L12.32 792 L12.32 783.74 L0 783.74 L0 792 ZM8.87 789.59 L6.56 790.93 L6.56 788.26 L8.87 786.92
									 L8.87 789.59 ZM6.35 785.21 L8.66 786.55 L6.36 787.88 L4.04 786.54 L6.35 785.21 ZM3.81 786.91
									 L6.13 788.24 L6.13 790.93 L3.81 789.59 L3.81 786.91 Z" class="st3"/>
					</g>
					<g id="shape111-126" v:mID="111" v:groupContext="shape">
						<title>Sheet.111</title>
						<path d="M31.19 765.89 L1.44 765.89 C0.65 765.89 0 766.54 0 767.33 L0 790.56 C0 791.36 0.65 792 1.44 792
									 L31.19 792 C31.99 792 32.63 791.36 32.63 790.56 L32.63 767.33 C32.63 766.54 31.99 765.89 31.19
									 765.89 ZM16.21 787.51 L15.3 790.2 C15.29 790.23 15.28 790.25 15.27 790.27 C15.26 790.29 15.24
									 790.3 15.21 790.31 C15.18 790.31 15.14 790.32 15.1 790.32 C15.05 790.33 14.98 790.33 14.9 790.33
									 C14.84 790.33 14.79 790.33 14.74 790.33 C14.7 790.32 14.66 790.32 14.63 790.32 C14.6 790.32
									 14.57 790.31 14.55 790.3 C14.53 790.3 14.52 790.29 14.5 790.28 C14.49 790.27 14.48 790.26 14.47
									 790.25 C14.47 790.23 14.46 790.22 14.45 790.2 L13.55 787.5 C13.53 787.45 13.52 787.4 13.51 787.37
									 C13.51 787.33 13.52 787.31 13.54 787.29 C13.56 787.28 13.59 787.27 13.64 787.26 C13.68 787.26
									 13.75 787.26 13.83 787.26 C13.91 787.26 13.96 787.26 14 787.26 C14.04 787.26 14.08 787.27 14.1
									 787.28 C14.12 787.28 14.13 787.3 14.14 787.31 C14.15 787.33 14.16 787.35 14.17 787.37 L14.91
									 789.72 L14.91 789.72 L15.64 787.38 C15.64 787.36 15.65 787.33 15.66 787.32 C15.67 787.3 15.68
									 787.29 15.71 787.28 C15.73 787.27 15.76 787.26 15.8 787.26 C15.85 787.26 15.9 787.26 15.98 787.26
									 C16.05 787.26 16.11 787.26 16.15 787.26 C16.19 787.27 16.21 787.28 16.23 787.3 C16.24 787.32
									 16.25 787.34 16.24 787.37 C16.24 787.41 16.23 787.45 16.21 787.51 ZM20.18 790.23 C20.18 790.24
									 20.18 790.26 20.17 790.27 C20.16 790.28 20.14 790.29 20.12 790.3 C20.1 790.31 20.07 790.32 20.03
									 790.32 C19.99 790.32 19.94 790.33 19.89 790.33 C19.83 790.33 19.78 790.32 19.74 790.32 C19.71
									 790.32 19.68 790.31 19.66 790.3 C19.63 790.29 19.62 790.28 19.61 790.27 C19.6 790.26 19.59 790.24
									 19.59 790.23 L19.59 787.75 L19.59 787.75 L18.71 790.23 C18.7 790.25 18.69 790.26 18.68 790.28
									 C18.66 790.29 18.64 790.3 18.62 790.31 C18.6 790.32 18.56 790.32 18.53 790.32 C18.49 790.33
									 18.44 790.33 18.39 790.33 C18.34 790.33 18.29 790.33 18.25 790.32 C18.22 790.32 18.18 790.31
									 18.16 790.3 C18.14 790.29 18.12 790.28 18.1 790.27 C18.09 790.26 18.08 790.24 18.07 790.23 L17.22
									 787.75 L17.22 787.75 L17.22 790.23 C17.22 790.24 17.21 790.26 17.21 790.27 C17.2 790.28 17.18
									 790.29 17.16 790.3 C17.13 790.31 17.1 790.32 17.07 790.32 C17.03 790.32 16.98 790.33 16.92 790.33
									 C16.87 790.33 16.82 790.32 16.78 790.32 C16.75 790.32 16.72 790.31 16.69 790.3 C16.67 790.29
									 16.65 790.28 16.65 790.27 C16.64 790.26 16.63 790.24 16.63 790.23 L16.63 787.52 C16.63 787.44
									 16.65 787.38 16.7 787.33 C16.74 787.29 16.79 787.27 16.87 787.27 L17.27 787.27 C17.34 787.27
									 17.4 787.28 17.46 787.29 C17.51 787.3 17.55 787.32 17.59 787.35 C17.63 787.38 17.66 787.41 17.68
									 787.46 C17.71 787.5 17.73 787.56 17.75 787.62 L18.41 789.43 L18.42 789.43 L19.1 787.63 C19.12
									 787.56 19.14 787.51 19.17 787.46 C19.19 787.41 19.22 787.38 19.25 787.35 C19.28 787.32 19.32
									 787.3 19.36 787.29 C19.41 787.28 19.46 787.27 19.52 787.27 L19.93 787.27 C19.98 787.27 20.01
									 787.28 20.04 787.29 C20.07 787.3 20.1 787.31 20.12 787.34 C20.14 787.36 20.15 787.38 20.16 787.41
									 C20.17 787.44 20.18 787.48 20.18 787.52 L20.18 790.23 L20.18 790.23 ZM24.01 780.5 C24.01 780.94
									 23.67 781.28 23.23 781.28 L18.75 781.28 C18.32 783.04 18.52 783.25 21.55 783.25 L21.55 783.97
									 L18.02 783.97 L15.45 783.97 L12.14 783.97 L12.14 783.25 C14.86 783.25 15.31 783.04 14.88 781.28
									 L10.46 781.28 C10.03 781.28 9.68 780.94 9.68 780.5 L9.68 771.8 C9.68 771.37 10.03 771.01 10.46
									 771.01 L23.23 771.01 C23.67 771.01 24.01 771.37 24.01 771.8 L24.01 780.5 L24.01 780.5 Z"
								class="st3"/>
					</g>
				</g>
				<g id="group112-128" transform="translate(-12.9337,-1.13687E-13)" v:mID="112" v:groupContext="group">
					<title>Virtual machine.79</title>
					<g id="shape113-129" v:mID="113" v:groupContext="shape" transform="translate(10.6837,-11.7195)">
						<title>Sheet.113</title>
						<path d="M0 792 L12.32 792 L12.32 783.74 L0 783.74 L0 792 ZM8.87 789.59 L6.56 790.93 L6.56 788.26 L8.87 786.92
									 L8.87 789.59 ZM6.35 785.21 L8.66 786.55 L6.36 787.88 L4.04 786.54 L6.35 785.21 ZM3.81 786.91
									 L6.13 788.24 L6.13 790.93 L3.81 789.59 L3.81 786.91 Z" class="st3"/>
					</g>
					<g id="shape114-131" v:mID="114" v:groupContext="shape">
						<title>Sheet.114</title>
						<path d="M31.19 765.89 L1.44 765.89 C0.65 765.89 0 766.54 0 767.33 L0 790.56 C0 791.36 0.65 792 1.44 792
									 L31.19 792 C31.99 792 32.63 791.36 32.63 790.56 L32.63 767.33 C32.63 766.54 31.99 765.89 31.19
									 765.89 ZM16.21 787.51 L15.3 790.2 C15.29 790.23 15.28 790.25 15.27 790.27 C15.26 790.29 15.24
									 790.3 15.21 790.31 C15.18 790.31 15.14 790.32 15.1 790.32 C15.05 790.33 14.98 790.33 14.9 790.33
									 C14.84 790.33 14.79 790.33 14.74 790.33 C14.7 790.32 14.66 790.32 14.63 790.32 C14.6 790.32
									 14.57 790.31 14.55 790.3 C14.53 790.3 14.52 790.29 14.5 790.28 C14.49 790.27 14.48 790.26 14.47
									 790.25 C14.47 790.23 14.46 790.22 14.45 790.2 L13.55 787.5 C13.53 787.45 13.52 787.4 13.51 787.37
									 C13.51 787.33 13.52 787.31 13.54 787.29 C13.56 787.28 13.59 787.27 13.64 787.26 C13.68 787.26
									 13.75 787.26 13.83 787.26 C13.91 787.26 13.96 787.26 14 787.26 C14.04 787.26 14.08 787.27 14.1
									 787.28 C14.12 787.28 14.13 787.3 14.14 787.31 C14.15 787.33 14.16 787.35 14.17 787.37 L14.91
									 789.72 L14.91 789.72 L15.64 787.38 C15.64 787.36 15.65 787.33 15.66 787.32 C15.67 787.3 15.68
									 787.29 15.71 787.28 C15.73 787.27 15.76 787.26 15.8 787.26 C15.85 787.26 15.9 787.26 15.98 787.26
									 C16.05 787.26 16.11 787.26 16.15 787.26 C16.19 787.27 16.21 787.28 16.23 787.3 C16.24 787.32
									 16.25 787.34 16.24 787.37 C16.24 787.41 16.23 787.45 16.21 787.51 ZM20.18 790.23 C20.18 790.24
									 20.18 790.26 20.17 790.27 C20.16 790.28 20.14 790.29 20.12 790.3 C20.1 790.31 20.07 790.32 20.03
									 790.32 C19.99 790.32 19.94 790.33 19.89 790.33 C19.83 790.33 19.78 790.32 19.74 790.32 C19.71
									 790.32 19.68 790.31 19.66 790.3 C19.63 790.29 19.62 790.28 19.61 790.27 C19.6 790.26 19.59 790.24
									 19.59 790.23 L19.59 787.75 L19.59 787.75 L18.71 790.23 C18.7 790.25 18.69 790.26 18.68 790.28
									 C18.66 790.29 18.64 790.3 18.62 790.31 C18.6 790.32 18.56 790.32 18.53 790.32 C18.49 790.33
									 18.44 790.33 18.39 790.33 C18.34 790.33 18.29 790.33 18.25 790.32 C18.22 790.32 18.18 790.31
									 18.16 790.3 C18.14 790.29 18.12 790.28 18.1 790.27 C18.09 790.26 18.08 790.24 18.07 790.23 L17.22
									 787.75 L17.22 787.75 L17.22 790.23 C17.22 790.24 17.21 790.26 17.21 790.27 C17.2 790.28 17.18
									 790.29 17.16 790.3 C17.13 790.31 17.1 790.32 17.07 790.32 C17.03 790.32 16.98 790.33 16.92 790.33
									 C16.87 790.33 16.82 790.32 16.78 790.32 C16.75 790.32 16.72 790.31 16.69 790.3 C16.67 790.29
									 16.65 790.28 16.65 790.27 C16.64 790.26 16.63 790.24 16.63 790.23 L16.63 787.52 C16.63 787.44
									 16.65 787.38 16.7 787.33 C16.74 787.29 16.79 787.27 16.87 787.27 L17.27 787.27 C17.34 787.27
									 17.4 787.28 17.46 787.29 C17.51 787.3 17.55 787.32 17.59 787.35 C17.63 787.38 17.66 787.41 17.68
									 787.46 C17.71 787.5 17.73 787.56 17.75 787.62 L18.41 789.43 L18.42 789.43 L19.1 787.63 C19.12
									 787.56 19.14 787.51 19.17 787.46 C19.19 787.41 19.22 787.38 19.25 787.35 C19.28 787.32 19.32
									 787.3 19.36 787.29 C19.41 787.28 19.46 787.27 19.52 787.27 L19.93 787.27 C19.98 787.27 20.01
									 787.28 20.04 787.29 C20.07 787.3 20.1 787.31 20.12 787.34 C20.14 787.36 20.15 787.38 20.16 787.41
									 C20.17 787.44 20.18 787.48 20.18 787.52 L20.18 790.23 L20.18 790.23 ZM24.01 780.5 C24.01 780.94
									 23.67 781.28 23.23 781.28 L18.75 781.28 C18.32 783.04 18.52 783.25 21.55 783.25 L21.55 783.97
									 L18.02 783.97 L15.45 783.97 L12.14 783.97 L12.14 783.25 C14.86 783.25 15.31 783.04 14.88 781.28
									 L10.46 781.28 C10.03 781.28 9.68 780.94 9.68 780.5 L9.68 771.8 C9.68 771.37 10.03 771.01 10.46
									 771.01 L23.23 771.01 C23.67 771.01 24.01 771.37 24.01 771.8 L24.01 780.5 L24.01 780.5 Z"
								class="st3"/>
					</g>
				</g>
			</g>
			<g id="shape115-133" v:mID="115" v:groupContext="shape" transform="translate(44.6802,-4.5)">
				<title>Sheet.115</title>
				<path d="M0 792 L44.15 792 L44.15 689.26 L0 689.26 L0 792 Z" class="st11"/>
			</g>
			<g id="group116-135" transform="translate(3.63302,-88.7635)" v:mID="116" v:groupContext="group">
				<title>Sheet.116</title>
				<g id="group117-136" transform="translate(3.08463,-0.700182)" v:mID="117" v:groupContext="group">
					<title>Sheet.117</title>
					<g id="shape118-137" v:mID="118" v:groupContext="shape" v:layerMember="0">
						<title>Lock, protected.1135</title>
						<path d="M14.31 780.02 L13.31 780.02 L13.31 778.16 C13.31 774.24 10.81 772.23 7.9 772.23 L7.42 772.23 C4.45
									 772.23 2.01 774.19 2.01 778.16 L2.01 780.02 L1.01 780.02 C0.58 780.02 0 780.6 0 781.03 L0 790.99
									 C-0 791.42 0.58 792 1.01 792 L14.31 792 C14.74 792 15.32 791.42 15.32 790.99 L15.32 781.03 C15.32
									 780.6 14.74 780.02 14.31 780.02 ZM8.43 785.9 L8.43 790.04 L6.94 790.04 L6.94 785.9 C6.36 785.64
									 5.94 785.06 5.94 784.37 C5.94 783.41 6.73 782.62 7.69 782.62 C8.64 782.62 9.44 783.41 9.44 784.37
									 C9.38 785 9.01 785.59 8.43 785.9 ZM11.45 780.02 L3.87 780.02 L3.87 778.16 C3.87 775.67 5.2 773.98
									 7.42 773.98 L7.9 773.98 C10.18 773.98 11.45 775.67 11.45 778.16 L11.45 780.02 Z" class="st3"/>
					</g>
					<g id="shape119-139" v:mID="119" v:groupContext="shape" v:layerMember="0"
							transform="translate(2.28102,-0.389869)">
						<title>Sheet.119</title>
						<rect x="0" y="781.632" width="10.7581" height="10.3682" class="st3"/>
					</g>
				</g>
				<g id="shape120-141" v:mID="120" v:groupContext="shape">
					<title>Sheet.120</title>
					<desc>NSG</desc>
					<v:textBlock v:margins="rect(0,0,0,0)"/>
					<v:textRect cx="10.7447" cy="785.68" width="21.49" height="12.6408"/>
					<rect x="0" y="779.359" width="21.4894" height="12.6408" class="st4"/>
					<text x="4.72" y="787.48" class="st5" v:langID="1033"><v:paragraph v:horizAlign="1"/><v:tabList/>NSG</text>				</g>
			</g>
			<g id="shape121-144" v:mID="121" v:groupContext="shape" transform="translate(20.253,-57.4072) rotate(-0.877175)">
				<title>Sheet.121</title>
				<path d="M0 792 L10.78 792" class="st12"/>
			</g>
			<g id="shape122-149" v:mID="122" v:groupContext="shape" transform="translate(-674.893,378.085) rotate(-63.2551)">
				<title>Sheet.122</title>
				<path d="M0 792 L30.79 792" class="st12"/>
			</g>
			<g id="shape123-154" v:mID="123" v:groupContext="shape" transform="translate(737.397,373.652) rotate(62.8954)">
				<title>Sheet.123</title>
				<path d="M0 792 L30.35 792" class="st12"/>
			</g>
			<g id="group124-159" transform="translate(-6.39488E-14,-40.5)" v:mID="124" v:groupContext="group">
				<title>Azure load balancer.194</title>
				<g id="group125-160" transform="translate(2.6,-2.53462)" v:mID="125" v:groupContext="group">
					<title>Sheet.125</title>
					<g id="shape126-161" v:mID="126" v:groupContext="shape">
						<title>Sheet.126</title>
						<path d="M28 775.71 L16.29 764 C15.78 763.49 15.15 763.2 14.4 763.2 C13.71 763.2 13.02 763.49 12.51 764 L0.8
									 775.71 C0.29 776.22 0 776.85 0 777.6 C-0 778.29 0.29 778.98 0.8 779.49 L12.51 791.2 C13.02 791.71
									 13.65 792 14.4 792 C15.09 792 15.78 791.71 16.29 791.2 L28 779.49 C28.51 778.98 28.8 778.35
									 28.8 777.6 C28.74 776.85 28.46 776.17 28 775.71 ZM22.43 781.16 L22.43 778.52 L18.42 778.52 C18.01
									 779.89 16.92 780.98 15.55 781.39 L15.55 784.08 C16.12 784.48 16.98 785.4 16.98 786.38 C16.98
									 787.81 15.83 788.96 14.4 788.96 C12.97 788.96 11.82 787.81 11.82 786.38 C11.82 785.35 12.68
									 784.48 13.25 784.08 L13.25 781.44 C11.88 781.04 10.79 779.95 10.38 778.58 L6.37 778.58 L6.37
									 781.27 L2.58 777.49 L6.37 773.7 L6.37 776.34 L10.38 776.34 C10.79 774.96 11.88 773.87 13.25
									 773.47 L13.25 769.63 L10.61 769.63 L14.4 765.84 L18.19 769.63 L15.55 769.63 L15.55 773.47 C16.92
									 773.87 18.01 774.96 18.42 776.34 L22.43 776.34 L22.43 773.64 L26.22 777.43 L22.43 781.16 Z"
								class="st3"/>
					</g>
					<g id="shape127-163" v:mID="127" v:groupContext="shape" transform="translate(11.3594,-11.5888)">
						<title>Sheet.127</title>
						<path d="M3.04 785.92 C1.38 785.92 0 787.3 0 788.96 C0 790.62 1.38 792 3.04 792 C4.7 792 6.08 790.62 6.08
									 788.96 C6.08 787.3 4.7 785.92 3.04 785.92 Z" class="st3"/>
					</g>
				</g>
			</g>
		</g>
		<g id="group128-165" transform="translate(756.039,-454.263)" v:mID="128" v:groupContext="group">
			<title>Sheet.128</title>
			<g id="shape129-166" v:mID="129" v:groupContext="shape" transform="translate(2.56522,0)">
				<title>Sheet.129</title>
				<rect x="0" y="680.261" width="92.8125" height="111.739" class="st2"/>
			</g>
			<g id="group130-168" transform="translate(63.3729,-10.9463)" v:mID="130" v:groupContext="group">
				<title>Sheet.130</title>
				<g id="group131-169" transform="translate(-12.9337,-64.4985)" v:mID="131" v:groupContext="group">
					<title>Virtual machine</title>
					<g id="shape132-170" v:mID="132" v:groupContext="shape" transform="translate(10.6837,-11.7195)">
						<title>Sheet.132</title>
						<path d="M0 792 L12.32 792 L12.32 783.74 L0 783.74 L0 792 ZM8.87 789.59 L6.56 790.93 L6.56 788.26 L8.87 786.92
									 L8.87 789.59 ZM6.35 785.21 L8.66 786.55 L6.36 787.88 L4.04 786.54 L6.35 785.21 ZM3.81 786.91
									 L6.13 788.24 L6.13 790.93 L3.81 789.59 L3.81 786.91 Z" class="st3"/>
					</g>
					<g id="shape133-172" v:mID="133" v:groupContext="shape">
						<title>Sheet.133</title>
						<path d="M31.19 765.89 L1.44 765.89 C0.65 765.89 0 766.54 0 767.33 L0 790.56 C0 791.36 0.65 792 1.44 792
									 L31.19 792 C31.99 792 32.63 791.36 32.63 790.56 L32.63 767.33 C32.63 766.54 31.99 765.89 31.19
									 765.89 ZM16.21 787.51 L15.3 790.2 C15.29 790.23 15.28 790.25 15.27 790.27 C15.26 790.29 15.24
									 790.3 15.21 790.31 C15.18 790.31 15.14 790.32 15.1 790.32 C15.05 790.33 14.98 790.33 14.9 790.33
									 C14.84 790.33 14.79 790.33 14.74 790.33 C14.7 790.32 14.66 790.32 14.63 790.32 C14.6 790.32
									 14.57 790.31 14.55 790.3 C14.53 790.3 14.52 790.29 14.5 790.28 C14.49 790.27 14.48 790.26 14.47
									 790.25 C14.47 790.23 14.46 790.22 14.45 790.2 L13.55 787.5 C13.53 787.45 13.52 787.4 13.51 787.37
									 C13.51 787.33 13.52 787.31 13.54 787.29 C13.56 787.28 13.59 787.27 13.64 787.26 C13.68 787.26
									 13.75 787.26 13.83 787.26 C13.91 787.26 13.96 787.26 14 787.26 C14.04 787.26 14.08 787.27 14.1
									 787.28 C14.12 787.28 14.13 787.3 14.14 787.31 C14.15 787.33 14.16 787.35 14.17 787.37 L14.91
									 789.72 L14.91 789.72 L15.64 787.38 C15.64 787.36 15.65 787.33 15.66 787.32 C15.67 787.3 15.68
									 787.29 15.71 787.28 C15.73 787.27 15.76 787.26 15.8 787.26 C15.85 787.26 15.9 787.26 15.98 787.26
									 C16.05 787.26 16.11 787.26 16.15 787.26 C16.19 787.27 16.21 787.28 16.23 787.3 C16.24 787.32
									 16.25 787.34 16.24 787.37 C16.24 787.41 16.23 787.45 16.21 787.51 ZM20.18 790.23 C20.18 790.24
									 20.18 790.26 20.17 790.27 C20.16 790.28 20.14 790.29 20.12 790.3 C20.1 790.31 20.07 790.32 20.03
									 790.32 C19.99 790.32 19.94 790.33 19.89 790.33 C19.83 790.33 19.78 790.32 19.74 790.32 C19.71
									 790.32 19.68 790.31 19.66 790.3 C19.63 790.29 19.62 790.28 19.61 790.27 C19.6 790.26 19.59 790.24
									 19.59 790.23 L19.59 787.75 L19.59 787.75 L18.71 790.23 C18.7 790.25 18.69 790.26 18.68 790.28
									 C18.66 790.29 18.64 790.3 18.62 790.31 C18.6 790.32 18.56 790.32 18.53 790.32 C18.49 790.33
									 18.44 790.33 18.39 790.33 C18.34 790.33 18.29 790.33 18.25 790.32 C18.22 790.32 18.18 790.31
									 18.16 790.3 C18.14 790.29 18.12 790.28 18.1 790.27 C18.09 790.26 18.08 790.24 18.07 790.23 L17.22
									 787.75 L17.22 787.75 L17.22 790.23 C17.22 790.24 17.21 790.26 17.21 790.27 C17.2 790.28 17.18
									 790.29 17.16 790.3 C17.13 790.31 17.1 790.32 17.07 790.32 C17.03 790.32 16.98 790.33 16.92 790.33
									 C16.87 790.33 16.82 790.32 16.78 790.32 C16.75 790.32 16.72 790.31 16.69 790.3 C16.67 790.29
									 16.65 790.28 16.65 790.27 C16.64 790.26 16.63 790.24 16.63 790.23 L16.63 787.52 C16.63 787.44
									 16.65 787.38 16.7 787.33 C16.74 787.29 16.79 787.27 16.87 787.27 L17.27 787.27 C17.34 787.27
									 17.4 787.28 17.46 787.29 C17.51 787.3 17.55 787.32 17.59 787.35 C17.63 787.38 17.66 787.41 17.68
									 787.46 C17.71 787.5 17.73 787.56 17.75 787.62 L18.41 789.43 L18.42 789.43 L19.1 787.63 C19.12
									 787.56 19.14 787.51 19.17 787.46 C19.19 787.41 19.22 787.38 19.25 787.35 C19.28 787.32 19.32
									 787.3 19.36 787.29 C19.41 787.28 19.46 787.27 19.52 787.27 L19.93 787.27 C19.98 787.27 20.01
									 787.28 20.04 787.29 C20.07 787.3 20.1 787.31 20.12 787.34 C20.14 787.36 20.15 787.38 20.16 787.41
									 C20.17 787.44 20.18 787.48 20.18 787.52 L20.18 790.23 L20.18 790.23 ZM24.01 780.5 C24.01 780.94
									 23.67 781.28 23.23 781.28 L18.75 781.28 C18.32 783.04 18.52 783.25 21.55 783.25 L21.55 783.97
									 L18.02 783.97 L15.45 783.97 L12.14 783.97 L12.14 783.25 C14.86 783.25 15.31 783.04 14.88 781.28
									 L10.46 781.28 C10.03 781.28 9.68 780.94 9.68 780.5 L9.68 771.8 C9.68 771.37 10.03 771.01 10.46
									 771.01 L23.23 771.01 C23.67 771.01 24.01 771.37 24.01 771.8 L24.01 780.5 L24.01 780.5 Z"
								class="st3"/>
					</g>
				</g>
				<g id="group134-174" transform="translate(-12.9337,-32.2492)" v:mID="134" v:groupContext="group">
					<title>Virtual machine.76</title>
					<g id="shape135-175" v:mID="135" v:groupContext="shape" transform="translate(10.6837,-11.7195)">
						<title>Sheet.135</title>
						<path d="M0 792 L12.32 792 L12.32 783.74 L0 783.74 L0 792 ZM8.87 789.59 L6.56 790.93 L6.56 788.26 L8.87 786.92
									 L8.87 789.59 ZM6.35 785.21 L8.66 786.55 L6.36 787.88 L4.04 786.54 L6.35 785.21 ZM3.81 786.91
									 L6.13 788.24 L6.13 790.93 L3.81 789.59 L3.81 786.91 Z" class="st3"/>
					</g>
					<g id="shape136-177" v:mID="136" v:groupContext="shape">
						<title>Sheet.136</title>
						<path d="M31.19 765.89 L1.44 765.89 C0.65 765.89 0 766.54 0 767.33 L0 790.56 C0 791.36 0.65 792 1.44 792
									 L31.19 792 C31.99 792 32.63 791.36 32.63 790.56 L32.63 767.33 C32.63 766.54 31.99 765.89 31.19
									 765.89 ZM16.21 787.51 L15.3 790.2 C15.29 790.23 15.28 790.25 15.27 790.27 C15.26 790.29 15.24
									 790.3 15.21 790.31 C15.18 790.31 15.14 790.32 15.1 790.32 C15.05 790.33 14.98 790.33 14.9 790.33
									 C14.84 790.33 14.79 790.33 14.74 790.33 C14.7 790.32 14.66 790.32 14.63 790.32 C14.6 790.32
									 14.57 790.31 14.55 790.3 C14.53 790.3 14.52 790.29 14.5 790.28 C14.49 790.27 14.48 790.26 14.47
									 790.25 C14.47 790.23 14.46 790.22 14.45 790.2 L13.55 787.5 C13.53 787.45 13.52 787.4 13.51 787.37
									 C13.51 787.33 13.52 787.31 13.54 787.29 C13.56 787.28 13.59 787.27 13.64 787.26 C13.68 787.26
									 13.75 787.26 13.83 787.26 C13.91 787.26 13.96 787.26 14 787.26 C14.04 787.26 14.08 787.27 14.1
									 787.28 C14.12 787.28 14.13 787.3 14.14 787.31 C14.15 787.33 14.16 787.35 14.17 787.37 L14.91
									 789.72 L14.91 789.72 L15.64 787.38 C15.64 787.36 15.65 787.33 15.66 787.32 C15.67 787.3 15.68
									 787.29 15.71 787.28 C15.73 787.27 15.76 787.26 15.8 787.26 C15.85 787.26 15.9 787.26 15.98 787.26
									 C16.05 787.26 16.11 787.26 16.15 787.26 C16.19 787.27 16.21 787.28 16.23 787.3 C16.24 787.32
									 16.25 787.34 16.24 787.37 C16.24 787.41 16.23 787.45 16.21 787.51 ZM20.18 790.23 C20.18 790.24
									 20.18 790.26 20.17 790.27 C20.16 790.28 20.14 790.29 20.12 790.3 C20.1 790.31 20.07 790.32 20.03
									 790.32 C19.99 790.32 19.94 790.33 19.89 790.33 C19.83 790.33 19.78 790.32 19.74 790.32 C19.71
									 790.32 19.68 790.31 19.66 790.3 C19.63 790.29 19.62 790.28 19.61 790.27 C19.6 790.26 19.59 790.24
									 19.59 790.23 L19.59 787.75 L19.59 787.75 L18.71 790.23 C18.7 790.25 18.69 790.26 18.68 790.28
									 C18.66 790.29 18.64 790.3 18.62 790.31 C18.6 790.32 18.56 790.32 18.53 790.32 C18.49 790.33
									 18.44 790.33 18.39 790.33 C18.34 790.33 18.29 790.33 18.25 790.32 C18.22 790.32 18.18 790.31
									 18.16 790.3 C18.14 790.29 18.12 790.28 18.1 790.27 C18.09 790.26 18.08 790.24 18.07 790.23 L17.22
									 787.75 L17.22 787.75 L17.22 790.23 C17.22 790.24 17.21 790.26 17.21 790.27 C17.2 790.28 17.18
									 790.29 17.16 790.3 C17.13 790.31 17.1 790.32 17.07 790.32 C17.03 790.32 16.98 790.33 16.92 790.33
									 C16.87 790.33 16.82 790.32 16.78 790.32 C16.75 790.32 16.72 790.31 16.69 790.3 C16.67 790.29
									 16.65 790.28 16.65 790.27 C16.64 790.26 16.63 790.24 16.63 790.23 L16.63 787.52 C16.63 787.44
									 16.65 787.38 16.7 787.33 C16.74 787.29 16.79 787.27 16.87 787.27 L17.27 787.27 C17.34 787.27
									 17.4 787.28 17.46 787.29 C17.51 787.3 17.55 787.32 17.59 787.35 C17.63 787.38 17.66 787.41 17.68
									 787.46 C17.71 787.5 17.73 787.56 17.75 787.62 L18.41 789.43 L18.42 789.43 L19.1 787.63 C19.12
									 787.56 19.14 787.51 19.17 787.46 C19.19 787.41 19.22 787.38 19.25 787.35 C19.28 787.32 19.32
									 787.3 19.36 787.29 C19.41 787.28 19.46 787.27 19.52 787.27 L19.93 787.27 C19.98 787.27 20.01
									 787.28 20.04 787.29 C20.07 787.3 20.1 787.31 20.12 787.34 C20.14 787.36 20.15 787.38 20.16 787.41
									 C20.17 787.44 20.18 787.48 20.18 787.52 L20.18 790.23 L20.18 790.23 ZM24.01 780.5 C24.01 780.94
									 23.67 781.28 23.23 781.28 L18.75 781.28 C18.32 783.04 18.52 783.25 21.55 783.25 L21.55 783.97
									 L18.02 783.97 L15.45 783.97 L12.14 783.97 L12.14 783.25 C14.86 783.25 15.31 783.04 14.88 781.28
									 L10.46 781.28 C10.03 781.28 9.68 780.94 9.68 780.5 L9.68 771.8 C9.68 771.37 10.03 771.01 10.46
									 771.01 L23.23 771.01 C23.67 771.01 24.01 771.37 24.01 771.8 L24.01 780.5 L24.01 780.5 Z"
								class="st3"/>
					</g>
				</g>
				<g id="group137-179" transform="translate(-12.9337,-1.13687E-13)" v:mID="137" v:groupContext="group">
					<title>Virtual machine.79</title>
					<g id="shape138-180" v:mID="138" v:groupContext="shape" transform="translate(10.6837,-11.7195)">
						<title>Sheet.138</title>
						<path d="M0 792 L12.32 792 L12.32 783.74 L0 783.74 L0 792 ZM8.87 789.59 L6.56 790.93 L6.56 788.26 L8.87 786.92
									 L8.87 789.59 ZM6.35 785.21 L8.66 786.55 L6.36 787.88 L4.04 786.54 L6.35 785.21 ZM3.81 786.91
									 L6.13 788.24 L6.13 790.93 L3.81 789.59 L3.81 786.91 Z" class="st3"/>
					</g>
					<g id="shape139-182" v:mID="139" v:groupContext="shape">
						<title>Sheet.139</title>
						<path d="M31.19 765.89 L1.44 765.89 C0.65 765.89 0 766.54 0 767.33 L0 790.56 C0 791.36 0.65 792 1.44 792
									 L31.19 792 C31.99 792 32.63 791.36 32.63 790.56 L32.63 767.33 C32.63 766.54 31.99 765.89 31.19
									 765.89 ZM16.21 787.51 L15.3 790.2 C15.29 790.23 15.28 790.25 15.27 790.27 C15.26 790.29 15.24
									 790.3 15.21 790.31 C15.18 790.31 15.14 790.32 15.1 790.32 C15.05 790.33 14.98 790.33 14.9 790.33
									 C14.84 790.33 14.79 790.33 14.74 790.33 C14.7 790.32 14.66 790.32 14.63 790.32 C14.6 790.32
									 14.57 790.31 14.55 790.3 C14.53 790.3 14.52 790.29 14.5 790.28 C14.49 790.27 14.48 790.26 14.47
									 790.25 C14.47 790.23 14.46 790.22 14.45 790.2 L13.55 787.5 C13.53 787.45 13.52 787.4 13.51 787.37
									 C13.51 787.33 13.52 787.31 13.54 787.29 C13.56 787.28 13.59 787.27 13.64 787.26 C13.68 787.26
									 13.75 787.26 13.83 787.26 C13.91 787.26 13.96 787.26 14 787.26 C14.04 787.26 14.08 787.27 14.1
									 787.28 C14.12 787.28 14.13 787.3 14.14 787.31 C14.15 787.33 14.16 787.35 14.17 787.37 L14.91
									 789.72 L14.91 789.72 L15.64 787.38 C15.64 787.36 15.65 787.33 15.66 787.32 C15.67 787.3 15.68
									 787.29 15.71 787.28 C15.73 787.27 15.76 787.26 15.8 787.26 C15.85 787.26 15.9 787.26 15.98 787.26
									 C16.05 787.26 16.11 787.26 16.15 787.26 C16.19 787.27 16.21 787.28 16.23 787.3 C16.24 787.32
									 16.25 787.34 16.24 787.37 C16.24 787.41 16.23 787.45 16.21 787.51 ZM20.18 790.23 C20.18 790.24
									 20.18 790.26 20.17 790.27 C20.16 790.28 20.14 790.29 20.12 790.3 C20.1 790.31 20.07 790.32 20.03
									 790.32 C19.99 790.32 19.94 790.33 19.89 790.33 C19.83 790.33 19.78 790.32 19.74 790.32 C19.71
									 790.32 19.68 790.31 19.66 790.3 C19.63 790.29 19.62 790.28 19.61 790.27 C19.6 790.26 19.59 790.24
									 19.59 790.23 L19.59 787.75 L19.59 787.75 L18.71 790.23 C18.7 790.25 18.69 790.26 18.68 790.28
									 C18.66 790.29 18.64 790.3 18.62 790.31 C18.6 790.32 18.56 790.32 18.53 790.32 C18.49 790.33
									 18.44 790.33 18.39 790.33 C18.34 790.33 18.29 790.33 18.25 790.32 C18.22 790.32 18.18 790.31
									 18.16 790.3 C18.14 790.29 18.12 790.28 18.1 790.27 C18.09 790.26 18.08 790.24 18.07 790.23 L17.22
									 787.75 L17.22 787.75 L17.22 790.23 C17.22 790.24 17.21 790.26 17.21 790.27 C17.2 790.28 17.18
									 790.29 17.16 790.3 C17.13 790.31 17.1 790.32 17.07 790.32 C17.03 790.32 16.98 790.33 16.92 790.33
									 C16.87 790.33 16.82 790.32 16.78 790.32 C16.75 790.32 16.72 790.31 16.69 790.3 C16.67 790.29
									 16.65 790.28 16.65 790.27 C16.64 790.26 16.63 790.24 16.63 790.23 L16.63 787.52 C16.63 787.44
									 16.65 787.38 16.7 787.33 C16.74 787.29 16.79 787.27 16.87 787.27 L17.27 787.27 C17.34 787.27
									 17.4 787.28 17.46 787.29 C17.51 787.3 17.55 787.32 17.59 787.35 C17.63 787.38 17.66 787.41 17.68
									 787.46 C17.71 787.5 17.73 787.56 17.75 787.62 L18.41 789.43 L18.42 789.43 L19.1 787.63 C19.12
									 787.56 19.14 787.51 19.17 787.46 C19.19 787.41 19.22 787.38 19.25 787.35 C19.28 787.32 19.32
									 787.3 19.36 787.29 C19.41 787.28 19.46 787.27 19.52 787.27 L19.93 787.27 C19.98 787.27 20.01
									 787.28 20.04 787.29 C20.07 787.3 20.1 787.31 20.12 787.34 C20.14 787.36 20.15 787.38 20.16 787.41
									 C20.17 787.44 20.18 787.48 20.18 787.52 L20.18 790.23 L20.18 790.23 ZM24.01 780.5 C24.01 780.94
									 23.67 781.28 23.23 781.28 L18.75 781.28 C18.32 783.04 18.52 783.25 21.55 783.25 L21.55 783.97
									 L18.02 783.97 L15.45 783.97 L12.14 783.97 L12.14 783.25 C14.86 783.25 15.31 783.04 14.88 781.28
									 L10.46 781.28 C10.03 781.28 9.68 780.94 9.68 780.5 L9.68 771.8 C9.68 771.37 10.03 771.01 10.46
									 771.01 L23.23 771.01 C23.67 771.01 24.01 771.37 24.01 771.8 L24.01 780.5 L24.01 780.5 Z"
								class="st3"/>
					</g>
				</g>
			</g>
			<g id="shape140-184" v:mID="140" v:groupContext="shape" transform="translate(44.6802,-4.5)">
				<title>Sheet.140</title>
				<path d="M0 792 L44.15 792 L44.15 689.26 L0 689.26 L0 792 Z" class="st11"/>
			</g>
			<g id="group141-186" transform="translate(3.63302,-88.7635)" v:mID="141" v:groupContext="group">
				<title>Sheet.141</title>
				<g id="group142-187" transform="translate(3.08463,-0.700182)" v:mID="142" v:groupContext="group">
					<title>Sheet.142</title>
					<g id="shape143-188" v:mID="143" v:groupContext="shape" v:layerMember="0">
						<title>Lock, protected.1135</title>
						<path d="M14.31 780.02 L13.31 780.02 L13.31 778.16 C13.31 774.24 10.81 772.23 7.9 772.23 L7.42 772.23 C4.45
									 772.23 2.01 774.19 2.01 778.16 L2.01 780.02 L1.01 780.02 C0.58 780.02 0 780.6 0 781.03 L0 790.99
									 C-0 791.42 0.58 792 1.01 792 L14.31 792 C14.74 792 15.32 791.42 15.32 790.99 L15.32 781.03 C15.32
									 780.6 14.74 780.02 14.31 780.02 ZM8.43 785.9 L8.43 790.04 L6.94 790.04 L6.94 785.9 C6.36 785.64
									 5.94 785.06 5.94 784.37 C5.94 783.41 6.73 782.62 7.69 782.62 C8.64 782.62 9.44 783.41 9.44 784.37
									 C9.38 785 9.01 785.59 8.43 785.9 ZM11.45 780.02 L3.87 780.02 L3.87 778.16 C3.87 775.67 5.2 773.98
									 7.42 773.98 L7.9 773.98 C10.18 773.98 11.45 775.67 11.45 778.16 L11.45 780.02 Z" class="st3"/>
					</g>
					<g id="shape144-190" v:mID="144" v:groupContext="shape" v:layerMember="0"
							transform="translate(2.28102,-0.389869)">
						<title>Sheet.144</title>
						<rect x="0" y="781.632" width="10.7581" height="10.3682" class="st3"/>
					</g>
				</g>
				<g id="shape145-192" v:mID="145" v:groupContext="shape">
					<title>Sheet.145</title>
					<desc>NSG</desc>
					<v:textBlock v:margins="rect(0,0,0,0)"/>
					<v:textRect cx="10.7447" cy="785.68" width="21.49" height="12.6408"/>
					<rect x="0" y="779.359" width="21.4894" height="12.6408" class="st4"/>
					<text x="4.72" y="787.48" class="st5" v:langID="1033"><v:paragraph v:horizAlign="1"/><v:tabList/>NSG</text>				</g>
			</g>
			<g id="shape146-195" v:mID="146" v:groupContext="shape" transform="translate(20.253,-57.4072) rotate(-0.877175)">
				<title>Sheet.146</title>
				<path d="M0 792 L10.78 792" class="st12"/>
			</g>
			<g id="shape147-200" v:mID="147" v:groupContext="shape" transform="translate(-674.893,378.085) rotate(-63.2551)">
				<title>Sheet.147</title>
				<path d="M0 792 L30.79 792" class="st12"/>
			</g>
			<g id="shape148-205" v:mID="148" v:groupContext="shape" transform="translate(737.397,373.652) rotate(62.8954)">
				<title>Sheet.148</title>
				<path d="M0 792 L30.35 792" class="st12"/>
			</g>
			<g id="group149-210" transform="translate(-6.39488E-14,-40.5)" v:mID="149" v:groupContext="group">
				<title>Azure load balancer.194</title>
				<g id="group150-211" transform="translate(2.6,-2.53462)" v:mID="150" v:groupContext="group">
					<title>Sheet.150</title>
					<g id="shape151-212" v:mID="151" v:groupContext="shape">
						<title>Sheet.151</title>
						<path d="M28 775.71 L16.29 764 C15.78 763.49 15.15 763.2 14.4 763.2 C13.71 763.2 13.02 763.49 12.51 764 L0.8
									 775.71 C0.29 776.22 0 776.85 0 777.6 C-0 778.29 0.29 778.98 0.8 779.49 L12.51 791.2 C13.02 791.71
									 13.65 792 14.4 792 C15.09 792 15.78 791.71 16.29 791.2 L28 779.49 C28.51 778.98 28.8 778.35
									 28.8 777.6 C28.74 776.85 28.46 776.17 28 775.71 ZM22.43 781.16 L22.43 778.52 L18.42 778.52 C18.01
									 779.89 16.92 780.98 15.55 781.39 L15.55 784.08 C16.12 784.48 16.98 785.4 16.98 786.38 C16.98
									 787.81 15.83 788.96 14.4 788.96 C12.97 788.96 11.82 787.81 11.82 786.38 C11.82 785.35 12.68
									 784.48 13.25 784.08 L13.25 781.44 C11.88 781.04 10.79 779.95 10.38 778.58 L6.37 778.58 L6.37
									 781.27 L2.58 777.49 L6.37 773.7 L6.37 776.34 L10.38 776.34 C10.79 774.96 11.88 773.87 13.25
									 773.47 L13.25 769.63 L10.61 769.63 L14.4 765.84 L18.19 769.63 L15.55 769.63 L15.55 773.47 C16.92
									 773.87 18.01 774.96 18.42 776.34 L22.43 776.34 L22.43 773.64 L26.22 777.43 L22.43 781.16 Z"
								class="st3"/>
					</g>
					<g id="shape152-214" v:mID="152" v:groupContext="shape" transform="translate(11.3594,-11.5888)">
						<title>Sheet.152</title>
						<path d="M3.04 785.92 C1.38 785.92 0 787.3 0 788.96 C0 790.62 1.38 792 3.04 792 C4.7 792 6.08 790.62 6.08
									 788.96 C6.08 787.3 4.7 785.92 3.04 785.92 Z" class="st3"/>
					</g>
				</g>
			</g>
		</g>
		<g id="shape163-216" v:mID="163" v:groupContext="shape" transform="translate(568.861,-512.989) rotate(-0.0190658)">
			<title>Sheet.163</title>
			<path d="M0 792 L28.28 792" class="st12"/>
		</g>
		<g id="group160-221" transform="translate(523.542,-480.158)" v:mID="160" v:groupContext="group">
			<title>Sheet.160</title>
			<g id="shape161-222" v:mID="161" v:groupContext="shape" transform="translate(6.87576,-13.4775)">
				<title>Internet</title>
				<v:userDefs>
					<v:ud v:nameU="msvShapeCategories" v:prompt="" v:val="VT4(Icon)"/>
					<v:ud v:nameU="visVersion" v:prompt="" v:val="VT0(15):26"/>
				</v:userDefs>
				<path d="M19.35 753.29 A19.3542 19.3542 -180 0 0 -0 772.65 A19.3534 19.3534 -180 0 0 19.35 792 A19.3527 19.3527 -180
							 0 0 38.71 772.65 A19.3534 19.3534 -180 0 0 19.35 753.29 ZM19.95 789.55 L19.95 788.92 L19.95 781.72 L26.5
							 781.72 L26.08 782.59 A21.8723 21.8723 0 0 1 21.86 788.55 L21.21 789.15 L20.81 789.51 L19.95 789.55 ZM20.59
							 755.78 L20.96 756.11 A21.9105 21.9105 0 0 1 25.94 762.7 L26.37 763.57 L19.95 763.57 L19.95 755.74 L20.59
							 755.78 ZM33.63 763.57 L27.7 763.57 L27.54 763.21 A23.2089 23.2089 -180 0 0 23.34 756.74 L22.7 756.05
							 A16.9691 16.9691 0 0 1 33.63 763.57 ZM19.95 772.05 L19.95 764.78 L26.86 764.78 L27 765.19 A22.7591 22.7591
							 0 0 1 28.26 771.41 L28.29 772.05 L19.95 772.05 L19.95 772.05 ZM28.31 773.26 L28.28 773.89 A22.6228 22.6228
							 0 0 1 27.09 780.1 L26.95 780.51 L19.95 780.51 L19.95 773.26 L28.31 773.26 ZM23.53 788.52 A23.081 23.081
							 -180 0 0 27.62 782.09 L27.78 781.72 L33.63 781.72 A16.9685 16.9685 0 0 1 22.93 789.19 L23.53 788.52
							 ZM28.24 780.51 L28.48 779.73 A23.8859 23.8859 -180 0 0 29.5 773.84 L29.52 773.26 L36.26 773.26 A16.823
							 16.823 0 0 1 34.34 780.51 L28.24 780.51 ZM29.52 772.05 L29.49 771.48 A24.0155 24.0155 -180 0 0 28.42
							 765.57 L28.18 764.78 L34.34 764.78 A16.7965 16.7965 0 0 1 36.26 772.05 L29.52 772.05 ZM18.74 756.62
							 L18.74 763.57 L12.34 763.57 L12.77 762.7 A21.9716 21.9716 0 0 1 16.91 756.92 L16.92 756.91 L16.91 756.92
							 L17.48 756.39 L18.18 755.77 L18.74 755.74 L18.74 756.62 ZM16.08 756.04 L15.44 756.72 A23.1437 23.1437
							 -180 0 0 11.23 763.21 L11.07 763.57 L5.08 763.57 A16.962 16.962 0 0 1 16.08 756.04 ZM10.59 764.78 L10.34
							 765.57 A23.8814 23.8814 -180 0 0 9.28 771.48 L9.25 772.05 L2.45 772.05 A16.8134 16.8134 0 0 1 4.37 764.78
							 L10.59 764.78 ZM2.45 773.26 L9.24 773.26 L9.27 773.84 A23.7416 23.7416 -180 0 0 10.28 779.73 L10.52
							 780.51 L4.37 780.51 A16.822 16.822 0 0 1 2.45 773.26 ZM10.99 781.72 L11.15 782.09 A23.1047 23.1047 -180
							 0 0 15.25 788.55 L15.86 789.22 A16.9721 16.9721 0 0 1 5.08 781.72 L10.99 781.72 L10.99 781.72 ZM11.7
							 780.1 A22.7342 22.7342 0 0 1 10.5 773.9 L10.47 773.26 L18.74 773.26 L18.74 780.51 L11.84 780.51 L11.7
							 780.1 ZM10.46 772.05 L10.49 771.41 A22.5781 22.5781 0 0 1 11.74 765.19 L11.88 764.78 L18.74 764.78 L18.74
							 772.05 L10.46 772.05 ZM17.96 789.51 L17.73 789.31 A22.0124 22.0124 0 0 1 12.74 782.59 L12.31 781.72
							 L18.74 781.72 L18.74 789.55 L17.96 789.51 Z" class="st14"/>
			</g>
			<g id="shape162-224" v:mID="162" v:groupContext="shape">
				<title>Sheet.162</title>
				<desc>Internet</desc>
				<v:textBlock v:margins="rect(4,4,4,4)"/>
				<v:textRect cx="26.2291" cy="785.644" width="52.46" height="12.7122"/>
				<rect x="0" y="779.288" width="52.4582" height="12.7122" class="st4"/>
				<text x="12.35" y="788.04" class="st7" v:langID="1033"><v:paragraph v:horizAlign="1"/><v:tabList/>Internet</text>			</g>
		</g>
	</g>
</svg>
